<svg xmlns="http://www.w3.org/2000/svg" xmlns:xlink="http://www.w3.org/1999/xlink" width="1080" zoomAndPan="magnify" viewBox="0 0 810 809.999993" height="1080" preserveAspectRatio="xMidYMid meet" version="1.0"><defs><clipPath id="89c13c8ea5"><path d="M 243 523.726562 L 552.425781 523.726562 L 552.425781 534 L 243 534 Z M 243 523.726562 " clip-rule="nonzero"/></clipPath><clipPath id="b312dd5239"><path d="M 559.179688 337.558594 L 567 337.558594 L 567 348 L 559.179688 348 Z M 559.179688 337.558594 " clip-rule="nonzero"/></clipPath><clipPath id="88718172ba"><path d="M 374 276.007812 L 406 276.007812 L 406 316 L 374 316 Z M 374 276.007812 " clip-rule="nonzero"/></clipPath></defs><rect x="-81" width="972" fill="#ffffff" y="-80.999999" height="971.999992" fill-opacity="1"/><rect x="-81" width="972" fill="#fffaf5" y="-80.999999" height="971.999992" fill-opacity="1"/><path fill="#8a9a9f" d="M 307.75 527.757812 L 302.523438 527.757812 L 299.695312 514.035156 L 304.925781 514.035156 L 307.75 527.757812 " fill-opacity="1" fill-rule="nonzero"/><path fill="#493152" d="M 283.339844 421.222656 L 278.019531 421.222656 C 269.515625 421.222656 262.78125 426.707031 261.867188 434.320312 C 261.523438 437.1875 261.308594 440.074219 261.183594 442.941406 C 260.253906 464.308594 263.355469 485.851562 268.921875 507.207031 C 270.449219 513.058594 275.753906 517.132812 281.804688 517.132812 L 297.324219 517.132812 C 282.414062 487.691406 277.820312 453.933594 283.339844 421.222656 " fill-opacity="1" fill-rule="nonzero"/><path fill="#6d4a79" d="M 364.28125 475.558594 C 363.429688 461.84375 360.847656 448.074219 356.636719 434.59375 C 354.203125 426.8125 346.113281 421.222656 337.441406 421.222656 L 279.839844 421.222656 C 274.324219 453.933594 279.652344 487.691406 294.5625 517.132812 L 366.859375 517.132812 C 364.507812 503.558594 365.132812 489.242188 364.28125 475.558594 " fill-opacity="1" fill-rule="nonzero"/><path fill="#7a232b" d="M 388.976562 357.246094 C 396.859375 357.246094 403.25 363.636719 403.25 371.523438 C 403.25 379.40625 396.859375 385.796875 388.976562 385.796875 C 381.09375 385.796875 374.703125 379.40625 374.703125 371.523438 C 374.703125 363.636719 381.09375 357.246094 388.976562 357.246094 " fill-opacity="1" fill-rule="nonzero"/><path fill="#5f95d5" d="M 389.160156 466.886719 C 389.007812 466.886719 388.867188 466.796875 388.804688 466.648438 C 387.953125 464.519531 387.785156 462.984375 388.308594 462.089844 C 388.46875 461.8125 388.671875 461.644531 388.839844 461.546875 L 388.191406 457.71875 C 388.15625 457.507812 388.296875 457.3125 388.507812 457.277344 C 388.710938 457.238281 388.914062 457.382812 388.949219 457.589844 L 389.71875 462.117188 L 389.320312 462.167969 C 389.324219 462.167969 389.109375 462.214844 388.953125 462.503906 C 388.746094 462.894531 388.539062 463.914062 389.519531 466.363281 C 389.597656 466.558594 389.503906 466.78125 389.304688 466.859375 C 389.257812 466.878906 389.210938 466.886719 389.160156 466.886719 " fill-opacity="1" fill-rule="nonzero"/><path fill="#f25949" d="M 367.496094 459.964844 C 364.992188 470.292969 382.058594 480.316406 395.386719 483.824219 C 413.527344 488.601562 417.429688 488.601562 430.667969 489.671875 C 442.234375 490.609375 448.078125 483.152344 448.359375 476.425781 C 448.644531 469.464844 439.835938 465.324219 435.191406 463.949219 C 409.921875 456.5 409.972656 456.632812 391.40625 451.21875 C 391.414062 451.234375 370.941406 445.769531 367.496094 459.964844 " fill-opacity="1" fill-rule="nonzero"/><path fill="#f25949" d="M 371.800781 466.589844 C 368.128906 476.5625 348.382812 475.398438 335.347656 470.890625 C 317.613281 464.765625 314.375 462.589844 302.777344 456.117188 C 292.644531 450.464844 291.933594 441.007812 295.445312 435.269531 C 299.082031 429.332031 308.707031 430.78125 313.328125 432.234375 C 338.46875 440.105469 342.148438 441.878906 360.589844 447.707031 C 360.582031 447.707031 376.835938 452.871094 371.800781 466.589844 " fill-opacity="1" fill-rule="nonzero"/><path fill="#f25949" d="M 318.660156 527.601562 C 321.410156 507.167969 325.761719 484.714844 332.832031 471.179688 C 337.058594 463.078125 341.632812 452.871094 341.632812 452.871094 C 341.632812 452.871094 356.480469 447.988281 374.71875 448.101562 C 395.304688 448.238281 405.511719 463.398438 405.511719 463.398438 C 402.40625 491.78125 395.007812 507.253906 392.378906 528.453125 L 318.660156 527.601562 " fill-opacity="1" fill-rule="nonzero"/><path fill="#f8a49e" d="M 374.484375 447.832031 C 379.984375 447.832031 384.445312 450.386719 384.445312 453.535156 C 384.445312 456.6875 379.984375 459.242188 374.484375 459.242188 C 368.980469 459.242188 364.519531 456.6875 364.519531 453.535156 C 364.519531 450.386719 368.980469 447.832031 374.484375 447.832031 " fill-opacity="1" fill-rule="nonzero"/><path fill="#f8a49e" d="M 360.488281 453.910156 C 360.738281 450.769531 367.066406 448.71875 374.617188 449.335938 C 382.160156 449.953125 388.074219 452.996094 387.8125 456.144531 C 387.558594 459.28125 389.820312 469.144531 377.605469 469.710938 C 362.378906 470.417969 360.234375 457.054688 360.488281 453.910156 " fill-opacity="1" fill-rule="nonzero"/><path fill="#963537" d="M 367.699219 414.878906 C 357.449219 392.867188 377.308594 367.828125 398.574219 374.535156 C 408.042969 377.453125 412.664062 383.445312 415.703125 385.796875 C 422.71875 391.929688 420.652344 407.34375 414.402344 415.539062 C 413.878906 416.195312 369.867188 420.742188 367.699219 414.878906 " fill-opacity="1" fill-rule="nonzero"/><path fill="#7a232b" d="M 369.835938 423.5625 C 349.503906 405.546875 364.394531 376.050781 388.671875 373.722656 C 360.96875 395.179688 403.875 398.859375 370.136719 426.328125 C 369.574219 425.484375 369.472656 424.515625 369.835938 423.5625 " fill-opacity="1" fill-rule="nonzero"/><path fill="#f8a49e" d="M 385.382812 442.636719 C 379.832031 441.96875 374.964844 439.109375 369.574219 440.300781 L 366.847656 451.367188 C 366.265625 453.746094 368.15625 456.007812 370.59375 455.859375 L 381.519531 455.171875 L 385.382812 442.636719 " fill-opacity="1" fill-rule="nonzero"/><path fill="#f68082" d="M 386.328125 439.4375 L 384.910156 444.359375 C 379.332031 443.175781 373.984375 442.90625 368.585938 444.097656 L 373.765625 424.109375 C 376.019531 430.53125 380.457031 437.09375 386.328125 439.4375 " fill-opacity="1" fill-rule="nonzero"/><path fill="#ffffff" d="M 384.628906 421.148438 C 384.582031 421.242188 384.605469 421.183594 384.628906 421.121094 L 384.628906 421.148438 " fill-opacity="1" fill-rule="nonzero"/><path fill="#f8a49e" d="M 407.890625 401.878906 C 398.1875 403.445312 384.34375 403.058594 378.972656 403.539062 C 373.96875 403.988281 369.101562 420.683594 368.679688 421.730469 C 368.679688 421.730469 367.496094 424.058594 371.945312 429.8125 C 376.863281 436.183594 382.109375 439.558594 385.796875 441.878906 C 386.976562 442.621094 388.546875 443.074219 389.921875 443.3125 C 395.765625 444.308594 405.519531 438.6875 410.066406 429.390625 C 415.058594 419.164062 416.839844 409.082031 418.359375 402.125 C 418.621094 400.917969 414.496094 400.804688 407.890625 401.878906 " fill-opacity="1" fill-rule="nonzero"/><path fill="#f8a49e" d="M 372.847656 416.035156 C 375.707031 421.578125 371.480469 426.089844 367.996094 425.046875 C 364.511719 424 362.214844 418.246094 362.875 412.195312 C 363.53125 406.136719 367.917969 402.054688 372.871094 403.1875 C 376.414062 403.988281 370.1875 410.898438 372.847656 416.035156 " fill-opacity="1" fill-rule="nonzero"/><path fill="#f68082" d="M 371.210938 423.515625 C 371.179688 423.515625 371.148438 423.511719 371.117188 423.5 C 370.953125 423.449219 370.863281 423.277344 370.914062 423.117188 C 371.136719 422.394531 371.351562 421.625 371.375 420.875 C 371.398438 420.113281 371.210938 419.445312 370.871094 419.089844 C 370.546875 418.761719 370.050781 418.636719 369.339844 418.71875 C 369.125 418.746094 368.914062 418.753906 368.703125 418.765625 C 368.273438 418.78125 367.867188 418.800781 367.476562 418.953125 C 367.347656 419.007812 367.195312 418.960938 367.113281 418.847656 C 367.082031 418.804688 363.972656 414.378906 366.777344 409.105469 C 366.859375 408.957031 367.046875 408.902344 367.195312 408.980469 C 367.347656 409.058594 367.402344 409.246094 367.324219 409.398438 C 365.011719 413.734375 366.964844 417.4375 367.492188 418.296875 C 367.894531 418.179688 368.289062 418.164062 368.675781 418.148438 C 368.871094 418.136719 369.070312 418.128906 369.269531 418.109375 C 370.183594 418.003906 370.851562 418.183594 371.3125 418.664062 C 371.773438 419.144531 372.019531 419.957031 371.992188 420.898438 C 371.964844 421.71875 371.742188 422.539062 371.503906 423.296875 C 371.460938 423.429688 371.339844 423.515625 371.210938 423.515625 " fill-opacity="1" fill-rule="nonzero"/><path fill="#963537" d="M 390.722656 407.175781 C 391.222656 406.417969 391.910156 405.777344 392.730469 405.355469 C 393.539062 404.914062 394.441406 404.644531 395.363281 404.570312 C 396.273438 404.484375 397.199219 404.5625 398.070312 404.796875 C 398.941406 405.050781 399.773438 405.421875 400.457031 406.054688 C 398.652344 406.097656 397.082031 406.0625 395.523438 406.222656 C 394.746094 406.289062 393.980469 406.410156 393.195312 406.578125 C 392.382812 406.703125 391.625 406.972656 390.722656 407.175781 " fill-opacity="1" fill-rule="nonzero"/><path fill="#963537" d="M 406.792969 411.992188 C 407.535156 411.671875 408.378906 411.5625 409.179688 411.699219 C 409.988281 411.816406 410.78125 412.121094 411.457031 412.585938 C 412.140625 413.039062 412.722656 413.621094 413.171875 414.289062 C 413.601562 414.964844 413.9375 415.707031 413.996094 416.535156 C 412.699219 415.578125 411.667969 414.710938 410.539062 413.976562 C 409.980469 413.597656 409.410156 413.269531 408.800781 412.957031 C 408.195312 412.601562 407.535156 412.375 406.792969 411.992188 " fill-opacity="1" fill-rule="nonzero"/><path fill="#f68082" d="M 401.164062 423.847656 C 401.089844 423.847656 401.019531 423.839844 400.953125 423.832031 C 400.511719 423.792969 400.199219 423.78125 399.882812 423.769531 C 399.554688 423.753906 399.222656 423.742188 398.738281 423.699219 C 398.398438 423.667969 398.144531 423.367188 398.175781 423.023438 C 398.207031 422.683594 398.511719 422.425781 398.851562 422.460938 C 399.304688 422.5 399.621094 422.515625 399.933594 422.527344 C 400.179688 422.535156 400.421875 422.546875 400.726562 422.566406 C 400.726562 422.550781 400.722656 422.53125 400.722656 422.511719 C 400.703125 421.886719 400.660156 420.71875 400.835938 418.855469 C 400.867188 418.511719 401.171875 418.261719 401.511719 418.292969 C 401.851562 418.324219 402.105469 418.628906 402.074219 418.96875 C 401.90625 420.757812 401.941406 421.828125 401.964844 422.46875 C 401.988281 423.074219 402.007812 423.699219 401.378906 423.824219 C 401.308594 423.839844 401.234375 423.847656 401.164062 423.847656 " fill-opacity="1" fill-rule="nonzero"/><path fill="#2e3135" d="M 406.839844 417.558594 L 406.375 416.894531 C 406.480469 416.816406 409 415.070312 411.597656 415.777344 L 411.382812 416.5625 C 409.164062 415.953125 406.863281 417.539062 406.839844 417.558594 " fill-opacity="1" fill-rule="nonzero"/><path fill="#2e3135" d="M 410.773438 415.636719 L 412.460938 415.933594 L 411.027344 417.621094 C 411.027344 417.621094 409.5 416.128906 410.773438 415.636719 " fill-opacity="1" fill-rule="nonzero"/><path fill="#2e3135" d="M 389.578125 412.5625 L 389.113281 411.898438 C 389.21875 411.824219 391.742188 410.074219 394.339844 410.785156 L 394.125 411.566406 C 391.902344 410.957031 389.601562 412.546875 389.578125 412.5625 " fill-opacity="1" fill-rule="nonzero"/><path fill="#2e3135" d="M 393.894531 410.667969 L 395.582031 410.964844 L 394.148438 412.652344 C 394.140625 412.652344 392.613281 411.160156 393.894531 410.667969 " fill-opacity="1" fill-rule="nonzero"/><path fill="#f8a49e" d="M 432.253906 420.371094 C 431.636719 417.578125 427.308594 405.84375 426.542969 403.167969 C 425.570312 399.835938 419.558594 409.261719 416.445312 411.460938 L 419.328125 424.335938 C 424.566406 425.492188 427.585938 423.148438 432.253906 420.371094 " fill-opacity="1" fill-rule="nonzero"/><path fill="#f8a49e" d="M 417.320312 420.726562 L 421.101562 451.519531 C 422.390625 451.800781 422.695312 452.035156 423.996094 452.273438 C 427.824219 452.964844 431.695312 453.386719 435.542969 453.242188 C 437.542969 453.164062 439.53125 452.863281 441.476562 452.40625 C 438.089844 432.519531 429.554688 416.589844 429.554688 416.589844 C 429.554688 416.589844 423.351562 421.90625 417.320312 420.726562 " fill-opacity="1" fill-rule="nonzero"/><path fill="#f25949" d="M 433.449219 419.976562 L 433.214844 419.824219 C 432.699219 419.484375 432.601562 419.292969 432.421875 418.734375 L 431.722656 416.457031 C 431.503906 415.757812 430.726562 415.292969 429.949219 415.417969 L 417.152344 416.652344 C 416.628906 416.71875 416.292969 417.167969 416.394531 417.636719 L 416.890625 419.984375 C 416.992188 420.457031 416.917969 420.9375 416.6875 421.351562 C 416.6875 421.351562 415.996094 421.984375 415.777344 422.238281 C 415.375 422.707031 415.195312 423.339844 415.269531 423.957031 L 421.707031 473.820312 C 422.558594 479.828125 428.84375 490.515625 438.464844 489.117188 C 448.773438 487.613281 450.003906 470.210938 449.269531 466 C 445.75 445.714844 438.488281 428.253906 436.234375 422.910156 C 435.890625 422.125 434.210938 420.472656 433.449219 419.976562 " fill-opacity="1" fill-rule="nonzero"/><path fill="#d94331" d="M 417.175781 421.582031 C 416.996094 421.582031 416.839844 421.445312 416.820312 421.261719 C 416.800781 421.0625 416.945312 420.886719 417.140625 420.867188 L 432.597656 419.253906 C 432.777344 419.242188 432.96875 419.378906 432.992188 419.574219 C 433.007812 419.773438 432.867188 419.949219 432.671875 419.96875 L 417.214844 421.582031 C 417.203125 421.582031 417.191406 421.582031 417.175781 421.582031 " fill-opacity="1" fill-rule="nonzero"/><path fill="#f8a49e" d="M 345.859375 400.941406 C 348.1875 399.28125 359.253906 393.449219 361.617188 391.988281 C 364.570312 390.160156 362.730469 401.195312 363.574219 404.914062 L 352.808594 412.550781 C 348.144531 409.894531 347.46875 406.128906 345.859375 400.941406 " fill-opacity="1" fill-rule="nonzero"/><path fill="#f25949" d="M 356.726562 411.199219 L 333.316406 431.550781 C 332.167969 430.894531 331.777344 430.867188 330.65625 430.167969 C 327.351562 428.117188 324.1875 425.839844 321.429688 423.15625 C 319.992188 421.765625 318.71875 420.203125 317.582031 418.566406 C 333.398438 406.054688 350.40625 399.9375 350.40625 399.9375 C 350.40625 399.9375 351.445312 408.035156 356.726562 411.199219 " fill-opacity="1" fill-rule="nonzero"/><path fill="#f25949" d="M 345.234375 399.84375 L 345.511719 399.886719 C 346.128906 399.980469 346.324219 399.894531 346.828125 399.617188 L 348.878906 398.394531 C 349.511719 398.015625 350.398438 398.199219 350.894531 398.808594 L 359.585938 408.289062 C 359.921875 408.695312 359.878906 409.242188 359.484375 409.539062 L 357.542969 410.949219 C 357.15625 411.234375 356.882812 411.640625 356.773438 412.105469 C 356.773438 412.105469 356.867188 413.039062 356.859375 413.378906 C 356.84375 414 356.546875 414.59375 356.082031 414.996094 L 317.945312 447.734375 C 313.289062 451.632812 301.46875 455.367188 295.257812 447.882812 C 288.601562 439.867188 299.332031 426.117188 302.699219 423.476562 C 318.886719 410.761719 335.972656 402.644531 341.21875 400.183594 C 341.988281 399.8125 344.339844 399.699219 345.234375 399.84375 " fill-opacity="1" fill-rule="nonzero"/><path fill="#dd4533" d="M 356.496094 412.023438 C 356.398438 412.023438 356.300781 411.984375 356.230469 411.90625 L 345.828125 400.363281 C 345.695312 400.214844 345.707031 399.988281 345.855469 399.855469 C 346.003906 399.726562 346.230469 399.734375 346.363281 399.882812 L 356.761719 411.425781 C 356.894531 411.570312 356.882812 411.796875 356.738281 411.929688 C 356.667969 411.992188 356.582031 412.023438 356.496094 412.023438 " fill-opacity="1" fill-rule="nonzero"/><path fill="#f8a49e" d="M 428.464844 409.183594 C 427.925781 402.773438 425.683594 396.976562 423.183594 394.140625 C 420.832031 391.46875 417.152344 387.925781 412.984375 386.203125 C 412.03125 385.804688 411.027344 386.160156 410.765625 387.179688 C 410.5625 387.964844 410.167969 388.929688 411.753906 390.335938 L 414.117188 391.484375 L 408.894531 388.816406 C 408.246094 388.386719 407.023438 388.574219 406.707031 389.300781 C 405.925781 391.121094 405.941406 392.75 408.421875 393.777344 C 414.707031 396.386719 417.371094 400.242188 417.371094 400.242188 C 417.371094 400.242188 411.855469 396.328125 408.589844 396.015625 C 408.066406 395.964844 407.183594 396.226562 407.003906 396.730469 C 406.597656 397.871094 406.699219 398.867188 407.6875 399.53125 C 407.6875 399.53125 413.273438 401.09375 415.710938 404.039062 L 410.183594 403.226562 C 409.390625 402.898438 408.496094 403.597656 408.429688 404.46875 C 408.363281 405.304688 408.714844 406.324219 409.527344 406.484375 C 414.097656 407.386719 415.675781 409.253906 415.675781 409.253906 L 415.585938 411.613281 C 415.625 413.058594 418.847656 415.925781 420.15625 415.453125 L 428.464844 409.183594 " fill-opacity="1" fill-rule="nonzero"/><path fill="#f68082" d="M 419.832031 415.878906 C 419.183594 415.878906 418.449219 415.480469 417.902344 415.113281 C 416.625 414.238281 415.246094 412.722656 415.214844 411.625 L 415.300781 409.394531 C 414.90625 409.015625 413.226562 407.59375 409.457031 406.847656 C 408.4375 406.648438 407.976562 405.457031 408.058594 404.4375 C 408.105469 403.867188 408.441406 403.320312 408.9375 403.015625 C 409.363281 402.757812 409.847656 402.703125 410.28125 402.867188 L 414.691406 403.511719 C 412.113281 401.175781 407.636719 399.902344 407.589844 399.890625 C 407.550781 399.878906 407.511719 399.863281 407.480469 399.839844 C 406.753906 399.347656 406.019531 398.390625 406.65625 396.605469 C 406.90625 395.890625 407.988281 395.582031 408.625 395.644531 C 410.53125 395.828125 413.121094 397.15625 415.027344 398.289062 C 413.597656 397.015625 411.382812 395.410156 408.277344 394.121094 C 407.125 393.644531 406.40625 393.015625 406.074219 392.207031 C 405.738281 391.371094 405.832031 390.402344 406.367188 389.152344 C 406.539062 388.757812 406.902344 388.460938 407.398438 388.3125 C 407.984375 388.132812 408.652344 388.210938 409.097656 388.507812 L 410.382812 389.164062 C 410.054688 388.386719 410.230469 387.753906 410.367188 387.238281 L 410.40625 387.089844 C 410.546875 386.539062 410.886719 386.105469 411.359375 385.871094 C 411.875 385.613281 412.523438 385.609375 413.128906 385.859375 C 417.363281 387.609375 421.085938 391.195312 423.464844 393.898438 C 426.207031 397.011719 428.320312 403.003906 428.835938 409.152344 C 428.851562 409.359375 428.699219 409.535156 428.496094 409.554688 C 428.296875 409.570312 428.113281 409.421875 428.09375 409.214844 C 427.597656 403.304688 425.511719 397.34375 422.90625 394.386719 C 420.582031 391.746094 416.949219 388.238281 412.84375 386.546875 C 412.4375 386.375 412.015625 386.371094 411.6875 386.535156 C 411.410156 386.675781 411.214844 386.929688 411.125 387.273438 L 411.082031 387.433594 C 410.898438 388.117188 410.707031 388.824219 411.828125 389.898438 L 414.285156 391.152344 C 414.464844 391.246094 414.539062 391.46875 414.449219 391.648438 C 414.355469 391.832031 414.136719 391.90625 413.953125 391.816406 L 411.589844 390.667969 C 411.5625 390.65625 411.535156 390.636719 411.507812 390.613281 C 411.46875 390.578125 411.429688 390.542969 411.394531 390.507812 L 408.726562 389.148438 C 408.421875 388.953125 407.988281 388.910156 407.609375 389.023438 C 407.335938 389.105469 407.128906 389.257812 407.050781 389.445312 C 406.59375 390.5 406.503906 391.289062 406.765625 391.925781 C 407.015625 392.542969 407.601562 393.039062 408.5625 393.4375 C 414.878906 396.054688 417.566406 399.871094 417.675781 400.03125 C 417.78125 400.179688 417.761719 400.378906 417.632812 400.503906 C 417.503906 400.632812 417.304688 400.648438 417.15625 400.542969 C 417.101562 400.503906 411.683594 396.683594 408.554688 396.382812 C 408.144531 396.34375 407.453125 396.574219 407.355469 396.855469 C 406.96875 397.933594 407.128906 398.679688 407.847656 399.191406 C 408.5 399.382812 413.621094 400.933594 415.996094 403.800781 C 416.09375 403.917969 416.109375 404.085938 416.035156 404.21875 C 415.960938 404.355469 415.808594 404.429688 415.65625 404.40625 L 410.128906 403.59375 C 410.101562 403.589844 410.070312 403.582031 410.042969 403.570312 C 409.738281 403.445312 409.464844 403.566406 409.328125 403.648438 C 409.027344 403.832031 408.828125 404.15625 408.800781 404.496094 C 408.742188 405.191406 409.035156 406.007812 409.597656 406.121094 C 414.246094 407.039062 415.894531 408.933594 415.960938 409.011719 C 416.019531 409.082031 416.050781 409.175781 416.046875 409.265625 L 415.957031 411.628906 C 415.976562 412.300781 417.082031 413.652344 418.320312 414.496094 C 419.1875 415.085938 419.773438 415.195312 420.03125 415.105469 C 420.226562 415.035156 420.433594 415.132812 420.503906 415.328125 C 420.574219 415.519531 420.476562 415.730469 420.28125 415.800781 C 420.140625 415.855469 419.988281 415.878906 419.832031 415.878906 " fill-opacity="1" fill-rule="nonzero"/><path fill="#f8a49e" d="M 419.917969 395.945312 C 419.917969 395.945312 416.882812 392.605469 411.046875 390.066406 L 419.917969 395.945312 " fill-opacity="1" fill-rule="nonzero"/><path fill="#f68082" d="M 419.917969 396.316406 C 419.820312 396.316406 419.71875 396.277344 419.644531 396.195312 C 419.613281 396.164062 416.585938 392.878906 410.894531 390.40625 C 410.707031 390.324219 410.621094 390.105469 410.703125 389.917969 C 410.785156 389.730469 411.003906 389.644531 411.191406 389.726562 C 417.039062 392.269531 420.070312 395.558594 420.195312 395.699219 C 420.332031 395.847656 420.320312 396.082031 420.167969 396.222656 C 420.097656 396.285156 420.007812 396.316406 419.917969 396.316406 " fill-opacity="1" fill-rule="nonzero"/><path fill="#ffffff" d="M 394.980469 428.050781 C 395.066406 426.546875 393.945312 424.378906 391.550781 423.695312 L 391.480469 423.671875 C 390.113281 423.273438 387.796875 424.445312 387.398438 425.855469 L 394.980469 428.050781 " fill-opacity="1" fill-rule="nonzero"/><path fill="#f8a49e" d="M 354.792969 398.214844 C 355.332031 391.804688 357.578125 386.007812 360.074219 383.171875 C 362.429688 380.5 366.105469 376.957031 370.273438 375.234375 C 371.226562 374.835938 372.230469 375.191406 372.492188 376.214844 C 372.695312 376.996094 373.089844 377.960938 371.503906 379.367188 L 369.144531 380.515625 L 374.363281 377.851562 C 375.015625 377.421875 376.238281 377.605469 376.550781 378.328125 C 377.335938 380.152344 377.316406 381.78125 374.835938 382.8125 C 368.550781 385.417969 365.886719 389.273438 365.886719 389.273438 C 365.886719 389.273438 371.402344 385.359375 374.667969 385.046875 C 375.191406 384.996094 376.078125 385.257812 376.253906 385.761719 C 376.660156 386.902344 376.558594 387.898438 375.570312 388.5625 C 375.570312 388.5625 369.988281 390.125 367.546875 393.070312 L 373.074219 392.261719 C 373.867188 391.929688 374.761719 392.632812 374.828125 393.5 C 374.898438 394.335938 374.542969 395.355469 373.730469 395.515625 C 369.160156 396.417969 367.582031 398.285156 367.582031 398.285156 L 367.675781 400.644531 C 367.632812 402.089844 364.410156 404.957031 363.101562 404.484375 L 354.792969 398.214844 " fill-opacity="1" fill-rule="nonzero"/><path fill="#f68082" d="M 363.425781 404.910156 C 363.269531 404.910156 363.121094 404.886719 362.976562 404.835938 C 362.785156 404.765625 362.683594 404.550781 362.753906 404.359375 C 362.824219 404.167969 363.035156 404.066406 363.230469 404.136719 C 363.484375 404.226562 364.070312 404.117188 364.9375 403.527344 C 366.179688 402.683594 367.285156 401.332031 367.304688 400.636719 L 367.210938 398.296875 C 367.207031 398.207031 367.238281 398.117188 367.296875 398.042969 C 367.367188 397.964844 369.011719 396.070312 373.660156 395.152344 C 374.226562 395.042969 374.515625 394.222656 374.457031 393.53125 C 374.433594 393.1875 374.230469 392.867188 373.933594 392.679688 C 373.792969 392.597656 373.519531 392.476562 373.214844 392.601562 C 373.1875 392.613281 373.15625 392.621094 373.128906 392.625 L 367.601562 393.4375 C 367.449219 393.460938 367.300781 393.386719 367.222656 393.253906 C 367.148438 393.117188 367.164062 392.953125 367.261719 392.832031 C 369.636719 389.964844 374.757812 388.414062 375.410156 388.222656 C 376.132812 387.710938 376.289062 386.96875 375.90625 385.886719 C 375.804688 385.605469 375.128906 385.378906 374.703125 385.414062 C 371.574219 385.714844 366.15625 389.539062 366.101562 389.574219 C 365.953125 389.679688 365.753906 389.664062 365.625 389.539062 C 365.496094 389.410156 365.480469 389.210938 365.582031 389.0625 C 365.691406 388.902344 368.382812 385.085938 374.695312 382.46875 C 375.65625 382.070312 376.246094 381.574219 376.496094 380.957031 C 376.753906 380.320312 376.664062 379.53125 376.207031 378.476562 C 376.128906 378.289062 375.925781 378.136719 375.648438 378.054688 C 375.269531 377.941406 374.835938 377.984375 374.570312 378.160156 L 371.871094 379.539062 C 371.832031 379.574219 371.792969 379.609375 371.75 379.644531 C 371.726562 379.667969 371.699219 379.6875 371.667969 379.703125 L 369.304688 380.851562 C 369.121094 380.9375 368.902344 380.863281 368.8125 380.679688 C 368.71875 380.5 368.792969 380.277344 368.972656 380.183594 L 371.433594 378.929688 C 372.550781 377.855469 372.359375 377.148438 372.175781 376.464844 L 372.132812 376.304688 C 372.046875 375.960938 371.847656 375.707031 371.570312 375.566406 C 371.242188 375.402344 370.824219 375.410156 370.417969 375.578125 C 366.308594 377.273438 362.675781 380.777344 360.351562 383.417969 C 357.746094 386.375 355.660156 392.335938 355.164062 398.246094 C 355.144531 398.453125 354.964844 398.605469 354.761719 398.585938 C 354.558594 398.570312 354.40625 398.390625 354.421875 398.183594 C 354.941406 392.035156 357.050781 386.042969 359.796875 382.925781 C 362.171875 380.226562 365.894531 376.640625 370.132812 374.890625 C 370.738281 374.636719 371.382812 374.644531 371.898438 374.902344 C 372.375 375.136719 372.710938 375.570312 372.851562 376.121094 L 372.890625 376.269531 C 373.03125 376.785156 373.203125 377.417969 372.878906 378.191406 L 374.195312 377.519531 C 374.605469 377.246094 375.273438 377.167969 375.863281 377.34375 C 376.355469 377.492188 376.722656 377.789062 376.890625 378.183594 C 377.429688 379.433594 377.523438 380.402344 377.183594 381.238281 C 376.855469 382.046875 376.132812 382.675781 374.980469 383.152344 C 371.875 384.441406 369.660156 386.050781 368.230469 387.324219 C 370.136719 386.191406 372.726562 384.859375 374.632812 384.675781 C 375.28125 384.613281 376.351562 384.921875 376.605469 385.640625 C 377.238281 387.421875 376.503906 388.382812 375.777344 388.875 C 375.746094 388.894531 375.710938 388.910156 375.671875 388.921875 C 375.621094 388.9375 371.144531 390.210938 368.566406 392.546875 L 372.976562 391.898438 C 373.410156 391.734375 373.898438 391.792969 374.320312 392.046875 C 374.816406 392.355469 375.152344 392.898438 375.199219 393.472656 C 375.28125 394.488281 374.820312 395.679688 373.804688 395.882812 C 370.035156 396.625 368.355469 398.042969 367.960938 398.425781 L 368.046875 400.632812 C 368.015625 401.753906 366.636719 403.269531 365.355469 404.144531 C 364.808594 404.515625 364.074219 404.910156 363.425781 404.910156 " fill-opacity="1" fill-rule="nonzero"/><path fill="#f8a49e" d="M 363.339844 384.976562 C 363.339844 384.976562 366.375 381.636719 372.214844 379.097656 L 363.339844 384.976562 " fill-opacity="1" fill-rule="nonzero"/><path fill="#f68082" d="M 363.339844 385.351562 C 363.25 385.351562 363.160156 385.316406 363.089844 385.253906 C 362.9375 385.117188 362.925781 384.878906 363.0625 384.730469 C 363.191406 384.589844 366.222656 381.300781 372.066406 378.757812 C 372.253906 378.675781 372.472656 378.761719 372.554688 378.949219 C 372.636719 379.136719 372.550781 379.359375 372.363281 379.4375 C 366.675781 381.914062 363.640625 385.195312 363.613281 385.226562 C 363.539062 385.308594 363.4375 385.351562 363.339844 385.351562 " fill-opacity="1" fill-rule="nonzero"/><path fill="#d94331" d="M 354.695312 524.542969 L 369.375 527.363281 L 381.796875 518.738281 L 384.6875 503.710938 L 376.351562 491.085938 L 361.675781 488.265625 L 349.242188 496.894531 L 346.351562 511.921875 Z M 369.605469 528.453125 L 354.078125 525.46875 L 345.265625 512.136719 L 348.3125 496.289062 L 361.445312 487.179688 L 376.96875 490.164062 L 385.773438 503.492188 L 382.726562 519.34375 L 369.605469 528.453125 " fill-opacity="1" fill-rule="nonzero"/><path fill="#d94331" d="M 376.390625 465.15625 L 376.230469 465.082031 C 376.117188 465.03125 365 459.761719 363.542969 448.714844 L 364.382812 448.605469 C 365.679688 458.457031 375.046875 463.539062 376.417969 464.234375 C 377.664062 463.667969 385.484375 459.683594 385.433594 449.304688 L 386.277344 449.300781 C 386.308594 455.46875 383.671875 459.429688 381.453125 461.671875 C 379.046875 464.097656 376.660156 465.050781 376.558594 465.089844 L 376.390625 465.15625 " fill-opacity="1" fill-rule="nonzero"/><path fill="#d94331" d="M 375.308594 467.617188 L 377.433594 467.617188 L 376.371094 465.886719 Z M 378.683594 468.3125 L 374.0625 468.3125 L 376.371094 464.558594 L 378.683594 468.3125 " fill-opacity="1" fill-rule="nonzero"/><g clip-path="url(#89c13c8ea5)"><path fill="#f7cbb8" d="M 552.363281 534 C 551.683594 528.21875 546.773438 523.730469 540.808594 523.730469 L 254.554688 523.730469 C 248.589844 523.730469 243.679688 528.21875 243 534 L 552.363281 534 " fill-opacity="1" fill-rule="nonzero"/></g><path fill="#8a9a9f" d="M 366.558594 520.15625 L 445.046875 513.90625 L 444.804688 523.808594 L 369.082031 523.808594 C 367.6875 523.808594 366.558594 522.171875 366.558594 520.15625 " fill-opacity="1" fill-rule="nonzero"/><path fill="#abbbc0" d="M 534 437.078125 L 426.453125 437.078125 C 423.128906 437.078125 420.605469 439.226562 420.085938 442.496094 L 407.863281 519.648438 C 407.527344 521.761719 409.0625 523.683594 411.085938 523.683594 L 521.039062 523.683594 C 522.933594 523.683594 524.546875 522.234375 524.859375 520.257812 L 537.414062 441.054688 C 537.714844 439.148438 535.941406 437.078125 534 437.078125 " fill-opacity="1" fill-rule="nonzero"/><path fill="#8a9a9f" d="M 410.816406 518.378906 L 410.1875 517.917969 L 426.347656 495.933594 L 514.019531 495.933594 L 522.46875 518.011719 L 521.742188 518.289062 L 513.484375 496.710938 L 426.738281 496.710938 L 410.816406 518.378906 " fill-opacity="1" fill-rule="nonzero"/><path fill="#8a9a9f" d="M 426.15625 496.332031 L 424.789062 442.164062 L 425.566406 442.144531 L 426.929688 496.3125 L 426.15625 496.332031 " fill-opacity="1" fill-rule="nonzero"/><path fill="#8a9a9f" d="M 514.117188 496.453125 L 513.386719 496.191406 L 533 442.023438 L 533.734375 442.285156 L 514.117188 496.453125 " fill-opacity="1" fill-rule="nonzero"/><path fill="#8a9a9f" d="M 524.507812 518.554688 L 407.863281 518.554688 C 407.644531 518.554688 407.472656 518.382812 407.472656 518.167969 C 407.472656 517.953125 407.644531 517.777344 407.863281 517.777344 L 524.507812 517.777344 C 524.722656 517.777344 524.894531 517.953125 524.894531 518.167969 C 524.894531 518.382812 524.722656 518.554688 524.507812 518.554688 " fill-opacity="1" fill-rule="nonzero"/><path fill="#8a9a9f" d="M 502.976562 520.253906 C 502.519531 520.253906 502.144531 520.628906 502.144531 521.085938 C 502.144531 521.546875 502.519531 521.917969 502.976562 521.917969 L 514.769531 521.917969 C 515.226562 521.917969 515.601562 521.546875 515.601562 521.085938 C 515.601562 520.628906 515.226562 520.253906 514.769531 520.253906 Z M 514.769531 522.699219 L 502.976562 522.699219 C 502.089844 522.699219 501.367188 521.976562 501.367188 521.085938 C 501.367188 520.199219 502.089844 519.476562 502.976562 519.476562 L 514.769531 519.476562 C 515.65625 519.476562 516.378906 520.199219 516.378906 521.085938 C 516.378906 521.976562 515.65625 522.699219 514.769531 522.699219 " fill-opacity="1" fill-rule="nonzero"/><path fill="#f25949" d="M 317.261719 339.699219 C 316.019531 339.699219 315.011719 340.703125 315.011719 341.949219 L 315.011719 355.339844 C 315.011719 356.394531 315.867188 357.246094 316.921875 357.246094 L 321.476562 357.246094 L 321.476562 339.699219 L 317.261719 339.699219 " fill-opacity="1" fill-rule="nonzero"/><path fill="#f7cbb8" d="M 315.011719 336.539062 C 313.027344 336.539062 311.410156 338.152344 311.410156 340.136719 L 311.410156 357.136719 C 311.410156 359.121094 313.027344 360.738281 315.011719 360.738281 L 355.953125 360.738281 C 357.941406 360.738281 359.554688 359.121094 359.554688 357.136719 L 359.554688 355.757812 C 359.554688 355.5625 359.710938 355.40625 359.90625 355.40625 L 361.339844 355.40625 C 362.277344 355.40625 363.039062 354.644531 363.039062 353.710938 L 363.039062 343.050781 C 363.039062 342.117188 362.277344 341.355469 361.339844 341.355469 L 359.90625 341.355469 C 359.710938 341.355469 359.554688 341.199219 359.554688 341.003906 L 359.554688 340.136719 C 359.554688 338.152344 357.941406 336.539062 355.953125 336.539062 Z M 355.953125 361.4375 L 315.011719 361.4375 C 312.640625 361.4375 310.707031 359.507812 310.707031 357.136719 L 310.707031 340.136719 C 310.707031 337.765625 312.640625 335.835938 315.011719 335.835938 L 355.953125 335.835938 C 358.328125 335.835938 360.257812 337.765625 360.257812 340.136719 L 360.257812 340.652344 L 361.339844 340.652344 C 362.664062 340.652344 363.742188 341.730469 363.742188 343.050781 L 363.742188 353.710938 C 363.742188 355.03125 362.664062 356.105469 361.339844 356.105469 L 360.257812 356.105469 L 360.257812 357.136719 C 360.257812 359.507812 358.328125 361.4375 355.953125 361.4375 " fill-opacity="1" fill-rule="nonzero"/><path fill="#f7cbb8" d="M 480.390625 367.824219 C 480.121094 367.824219 479.875 367.644531 479.804688 367.375 L 467.261719 320.726562 C 467.195312 320.488281 467.28125 320.238281 467.476562 320.085938 C 467.671875 319.9375 467.9375 319.921875 468.152344 320.042969 L 470.457031 321.371094 C 470.75 321.539062 470.847656 321.910156 470.683594 322.203125 C 470.511719 322.492188 470.140625 322.59375 469.847656 322.425781 L 468.820312 321.832031 L 480.980469 367.058594 C 481.066406 367.382812 480.875 367.71875 480.546875 367.804688 C 480.496094 367.816406 480.445312 367.824219 480.390625 367.824219 " fill-opacity="1" fill-rule="nonzero"/><path fill="#f7cbb8" d="M 466.519531 323.484375 C 466.417969 323.484375 466.3125 323.457031 466.214844 323.402344 C 465.925781 323.234375 465.824219 322.863281 465.992188 322.570312 L 467.320312 320.265625 C 467.488281 319.972656 467.859375 319.875 468.152344 320.042969 C 468.445312 320.210938 468.542969 320.582031 468.375 320.875 L 467.050781 323.179688 C 466.9375 323.375 466.730469 323.484375 466.519531 323.484375 " fill-opacity="1" fill-rule="nonzero"/><path fill="#f7cbb8" d="M 480.390625 367.824219 C 480.121094 367.824219 479.875 367.644531 479.804688 367.375 C 479.714844 367.050781 479.910156 366.714844 480.234375 366.628906 L 557.144531 345.941406 C 557.382812 345.878906 557.636719 345.964844 557.789062 346.160156 C 557.9375 346.355469 557.957031 346.621094 557.832031 346.835938 L 556.503906 349.140625 C 556.335938 349.429688 555.964844 349.53125 555.671875 349.363281 C 555.382812 349.195312 555.28125 348.824219 555.449219 348.53125 L 556.042969 347.5 L 480.546875 367.804688 C 480.496094 367.816406 480.445312 367.824219 480.390625 367.824219 " fill-opacity="1" fill-rule="nonzero"/><path fill="#f7cbb8" d="M 557.304688 347.140625 C 557.203125 347.140625 557.097656 347.113281 557 347.058594 L 554.695312 345.730469 C 554.40625 345.5625 554.304688 345.1875 554.472656 344.898438 C 554.640625 344.605469 555.011719 344.503906 555.304688 344.675781 L 557.609375 346.003906 C 557.902344 346.171875 558 346.542969 557.832031 346.835938 C 557.71875 347.03125 557.515625 347.140625 557.304688 347.140625 " fill-opacity="1" fill-rule="nonzero"/><path fill="#f25949" d="M 485.078125 358.640625 C 485.078125 358.640625 485.078125 358.640625 485.074219 358.640625 C 484.738281 358.640625 484.46875 358.363281 484.46875 358.027344 C 484.476562 356.992188 484.746094 332.625 494.640625 326.945312 C 497.871094 325.09375 501.746094 325.441406 506.152344 327.980469 C 508.617188 329.402344 510.929688 330.773438 513.097656 332.0625 C 523.15625 338.046875 530.429688 342.367188 536.039062 340.902344 C 539.050781 340.113281 541.621094 337.722656 544.125 333.371094 C 544.292969 333.082031 544.664062 332.980469 544.957031 333.148438 C 545.25 333.316406 545.347656 333.6875 545.179688 333.980469 C 542.5 338.628906 539.695312 341.203125 536.351562 342.078125 C 530.230469 343.675781 523.171875 339.472656 512.476562 333.109375 C 510.308594 331.824219 508.003906 330.453125 505.542969 329.035156 C 501.539062 326.730469 498.078125 326.382812 495.246094 328.003906 C 485.953125 333.332031 485.6875 357.789062 485.6875 358.035156 C 485.683594 358.371094 485.414062 358.640625 485.078125 358.640625 " fill-opacity="1" fill-rule="nonzero"/><path fill="#875c95" d="M 463.078125 316.757812 C 462.808594 316.828125 462.5625 316.816406 462.351562 316.71875 C 462.132812 316.621094 461.984375 316.460938 461.894531 316.246094 C 461.804688 316.023438 461.816406 315.769531 461.925781 315.492188 L 463.632812 311.273438 L 460.195312 308.585938 C 459.953125 308.390625 459.808594 308.175781 459.78125 307.945312 C 459.746094 307.71875 459.796875 307.507812 459.929688 307.308594 C 460.0625 307.113281 460.261719 306.984375 460.535156 306.910156 C 460.941406 306.800781 461.371094 306.921875 461.816406 307.292969 L 464.425781 309.417969 L 465.605469 306.273438 C 465.714844 305.992188 465.839844 305.773438 465.984375 305.617188 C 466.125 305.464844 466.308594 305.355469 466.539062 305.296875 C 466.800781 305.222656 467.039062 305.234375 467.253906 305.332031 C 467.46875 305.429688 467.625 305.589844 467.710938 305.808594 C 467.796875 306.023438 467.78125 306.285156 467.667969 306.574219 L 466.03125 310.625 L 469.613281 313.421875 C 469.859375 313.609375 469.996094 313.820312 470.039062 314.054688 C 470.074219 314.285156 470.023438 314.496094 469.886719 314.691406 C 469.746094 314.882812 469.539062 315.019531 469.257812 315.09375 C 469.042969 315.152344 468.835938 315.144531 468.640625 315.082031 C 468.441406 315.019531 468.21875 314.890625 467.972656 314.695312 L 465.242188 312.503906 L 463.992188 315.765625 C 463.890625 316.050781 463.765625 316.28125 463.617188 316.433594 C 463.476562 316.585938 463.296875 316.699219 463.078125 316.757812 " fill-opacity="1" fill-rule="nonzero"/><g clip-path="url(#b312dd5239)"><path fill="#875c95" d="M 565.441406 347.921875 C 565.109375 348.011719 564.832031 347.984375 564.609375 347.851562 C 564.386719 347.714844 564.230469 347.476562 564.136719 347.140625 L 563.277344 343.929688 L 559.597656 340.863281 C 559.429688 340.714844 559.320312 340.53125 559.28125 340.3125 C 559.242188 340.09375 559.277344 339.886719 559.394531 339.6875 C 559.507812 339.488281 559.707031 339.351562 559.996094 339.273438 C 560.40625 339.164062 560.8125 339.285156 561.226562 339.640625 L 563.835938 341.851562 L 564.984375 338.628906 C 565.085938 338.355469 565.203125 338.144531 565.335938 337.996094 C 565.472656 337.855469 565.644531 337.753906 565.863281 337.695312 C 566.140625 337.621094 566.375 337.632812 566.570312 337.738281 C 566.757812 337.835938 566.894531 337.996094 566.957031 338.203125 C 567.03125 338.414062 567.019531 338.652344 566.921875 338.921875 L 565.300781 343.398438 L 566.160156 346.597656 C 566.351562 347.300781 566.109375 347.742188 565.441406 347.921875 " fill-opacity="1" fill-rule="nonzero"/></g><path fill="#875c95" d="M 463.859375 406.277344 L 462.105469 410.488281 L 465.679688 410.488281 L 463.894531 406.277344 Z M 459.367188 414.96875 C 458.921875 414.96875 458.605469 414.820312 458.417969 414.523438 C 458.226562 414.230469 458.230469 413.867188 458.433594 413.433594 L 462.484375 404.550781 C 462.652344 404.195312 462.851562 403.933594 463.085938 403.769531 C 463.316406 403.605469 463.585938 403.523438 463.894531 403.523438 C 464.199219 403.523438 464.46875 403.605469 464.699219 403.769531 C 464.933594 403.933594 465.125 404.195312 465.285156 404.550781 L 469.371094 413.433594 C 469.570312 413.875 469.578125 414.242188 469.394531 414.53125 C 469.207031 414.820312 468.910156 414.96875 468.5 414.96875 C 468.140625 414.96875 467.863281 414.882812 467.667969 414.714844 C 467.472656 414.546875 467.300781 414.28125 467.152344 413.921875 L 466.488281 412.402344 L 461.28125 412.402344 L 460.632812 413.921875 C 460.472656 414.292969 460.304688 414.558594 460.125 414.722656 C 459.945312 414.886719 459.691406 414.96875 459.367188 414.96875 " fill-opacity="1" fill-rule="nonzero"/><path fill="#f7cbb8" d="M 479.007812 414.332031 C 478.4375 414.332031 478.152344 414.042969 478.152344 413.464844 L 478.152344 411.105469 L 475.84375 411.105469 C 475.285156 411.105469 475.003906 410.832031 475.003906 410.28125 C 475.003906 409.734375 475.285156 409.457031 475.84375 409.457031 L 478.152344 409.457031 L 478.152344 407.195312 C 478.152344 406.617188 478.4375 406.324219 479.007812 406.324219 C 479.578125 406.324219 479.863281 406.617188 479.863281 407.195312 L 479.863281 409.457031 L 482.171875 409.457031 C 482.734375 409.457031 483.011719 409.734375 483.011719 410.28125 C 483.011719 410.832031 482.734375 411.105469 482.171875 411.105469 L 479.863281 411.105469 L 479.863281 413.464844 C 479.863281 414.042969 479.578125 414.332031 479.007812 414.332031 " fill-opacity="1" fill-rule="nonzero"/><path fill="#875c95" d="M 491.636719 413.003906 L 494.25 413.003906 C 494.882812 413.003906 495.347656 412.882812 495.640625 412.640625 C 495.9375 412.398438 496.085938 412.027344 496.085938 411.53125 C 496.085938 411.046875 495.9375 410.683594 495.640625 410.441406 C 495.347656 410.199219 494.882812 410.074219 494.25 410.074219 L 491.636719 410.074219 Z M 491.636719 408.257812 L 493.980469 408.257812 C 495.183594 408.257812 495.785156 407.792969 495.785156 406.863281 C 495.785156 405.945312 495.183594 405.484375 493.980469 405.484375 L 491.636719 405.484375 Z M 490.578125 414.824219 C 489.722656 414.824219 489.296875 414.398438 489.296875 413.542969 L 489.296875 404.949219 C 489.296875 404.09375 489.722656 403.664062 490.578125 403.664062 L 494.40625 403.664062 C 495.601562 403.664062 496.519531 403.925781 497.171875 404.441406 C 497.820312 404.957031 498.144531 405.664062 498.144531 406.5625 C 498.144531 407.152344 497.996094 407.664062 497.699219 408.089844 C 497.402344 408.515625 496.992188 408.835938 496.464844 409.046875 C 497.097656 409.226562 497.585938 409.542969 497.929688 409.996094 C 498.269531 410.453125 498.445312 411.011719 498.445312 411.675781 C 498.445312 412.667969 498.097656 413.441406 497.40625 413.992188 C 496.714844 414.546875 495.773438 414.824219 494.582031 414.824219 L 490.578125 414.824219 " fill-opacity="1" fill-rule="nonzero"/><path fill="#f7cbb8" d="M 505.441406 411.515625 C 505.175781 411.515625 504.949219 411.425781 504.765625 411.246094 C 504.582031 411.070312 504.492188 410.847656 504.492188 410.582031 C 504.492188 410.308594 504.582031 410.082031 504.765625 409.902344 C 504.949219 409.722656 505.175781 409.632812 505.441406 409.632812 L 508.699219 409.632812 C 508.964844 409.632812 509.1875 409.722656 509.375 409.902344 C 509.558594 410.082031 509.648438 410.308594 509.648438 410.582031 C 509.648438 410.847656 509.558594 411.070312 509.375 411.246094 C 509.1875 411.425781 508.964844 411.515625 508.699219 411.515625 L 505.441406 411.515625 " fill-opacity="1" fill-rule="nonzero"/><path fill="#f25949" d="M 521.503906 415 C 520.300781 415 519.273438 414.761719 518.417969 414.285156 C 517.5625 413.8125 516.90625 413.144531 516.449219 412.285156 C 515.988281 411.425781 515.757812 410.410156 515.757812 409.238281 C 515.757812 408.078125 515.988281 407.066406 516.449219 406.207031 C 516.90625 405.347656 517.5625 404.679688 518.417969 404.203125 C 519.273438 403.730469 520.300781 403.492188 521.503906 403.492188 C 522.03125 403.492188 522.566406 403.558594 523.109375 403.695312 C 523.65625 403.835938 524.125 404.019531 524.527344 404.25 C 524.855469 404.441406 525.054688 404.679688 525.128906 404.964844 C 525.203125 405.25 525.179688 405.519531 525.054688 405.773438 C 524.933594 406.023438 524.75 406.203125 524.496094 406.308594 C 524.242188 406.414062 523.957031 406.378906 523.640625 406.199219 C 523.324219 406.007812 522.992188 405.871094 522.644531 405.789062 C 522.292969 405.703125 521.941406 405.660156 521.582031 405.660156 C 520.515625 405.660156 519.710938 405.96875 519.167969 406.585938 C 518.625 407.203125 518.355469 408.085938 518.355469 409.238281 C 518.355469 410.386719 518.625 411.273438 519.167969 411.894531 C 519.710938 412.519531 520.515625 412.832031 521.582031 412.832031 C 521.921875 412.832031 522.265625 412.789062 522.621094 412.703125 C 522.972656 412.621094 523.3125 412.488281 523.640625 412.308594 C 523.976562 412.128906 524.273438 412.089844 524.527344 412.191406 C 524.78125 412.289062 524.96875 412.457031 525.089844 412.695312 C 525.210938 412.933594 525.238281 413.191406 525.175781 413.472656 C 525.113281 413.75 524.933594 413.980469 524.636719 414.160156 C 524.234375 414.425781 523.753906 414.628906 523.191406 414.777344 C 522.625 414.925781 522.0625 415 521.503906 415 " fill-opacity="1" fill-rule="nonzero"/><path fill="#875c95" d="M 417.742188 357.695312 C 417.460938 357.84375 417.191406 357.890625 416.929688 357.839844 C 416.667969 357.785156 416.464844 357.648438 416.3125 357.433594 C 416.164062 357.214844 416.109375 356.9375 416.160156 356.601562 L 416.972656 351.546875 L 412.535156 349.457031 C 412.214844 349.300781 412.007812 349.101562 411.917969 348.859375 C 411.824219 348.617188 411.824219 348.371094 411.921875 348.125 C 412.015625 347.878906 412.203125 347.679688 412.484375 347.53125 C 412.902344 347.308594 413.40625 347.339844 413.984375 347.628906 L 417.382812 349.304688 L 417.886719 345.5625 C 417.9375 345.226562 418.023438 344.953125 418.140625 344.75 C 418.257812 344.542969 418.433594 344.378906 418.664062 344.253906 C 418.9375 344.113281 419.203125 344.066406 419.464844 344.121094 C 419.722656 344.171875 419.929688 344.308594 420.082031 344.527344 C 420.234375 344.746094 420.28125 345.027344 420.226562 345.378906 L 419.449219 350.234375 L 424.074219 352.40625 C 424.390625 352.550781 424.597656 352.746094 424.699219 352.988281 C 424.796875 353.234375 424.796875 353.480469 424.695312 353.726562 C 424.589844 353.972656 424.394531 354.171875 424.109375 354.324219 C 423.882812 354.441406 423.652344 354.492188 423.421875 354.472656 C 423.191406 354.449219 422.914062 354.363281 422.597656 354.210938 L 419.050781 352.488281 L 418.496094 356.382812 C 418.453125 356.726562 418.371094 357.003906 418.253906 357.207031 C 418.136719 357.414062 417.964844 357.578125 417.742188 357.695312 " fill-opacity="1" fill-rule="nonzero"/><path fill="#f7cbb8" d="M 429.941406 348.636719 C 429.449219 348.898438 429.070312 348.785156 428.816406 348.300781 C 428.5625 347.824219 428.683594 347.457031 429.179688 347.195312 L 434.773438 344.230469 C 435.269531 343.96875 435.640625 344.078125 435.894531 344.550781 C 436.148438 345.035156 436.027344 345.410156 435.535156 345.671875 Z M 428.46875 345.851562 C 427.972656 346.113281 427.597656 346.003906 427.339844 345.519531 C 427.085938 345.03125 427.203125 344.660156 427.695312 344.398438 L 433.292969 341.433594 C 433.785156 341.171875 434.164062 341.28125 434.417969 341.769531 C 434.675781 342.253906 434.554688 342.628906 434.0625 342.886719 L 428.46875 345.851562 " fill-opacity="1" fill-rule="nonzero"/><path fill="#f25949" d="M 445.082031 343.140625 C 444.710938 343.335938 444.355469 343.382812 444.019531 343.273438 C 443.679688 343.167969 443.417969 342.9375 443.230469 342.582031 C 443.046875 342.238281 443.007812 341.894531 443.109375 341.5625 C 443.214844 341.226562 443.453125 340.960938 443.824219 340.761719 C 444.195312 340.5625 444.546875 340.519531 444.871094 340.628906 C 445.199219 340.734375 445.453125 340.960938 445.636719 341.308594 C 445.824219 341.660156 445.871094 342.003906 445.78125 342.34375 C 445.6875 342.675781 445.457031 342.941406 445.082031 343.140625 Z M 443.460938 340.003906 C 443.253906 340.113281 443.058594 340.132812 442.871094 340.058594 C 442.683594 339.984375 442.523438 339.832031 442.402344 339.597656 C 442.191406 339.199219 442.066406 338.785156 442.035156 338.359375 C 442 337.9375 442.0625 337.433594 442.21875 336.847656 C 442.328125 336.429688 442.382812 336.09375 442.382812 335.839844 C 442.378906 335.585938 442.320312 335.351562 442.207031 335.136719 C 442.066406 334.875 441.863281 334.71875 441.59375 334.671875 C 441.324219 334.625 441.011719 334.695312 440.65625 334.882812 C 440.320312 335.058594 440.035156 335.265625 439.792969 335.5 C 439.550781 335.734375 439.339844 336.003906 439.152344 336.304688 C 438.929688 336.625 438.691406 336.804688 438.433594 336.839844 C 438.175781 336.871094 437.949219 336.804688 437.746094 336.636719 C 437.542969 336.46875 437.421875 336.242188 437.382812 335.953125 C 437.339844 335.664062 437.425781 335.355469 437.636719 335.03125 C 437.90625 334.613281 438.238281 334.222656 438.640625 333.863281 C 439.039062 333.5 439.445312 333.210938 439.855469 332.996094 C 440.472656 332.667969 441.0625 332.484375 441.636719 332.4375 C 442.210938 332.390625 442.71875 332.476562 443.164062 332.699219 C 443.613281 332.925781 443.960938 333.273438 444.210938 333.75 C 444.4375 334.179688 444.554688 334.625 444.554688 335.089844 C 444.554688 335.554688 444.421875 336.117188 444.148438 336.773438 C 443.902344 337.371094 443.769531 337.839844 443.746094 338.179688 C 443.722656 338.519531 443.765625 338.847656 443.871094 339.160156 C 443.921875 339.324219 443.917969 339.480469 443.859375 339.625 C 443.796875 339.769531 443.664062 339.898438 443.460938 340.003906 " fill-opacity="1" fill-rule="nonzero"/><path fill="#f25949" d="M 395.183594 312.617188 C 395.027344 312.523438 394.960938 312.328125 395.035156 312.160156 C 395.121094 311.964844 395.21875 311.769531 395.328125 311.578125 C 396.480469 309.601562 398.765625 308.519531 401.023438 308.878906 C 401.214844 308.910156 401.355469 309.097656 401.324219 309.292969 C 401.289062 309.488281 401.105469 309.625 400.910156 309.589844 C 398.945312 309.277344 396.953125 310.222656 395.953125 311.941406 C 395.855469 312.105469 395.769531 312.273438 395.695312 312.445312 C 395.617188 312.628906 395.40625 312.714844 395.222656 312.632812 C 395.207031 312.628906 395.195312 312.621094 395.183594 312.617188 " fill-opacity="1" fill-rule="nonzero"/><path fill="#f25949" d="M 379.304688 303.363281 C 379.292969 303.355469 379.28125 303.351562 379.269531 303.339844 C 379.109375 303.21875 379.078125 302.996094 379.199219 302.835938 C 379.3125 302.6875 379.417969 302.527344 379.511719 302.363281 C 380.507812 300.652344 380.375 298.53125 379.167969 296.960938 C 379.042969 296.804688 379.074219 296.578125 379.230469 296.457031 C 379.390625 296.335938 379.613281 296.363281 379.738281 296.523438 C 381.125 298.324219 381.28125 300.761719 380.136719 302.726562 C 380.023438 302.914062 379.902344 303.097656 379.773438 303.269531 C 379.664062 303.417969 379.460938 303.453125 379.304688 303.363281 " fill-opacity="1" fill-rule="nonzero"/><path fill="#f25949" d="M 402.449219 281.84375 C 401.734375 281.425781 401.136719 280.875 400.671875 280.199219 C 400.558594 280.035156 400.601562 279.8125 400.765625 279.699219 C 400.929688 279.585938 401.152344 279.628906 401.265625 279.789062 C 402.066406 280.949219 403.367188 281.71875 404.773438 281.859375 C 404.96875 281.875 405.117188 282.050781 405.097656 282.25 C 405.078125 282.449219 404.902344 282.59375 404.703125 282.574219 C 403.90625 282.496094 403.148438 282.25 402.449219 281.84375 " fill-opacity="1" fill-rule="nonzero"/><g clip-path="url(#88718172ba)"><path fill="#f7cbb8" d="M 375.773438 300.183594 L 399.65625 314.097656 L 404.71875 277.949219 Z M 399.808594 315.4375 L 374.53125 300.714844 C 374.375 300.621094 374.277344 300.460938 374.265625 300.277344 C 374.253906 300.097656 374.332031 299.925781 374.476562 299.816406 L 405.109375 276.289062 C 405.457031 276.019531 406.035156 276.355469 405.972656 276.792969 L 400.613281 315.046875 C 400.589844 315.222656 400.476562 315.378906 400.316406 315.457031 C 400.15625 315.535156 399.964844 315.53125 399.808594 315.4375 " fill-opacity="1" fill-rule="nonzero"/></g></svg>