<svg xmlns="http://www.w3.org/2000/svg" xmlns:xlink="http://www.w3.org/1999/xlink" width="1080" zoomAndPan="magnify" viewBox="0 0 810 809.999993" height="1080" preserveAspectRatio="xMidYMid meet" version="1.0"><defs><clipPath id="fa970bda99"><path d="M 243 297.066406 L 567 297.066406 L 567 512.925781 L 243 512.925781 Z M 243 297.066406 " clip-rule="nonzero"/></clipPath></defs><rect x="-81" width="972" fill="#ffffff" y="-80.999999" height="971.999992" fill-opacity="1"/><rect x="-81" width="972" fill="#fffaf5" y="-80.999999" height="971.999992" fill-opacity="1"/><g clip-path="url(#fa970bda99)"><path fill="#000000" d="M 243.644531 404.566406 C 243.644531 400.621094 246.871094 397.390625 250.816406 397.390625 L 541.867188 397.390625 L 453.695312 309.160156 C 450.898438 306.363281 450.898438 301.804688 453.695312 299.007812 C 455.128906 297.644531 456.957031 296.925781 458.785156 296.925781 C 460.613281 296.925781 462.441406 297.644531 463.839844 299.042969 L 564.242188 399.507812 C 564.5625 399.832031 564.886719 400.226562 565.136719 400.621094 C 565.246094 400.800781 565.316406 400.980469 565.425781 401.160156 C 565.53125 401.375 565.675781 401.589844 565.78125 401.839844 C 565.890625 402.09375 565.925781 402.308594 566 402.558594 C 566.070312 402.773438 566.140625 402.953125 566.175781 403.167969 C 566.355469 404.101562 566.355469 405.035156 566.175781 405.96875 C 566.140625 406.183594 566.070312 406.363281 566 406.578125 C 565.925781 406.828125 565.855469 407.078125 565.78125 407.296875 C 565.675781 407.546875 565.53125 407.761719 565.425781 407.976562 C 565.316406 408.15625 565.246094 408.335938 565.136719 408.515625 C 564.886719 408.910156 564.5625 409.269531 564.242188 409.628906 L 463.839844 510.09375 C 461.042969 512.890625 456.492188 512.890625 453.695312 510.09375 C 450.898438 507.292969 450.898438 502.738281 453.695312 499.9375 L 541.867188 411.742188 L 250.816406 411.742188 C 246.871094 411.742188 243.644531 408.515625 243.644531 404.566406 Z M 243.644531 404.566406 " fill-opacity="1" fill-rule="nonzero"/></g></svg>