<svg xmlns="http://www.w3.org/2000/svg" xmlns:xlink="http://www.w3.org/1999/xlink" width="1080" zoomAndPan="magnify" viewBox="0 0 810 809.999993" height="1080" preserveAspectRatio="xMidYMid meet" version="1.0"><defs><clipPath id="842cecf6bf"><path d="M 247 246.308594 L 564 246.308594 L 564 563.558594 L 247 563.558594 Z M 247 246.308594 " clip-rule="nonzero"/></clipPath></defs><rect x="-81" width="972" fill="#ffffff" y="-80.999999" height="971.999992" fill-opacity="1"/><rect x="-81" width="972" fill="#fffaf5" y="-80.999999" height="971.999992" fill-opacity="1"/><g clip-path="url(#842cecf6bf)"><path fill="#000000" d="M 361.359375 246.410156 C 345.078125 246.410156 331.175781 256.460938 325.445312 270.6875 C 344.386719 275.25 359.09375 291.652344 360.695312 311.738281 C 360.871094 313.910156 359.632812 315.953125 357.628906 316.8125 C 341.484375 323.726562 333.667969 342.613281 340.207031 358.910156 C 341.253906 361.515625 339.988281 364.476562 337.382812 365.519531 C 336.761719 365.769531 336.117188 365.886719 335.492188 365.886719 C 333.472656 365.886719 331.566406 364.679688 330.769531 362.695312 C 327.816406 355.335938 327.101562 347.578125 328.292969 340.191406 C 313.179688 342.332031 301.132812 354.953125 300.316406 370.765625 C 300.171875 373.476562 297.925781 375.585938 295.238281 375.585938 C 295.152344 375.585938 295.0625 375.582031 294.972656 375.582031 C 292.167969 375.433594 290.011719 373.046875 290.160156 370.238281 C 291.316406 347.949219 309.441406 330.488281 331.363281 329.738281 C 335.085938 321.183594 341.542969 313.816406 350.125 309.164062 C 347.125 292.324219 332.207031 279.582031 314.765625 279.582031 C 306.53125 279.582031 298.601562 282.382812 292.34375 287.460938 C 281.59375 296.183594 278.878906 311.03125 282.089844 318.484375 C 269.03125 327.523438 260.46875 342.597656 260.46875 359.679688 C 260.46875 364.886719 261.265625 369.910156 262.746094 374.632812 L 262.738281 374.636719 L 262.792969 374.707031 C 247.46875 385.882812 243.175781 408.242188 253.53125 422.8125 C 258.992188 430.496094 268.921875 437.734375 278.40625 439.214844 C 286.070312 440.414062 293.734375 439.144531 300.488281 435.628906 C 299.875 434.101562 299.367188 432.515625 298.972656 430.886719 C 296.785156 421.859375 298.242188 412.519531 303.078125 404.589844 C 304.539062 402.191406 307.667969 401.433594 310.066406 402.894531 C 312.464844 404.355469 313.222656 407.484375 311.761719 409.878906 C 308.339844 415.492188 307.304688 422.101562 308.855469 428.492188 C 310.40625 434.878906 314.347656 440.28125 319.964844 443.707031 C 327.917969 448.550781 337.789062 448.523438 345.722656 443.640625 C 348.113281 442.167969 351.246094 442.914062 352.71875 445.300781 C 354.191406 447.6875 353.449219 450.820312 351.054688 452.292969 C 345.425781 455.757812 339.105469 457.492188 332.785156 457.492188 C 326.523438 457.492188 320.261719 455.792969 314.671875 452.382812 C 311.140625 450.234375 308.082031 447.523438 305.574219 444.386719 C 298.925781 447.941406 291.585938 449.828125 284.058594 449.828125 C 281.660156 449.828125 279.246094 449.640625 276.832031 449.261719 C 271.574219 448.4375 266.59375 446.75 262.042969 444.296875 C 261.023438 448.28125 260.46875 452.449219 260.46875 456.753906 C 260.46875 473.9375 269.132812 489.09375 282.324219 498.113281 C 283.59375 523.304688 303.488281 543.570312 328.515625 545.472656 C 335.363281 556.394531 347.507812 563.664062 361.355469 563.664062 C 379.457031 563.664062 394.113281 551.4375 398.90625 534.816406 C 399.59375 532.433594 400.097656 529.570312 400.097656 526.894531 C 400.097656 526.894531 400.082031 284.042969 400.058594 283.589844 C 399.246094 262.921875 382.238281 246.410156 361.359375 246.410156 Z M 370.320312 513.9375 C 363.957031 520.703125 355.265625 524.363281 346.300781 524.363281 C 343.203125 524.363281 340.074219 523.925781 337 523.027344 C 328.527344 520.5625 321.527344 514.945312 317.28125 507.214844 C 313.035156 499.484375 312.058594 490.5625 314.527344 482.097656 C 315.3125 479.398438 318.136719 477.859375 320.832031 478.636719 C 323.53125 479.421875 325.078125 482.246094 324.292969 484.9375 C 320.769531 497.035156 327.746094 509.742188 339.84375 513.265625 C 348.148438 515.6875 356.988281 513.273438 362.910156 506.96875 C 364.835938 504.921875 368.050781 504.824219 370.097656 506.746094 C 372.140625 508.671875 372.242188 511.890625 370.320312 513.9375 Z M 527.273438 449.824219 C 519.746094 449.824219 512.40625 447.941406 505.757812 444.386719 C 503.25 447.523438 500.191406 450.234375 496.660156 452.382812 C 491.070312 455.792969 484.808594 457.492188 478.546875 457.492188 C 472.226562 457.492188 465.90625 455.757812 460.277344 452.292969 C 457.886719 450.820312 457.144531 447.6875 458.613281 445.300781 C 460.089844 442.910156 463.21875 442.164062 465.609375 443.640625 C 473.542969 448.523438 483.414062 448.550781 491.367188 443.707031 C 496.980469 440.28125 500.929688 434.878906 502.476562 428.492188 C 504.027344 422.105469 502.996094 415.496094 499.574219 409.878906 C 498.109375 407.484375 498.867188 404.355469 501.265625 402.894531 C 503.664062 401.429688 506.792969 402.191406 508.253906 404.589844 C 513.089844 412.519531 514.546875 421.859375 512.359375 430.886719 C 511.964844 432.515625 511.457031 434.097656 510.847656 435.625 C 517.597656 439.144531 525.261719 440.414062 532.925781 439.21875 C 542.410156 437.734375 550.773438 432.667969 556.398438 424.898438 C 566.800781 410.539062 565.453125 387.472656 548.542969 374.71875 L 548.59375 374.644531 L 548.578125 374.632812 C 550.054688 369.910156 550.863281 364.894531 550.863281 359.683594 C 550.863281 342.605469 542.300781 327.53125 529.242188 318.492188 C 531.628906 311.039062 529.242188 295.273438 518.699219 287.171875 C 512.433594 282.359375 504.714844 279.585938 496.636719 279.585938 C 479.195312 279.585938 464.28125 292.328125 461.277344 309.167969 C 469.859375 313.820312 476.316406 321.1875 480.039062 329.742188 C 501.960938 330.496094 520.089844 347.953125 521.242188 370.242188 C 521.390625 373.046875 519.234375 375.4375 516.429688 375.582031 C 516.339844 375.585938 516.25 375.589844 516.160156 375.589844 C 513.472656 375.589844 511.230469 373.484375 511.085938 370.769531 C 510.265625 354.957031 498.242188 342.320312 483.109375 340.1875 C 484.296875 347.574219 483.585938 355.335938 480.632812 362.699219 C 479.835938 364.683594 477.925781 365.890625 475.910156 365.890625 C 475.28125 365.890625 474.640625 365.773438 474.019531 365.523438 C 471.414062 364.480469 470.148438 361.519531 471.191406 358.914062 C 477.734375 342.617188 469.917969 323.730469 453.773438 316.816406 C 451.765625 315.957031 450.535156 313.914062 450.707031 311.742188 C 452.332031 291.40625 467.382812 274.855469 486.664062 270.535156 C 480.898438 256.394531 467.039062 246.410156 450.816406 246.410156 C 431.652344 246.410156 416.433594 260.179688 412.5 278.292969 C 412.0625 280.324219 411.8125 282.738281 411.8125 284.953125 L 411.8125 526.890625 C 411.8125 530.085938 412.539062 533.4375 413.484375 536.203125 C 418.902344 552.058594 433.046875 563.660156 450.660156 563.660156 C 464.53125 563.660156 476.695312 556.367188 483.539062 545.410156 C 508.226562 543.179688 527.753906 523.058594 529.011719 498.113281 C 542.203125 489.089844 550.867188 473.933594 550.867188 456.75 C 550.867188 452.449219 550.3125 448.277344 549.292969 444.292969 C 544.742188 446.746094 539.765625 448.433594 534.503906 449.257812 C 532.082031 449.636719 529.671875 449.824219 527.273438 449.824219 Z M 494.054688 507.21875 C 489.808594 514.949219 482.808594 520.566406 474.335938 523.035156 C 471.257812 523.929688 468.128906 524.367188 465.035156 524.367188 C 456.066406 524.367188 447.378906 520.707031 441.015625 513.941406 C 439.089844 511.894531 439.191406 508.675781 441.238281 506.757812 C 443.285156 504.828125 446.5 504.933594 448.425781 506.976562 C 454.351562 513.28125 463.1875 515.6875 471.492188 513.277344 C 477.351562 511.566406 482.199219 507.683594 485.136719 502.332031 C 488.074219 496.980469 488.75 490.808594 487.046875 484.949219 C 486.257812 482.253906 487.808594 479.429688 490.503906 478.648438 C 493.203125 477.859375 496.023438 479.410156 496.808594 482.105469 C 499.277344 490.566406 498.300781 499.484375 494.054688 507.21875 Z M 494.054688 507.21875 " fill-opacity="1" fill-rule="nonzero"/></g></svg>