<svg xmlns="http://www.w3.org/2000/svg" xmlns:xlink="http://www.w3.org/1999/xlink" width="1080" zoomAndPan="magnify" viewBox="0 0 810 809.999993" height="1080" preserveAspectRatio="xMidYMid meet" version="1.0"><defs><clipPath id="97804b18c6"><path d="M 250 231 L 548 231 L 548 528.847656 L 250 528.847656 Z M 250 231 " clip-rule="nonzero"/></clipPath><clipPath id="0fd30a0461"><path d="M 389 208.597656 L 571.710938 208.597656 L 571.710938 391 L 389 391 Z M 389 208.597656 " clip-rule="nonzero"/></clipPath></defs><rect x="-81" width="972" fill="#ffffff" y="-80.999999" height="971.999992" fill-opacity="1"/><rect x="-81" width="972" fill="#fffaf5" y="-80.999999" height="971.999992" fill-opacity="1"/><g clip-path="url(#97804b18c6)"><path fill="#000000" d="M 539.15625 450.203125 C 522.6875 444.832031 501.625 437.933594 480.945312 432.949219 C 476.730469 431.796875 467.15625 431.796875 462.945312 438.699219 L 449.921875 458.636719 C 448.773438 460.171875 447.242188 460.9375 445.710938 461.320312 C 441.878906 461.703125 437.667969 460.9375 434.605469 458.253906 C 426.179688 452.886719 393.625 422.976562 374.476562 404.574219 C 355.328125 384.636719 326.222656 352.425781 320.09375 343.992188 C 317.796875 340.925781 316.644531 336.707031 317.03125 332.871094 C 317.414062 330.957031 318.179688 329.421875 319.710938 328.65625 L 339.625 315.617188 C 344.222656 312.550781 346.519531 301.816406 345.371094 297.597656 C 341.539062 281.492188 336.5625 263.472656 328.519531 239.699219 C 326.605469 234.714844 318.945312 228.582031 306.6875 232.796875 C 290.222656 239.699219 274.902344 249.667969 261.878906 262.707031 C 258.050781 266.539062 254.605469 270.375 251.539062 274.589844 C 250.773438 275.359375 250.390625 276.507812 250.390625 277.277344 C 247.710938 325.203125 279.878906 389.621094 332.347656 441.765625 C 382.902344 494.679688 447.625 528.804688 496.261719 528.804688 C 498.179688 528.804688 499.710938 528.804688 501.625 528.804688 C 502.773438 528.804688 503.539062 528.421875 504.304688 527.652344 C 508.519531 524.203125 512.347656 520.753906 516.179688 517.300781 C 526.519531 506.949219 534.945312 495.0625 541.835938 482.410156 C 543.371094 478.957031 544.902344 475.890625 546.433594 472.441406 C 547.964844 467.074219 551.03125 454.035156 539.15625 450.203125 Z M 310.519531 241.234375 C 313.964844 240.082031 318.5625 240.851562 319.710938 243.152344 C 327.371094 266.539062 332.730469 284.175781 336.179688 299.898438 C 336.945312 302.582031 336.179688 306.417969 334.261719 307.949219 L 329.667969 311.015625 C 315.113281 291.460938 306.304688 268.457031 304.007812 244.300781 C 304.007812 244.300781 308.222656 242.382812 310.519531 241.234375 Z M 537.625 468.605469 C 536.859375 470.90625 535.710938 472.824219 534.945312 474.742188 C 490.136719 467.457031 472.902344 454.800781 467.921875 450.203125 L 471.371094 444.832031 C 473.285156 442.148438 476.730469 442.148438 479.414062 442.917969 C 498.945312 447.515625 520.007812 454.417969 536.09375 459.402344 C 538.773438 460.171875 538.773438 465.15625 537.625 468.605469 Z M 537.625 468.605469 " fill-opacity="1" fill-rule="nonzero"/></g><g clip-path="url(#0fd30a0461)"><path fill="#000000" d="M 394.007812 208.640625 C 391.328125 208.640625 389.414062 210.941406 389.414062 213.242188 C 389.414062 215.542969 391.710938 217.84375 394.007812 217.84375 C 487.070312 217.84375 562.136719 293.378906 562.136719 386.167969 C 562.136719 388.851562 564.433594 390.769531 566.730469 390.769531 C 569.03125 390.769531 571.328125 388.46875 571.328125 386.167969 C 571.710938 288.394531 492.050781 209.027344 394.007812 208.640625 Z M 394.007812 208.640625 " fill-opacity="1" fill-rule="nonzero"/></g><path fill="#000000" d="M 477.113281 303.730469 C 499.328125 325.585938 511.582031 355.496094 511.582031 386.9375 C 511.582031 389.621094 513.878906 391.539062 516.179688 391.539062 C 518.476562 391.539062 520.773438 389.238281 520.773438 386.9375 C 520.773438 316.769531 463.710938 259.636719 393.625 259.636719 C 390.945312 259.636719 389.03125 261.9375 389.03125 264.238281 C 389.03125 266.921875 390.945312 268.839844 393.242188 269.222656 C 393.242188 269.222656 393.625 269.222656 393.625 269.222656 C 425.03125 269.222656 454.902344 281.492188 477.113281 303.730469 Z M 477.113281 303.730469 " fill-opacity="1" fill-rule="nonzero"/><path fill="#000000" d="M 394.007812 322.902344 C 429.242188 322.902344 457.964844 351.660156 457.964844 386.9375 C 457.964844 389.621094 460.261719 391.539062 462.5625 391.539062 C 464.859375 391.539062 467.15625 389.238281 467.15625 386.9375 C 467.15625 346.292969 434.222656 313.316406 393.625 313.316406 C 390.945312 313.316406 389.03125 315.617188 389.03125 317.917969 C 389.03125 320.21875 391.328125 322.902344 394.007812 322.902344 Z M 394.007812 322.902344 " fill-opacity="1" fill-rule="nonzero"/></svg>