<svg xmlns="http://www.w3.org/2000/svg" xmlns:xlink="http://www.w3.org/1999/xlink" width="1080" zoomAndPan="magnify" viewBox="0 0 810 809.999993" height="1080" preserveAspectRatio="xMidYMid meet" version="1.0"><defs><clipPath id="7978c08608"><path d="M 305 253.015625 L 567 253.015625 L 567 501 L 305 501 Z M 305 253.015625 " clip-rule="nonzero"/></clipPath><clipPath id="c55974a082"><path d="M 243 274 L 526 274 L 526 556.765625 L 243 556.765625 Z M 243 274 " clip-rule="nonzero"/></clipPath></defs><rect x="-81" width="972" fill="#ffffff" y="-80.999999" height="971.999992" fill-opacity="1"/><rect x="-81" width="972" fill="#fffaf5" y="-80.999999" height="971.999992" fill-opacity="1"/><g clip-path="url(#7978c08608)"><path fill="#0c0015" d="M 305.355469 396.035156 C 305.703125 392.019531 307.378906 388.46875 309.847656 385.234375 C 318.527344 373.828125 337.992188 368.601562 351.609375 377.011719 C 359.628906 381.96875 366.0625 388.347656 371.417969 395.894531 C 375.863281 402.160156 379.878906 408.734375 384.203125 415.355469 C 387.226562 411.074219 390.269531 406.675781 393.394531 402.328125 C 420.21875 365.003906 449.667969 329.964844 483.832031 299.078125 C 504.785156 280.132812 528.832031 266.058594 554.707031 254.929688 C 559.179688 253 562.90625 253.753906 566.742188 257.625 C 564.988281 259.261719 563.238281 260.882812 561.503906 262.519531 C 538.910156 283.839844 516.804688 305.652344 496.734375 329.375 C 485.25 342.945312 474.601562 357.222656 463.644531 371.234375 C 441.585938 399.449219 425.074219 431.191406 406.324219 461.515625 C 399.085938 473.222656 391.917969 484.976562 384.667969 496.675781 C 381.789062 501.324219 377.996094 501.261719 375.105469 496.507812 C 365.730469 481.082031 358.332031 464.695312 351.347656 448.089844 C 345.511719 434.222656 338.957031 420.699219 330.636719 408.101562 C 326.515625 401.871094 321.664062 396.746094 313.691406 396.066406 C 310.996094 395.839844 308.257812 396.035156 305.355469 396.035156 Z M 305.355469 396.035156 " fill-opacity="1" fill-rule="nonzero"/></g><g clip-path="url(#c55974a082)"><path fill="#0c0015" d="M 508.242188 347.753906 L 486.265625 369.71875 C 492.617188 383.722656 496.136719 399.269531 496.136719 415.644531 C 496.136719 477.3125 446.121094 527.296875 384.410156 527.296875 C 322.699219 527.296875 272.683594 477.3125 272.683594 415.644531 C 272.683594 353.976562 322.699219 303.996094 384.410156 303.996094 C 399.839844 303.996094 414.523438 307.125 427.882812 312.769531 L 450.023438 290.644531 C 430.421875 280.34375 408.089844 274.519531 384.410156 274.519531 C 306.414062 274.519531 243.1875 337.703125 243.1875 415.644531 C 243.1875 493.585938 306.414062 556.765625 384.410156 556.765625 C 462.40625 556.765625 525.632812 493.582031 525.632812 415.640625 C 525.632812 391.039062 519.328125 367.894531 508.242188 347.753906 Z M 508.242188 347.753906 " fill-opacity="1" fill-rule="nonzero"/></g></svg>