<svg xmlns="http://www.w3.org/2000/svg" xmlns:xlink="http://www.w3.org/1999/xlink" width="1080" zoomAndPan="magnify" viewBox="0 0 810 809.999993" height="1080" preserveAspectRatio="xMidYMid meet" version="1.0"><rect x="-81" width="972" fill="#ffffff" y="-80.999999" height="971.999992" fill-opacity="1"/><rect x="-81" width="972" fill="#fffaf5" y="-80.999999" height="971.999992" fill-opacity="1"/><path fill="#000000" d="M 416.457031 405 L 564.277344 257.183594 C 564.640625 256.820312 564.964844 256.425781 565.25 255.996094 C 565.535156 255.570312 565.777344 255.121094 565.976562 254.644531 C 566.171875 254.167969 566.320312 253.679688 566.421875 253.175781 C 566.519531 252.671875 566.570312 252.164062 566.570312 251.648438 C 566.570312 251.136719 566.519531 250.628906 566.421875 250.125 C 566.320312 249.621094 566.171875 249.128906 565.976562 248.65625 C 565.777344 248.179688 565.535156 247.730469 565.25 247.300781 C 564.964844 246.875 564.640625 246.480469 564.277344 246.117188 C 563.914062 245.753906 563.519531 245.429688 563.09375 245.144531 C 562.664062 244.859375 562.214844 244.617188 561.738281 244.421875 C 561.265625 244.222656 560.777344 244.074219 560.273438 243.976562 C 559.769531 243.875 559.257812 243.824219 558.746094 243.824219 C 558.230469 243.824219 557.722656 243.875 557.21875 243.976562 C 556.714844 244.074219 556.226562 244.222656 555.75 244.421875 C 555.277344 244.617188 554.824219 244.859375 554.398438 245.144531 C 553.96875 245.429688 553.574219 245.753906 553.210938 246.117188 L 405.390625 393.933594 L 257.570312 246.117188 C 257.207031 245.753906 256.8125 245.429688 256.386719 245.144531 C 255.957031 244.859375 255.507812 244.617188 255.03125 244.421875 C 254.558594 244.222656 254.066406 244.074219 253.5625 243.976562 C 253.058594 243.875 252.550781 243.824219 252.039062 243.824219 C 251.523438 243.824219 251.015625 243.875 250.511719 243.976562 C 250.007812 244.074219 249.519531 244.222656 249.042969 244.421875 C 248.566406 244.617188 248.117188 244.859375 247.691406 245.144531 C 247.261719 245.429688 246.867188 245.753906 246.503906 246.117188 C 246.140625 246.480469 245.816406 246.875 245.53125 247.300781 C 245.246094 247.730469 245.003906 248.179688 244.808594 248.65625 C 244.609375 249.128906 244.460938 249.621094 244.363281 250.125 C 244.261719 250.628906 244.210938 251.136719 244.210938 251.648438 C 244.210938 252.164062 244.261719 252.671875 244.363281 253.175781 C 244.460938 253.679688 244.609375 254.167969 244.808594 254.644531 C 245.003906 255.121094 245.246094 255.570312 245.53125 255.996094 C 245.816406 256.425781 246.140625 256.820312 246.503906 257.183594 L 394.324219 405 L 246.503906 552.816406 C 246.140625 553.179688 245.816406 553.574219 245.53125 554.003906 C 245.246094 554.429688 245.003906 554.878906 244.804688 555.355469 C 244.609375 555.832031 244.460938 556.320312 244.359375 556.824219 C 244.261719 557.328125 244.210938 557.835938 244.210938 558.351562 C 244.210938 558.863281 244.257812 559.375 244.359375 559.878906 C 244.460938 560.382812 244.609375 560.871094 244.804688 561.347656 C 245 561.820312 245.242188 562.273438 245.527344 562.699219 C 245.8125 563.128906 246.136719 563.523438 246.5 563.886719 C 246.863281 564.25 247.261719 564.574219 247.6875 564.859375 C 248.113281 565.144531 248.566406 565.386719 249.042969 565.582031 C 249.515625 565.78125 250.003906 565.925781 250.507812 566.027344 C 251.015625 566.128906 251.523438 566.179688 252.035156 566.179688 C 252.550781 566.179688 253.058594 566.128906 253.5625 566.027344 C 254.066406 565.925781 254.558594 565.777344 255.03125 565.582031 C 255.507812 565.382812 255.957031 565.144531 256.386719 564.855469 C 256.8125 564.570312 257.207031 564.246094 257.570312 563.882812 L 405.390625 416.066406 L 553.210938 563.882812 C 553.574219 564.246094 553.96875 564.570312 554.398438 564.855469 C 554.824219 565.140625 555.277344 565.378906 555.75 565.578125 C 556.226562 565.773438 556.714844 565.921875 557.21875 566.019531 C 557.722656 566.121094 558.230469 566.171875 558.742188 566.171875 C 559.257812 566.171875 559.765625 566.121094 560.269531 566.019531 C 560.773438 565.917969 561.261719 565.769531 561.738281 565.574219 C 562.210938 565.378906 562.660156 565.136719 563.089844 564.851562 C 563.515625 564.566406 563.910156 564.242188 564.273438 563.878906 C 564.636719 563.515625 564.960938 563.121094 565.246094 562.695312 C 565.53125 562.265625 565.773438 561.816406 565.96875 561.339844 C 566.167969 560.867188 566.316406 560.378906 566.414062 559.875 C 566.515625 559.371094 566.566406 558.863281 566.566406 558.347656 C 566.566406 557.835938 566.515625 557.328125 566.417969 556.824219 C 566.316406 556.320312 566.167969 555.828125 565.972656 555.355469 C 565.777344 554.878906 565.535156 554.429688 565.25 554.003906 C 564.964844 553.574219 564.640625 553.179688 564.277344 552.816406 Z M 416.457031 405 " fill-opacity="1" fill-rule="nonzero"/></svg>