<svg xmlns="http://www.w3.org/2000/svg" xmlns:xlink="http://www.w3.org/1999/xlink" width="1080" zoomAndPan="magnify" viewBox="0 0 810 809.999993" height="1080" preserveAspectRatio="xMidYMid meet" version="1.0"><defs><clipPath id="dd64f81a91"><path d="M 243.1875 312.253906 L 566.796875 312.253906 L 566.796875 497.480469 L 243.1875 497.480469 Z M 243.1875 312.253906 " clip-rule="nonzero"/></clipPath></defs><rect x="-81" width="972" fill="#ffffff" y="-80.999999" height="971.999992" fill-opacity="1"/><rect x="-81" width="972" fill="#fffaf5" y="-80.999999" height="971.999992" fill-opacity="1"/><g clip-path="url(#dd64f81a91)"><path fill="#000000" d="M 482.972656 457.710938 C 470.675781 464.566406 457.75 469.808594 444.558594 473.289062 C 442.257812 473.894531 439.9375 474.445312 437.613281 474.949219 C 464.027344 462.632812 482.382812 435.851562 482.382812 404.867188 C 482.382812 373.882812 464.027344 347.101562 437.613281 334.789062 C 439.9375 335.289062 442.257812 335.839844 444.558594 336.449219 C 457.75 339.925781 470.675781 345.167969 482.972656 352.027344 C 505.582031 364.640625 525.804688 382.382812 543.207031 404.867188 C 525.804688 427.355469 505.582031 445.097656 482.972656 457.710938 Z M 327.011719 457.710938 C 304.402344 445.097656 284.183594 427.355469 266.777344 404.867188 C 284.183594 382.382812 304.402344 364.640625 327.011719 352.027344 C 339.308594 345.167969 352.234375 339.925781 365.421875 336.449219 C 367.730469 335.839844 370.046875 335.289062 372.371094 334.789062 C 345.953125 347.101562 327.601562 373.882812 327.601562 404.867188 C 327.601562 435.851562 345.953125 462.632812 372.371094 474.949219 C 370.046875 474.445312 367.730469 473.894531 365.421875 473.289062 C 352.234375 469.808594 339.308594 464.566406 327.011719 457.710938 Z M 346.660156 404.867188 C 346.660156 372.746094 372.828125 346.609375 404.992188 346.609375 C 437.15625 346.609375 463.324219 372.746094 463.324219 404.867188 C 463.324219 436.992188 437.15625 463.125 404.992188 463.125 C 372.828125 463.125 346.660156 436.992188 346.660156 404.867188 Z M 566.796875 404.867188 C 524.1875 343.125 464.59375 312.257812 404.992188 312.257812 C 345.394531 312.257812 285.796875 343.125 243.1875 404.867188 C 285.796875 466.609375 345.394531 497.480469 404.992188 497.480469 C 464.59375 497.480469 524.1875 466.609375 566.796875 404.867188 " fill-opacity="1" fill-rule="nonzero"/></g><path fill="#000000" d="M 416.871094 404.867188 C 410.308594 404.867188 404.992188 399.558594 404.992188 393.003906 C 404.992188 386.453125 410.308594 381.140625 416.871094 381.140625 C 423.429688 381.140625 428.746094 386.453125 428.746094 393.003906 C 428.746094 399.558594 423.429688 404.867188 416.871094 404.867188 Z M 404.992188 366.617188 C 383.839844 366.617188 366.691406 383.742188 366.691406 404.867188 C 366.691406 425.996094 383.839844 443.117188 404.992188 443.117188 C 426.144531 443.117188 443.289062 425.996094 443.289062 404.867188 C 443.289062 383.742188 426.144531 366.617188 404.992188 366.617188 " fill-opacity="1" fill-rule="nonzero"/></svg>