<svg xmlns="http://www.w3.org/2000/svg" xmlns:xlink="http://www.w3.org/1999/xlink" width="1080" zoomAndPan="magnify" viewBox="0 0 810 809.999993" height="1080" preserveAspectRatio="xMidYMid meet" version="1.0"><rect x="-81" width="972" fill="#ffffff" y="-80.999999" height="971.999992" fill-opacity="1"/><rect x="-81" width="972" fill="#fffaf5" y="-80.999999" height="971.999992" fill-opacity="1"/><path fill="#000000" d="M 563.722656 407.5625 C 560.875 403.75 492.097656 314.707031 404.730469 314.707031 C 396.5625 314.707031 388.234375 315.511719 380.015625 317.070312 C 374.210938 318.144531 370.34375 323.78125 371.472656 329.636719 C 372.546875 335.4375 378.1875 339.359375 384.042969 338.175781 C 390.976562 336.886719 397.90625 336.1875 404.785156 336.1875 C 468.726562 336.1875 524.230469 394.296875 541.316406 414.0625 C 534.601562 421.851562 521.972656 435.542969 505.261719 449.238281 C 500.695312 453 499.996094 459.765625 503.757812 464.332031 C 505.90625 466.910156 508.96875 468.25 512.085938 468.25 C 514.503906 468.25 516.921875 467.445312 518.910156 465.835938 C 546.207031 443.441406 563.078125 421.472656 563.777344 420.5625 C 566.675781 416.746094 566.675781 411.429688 563.722656 407.5625 Z M 563.722656 407.5625 " fill-opacity="1" fill-rule="nonzero"/><path fill="#000000" d="M 492.851562 469.324219 L 445.566406 422.066406 L 396.726562 373.246094 L 354.707031 331.25 L 298.613281 275.179688 C 294.421875 270.992188 287.597656 270.992188 283.40625 275.179688 C 279.214844 279.367188 279.214844 286.1875 283.40625 290.378906 L 329.023438 335.972656 C 280.183594 362.828125 247.191406 405.628906 245.6875 407.5625 C 242.785156 411.429688 242.785156 416.746094 245.6875 420.5625 C 248.589844 424.375 317.363281 513.417969 404.730469 513.417969 C 430.414062 513.417969 456.851562 505.628906 483.554688 490.378906 L 528.527344 535.328125 C 530.625 537.425781 533.363281 538.5 536.105469 538.5 C 538.84375 538.5 541.585938 537.425781 543.679688 535.328125 C 547.871094 531.140625 547.871094 524.320312 543.679688 520.132812 Z M 387.644531 394.511719 L 424.34375 431.195312 C 419.507812 436.78125 412.359375 440.164062 404.785156 440.164062 C 390.4375 440.164062 378.726562 428.457031 378.726562 414.117188 C 378.671875 406.4375 382.058594 399.347656 387.644531 394.511719 Z M 404.730469 491.9375 C 340.792969 491.9375 285.285156 433.828125 268.199219 414.0625 C 279.589844 400.851562 308.175781 370.453125 344.929688 351.816406 L 372.4375 379.316406 C 362.929688 388.121094 357.179688 400.691406 357.179688 414.0625 C 357.179688 440.269531 378.511719 461.59375 404.730469 461.59375 C 418.109375 461.59375 430.628906 455.84375 439.496094 446.339844 L 467.8125 474.640625 C 446.15625 486.136719 424.988281 491.9375 404.730469 491.9375 Z M 404.730469 491.9375 " fill-opacity="1" fill-rule="nonzero"/></svg>