<svg xmlns="http://www.w3.org/2000/svg" xmlns:xlink="http://www.w3.org/1999/xlink" width="1080" zoomAndPan="magnify" viewBox="0 0 810 809.999993" height="1080" preserveAspectRatio="xMidYMid meet" version="1.0"><defs><clipPath id="e4382c130c"><path d="M 243 296.460938 L 567 296.460938 L 567 325 L 243 325 Z M 243 296.460938 " clip-rule="nonzero"/></clipPath><clipPath id="aef2a927e2"><path d="M 243.042969 484.585938 L 566.957031 484.585938 L 566.957031 513.210938 L 243.042969 513.210938 Z M 243.042969 484.585938 " clip-rule="nonzero"/></clipPath></defs><rect x="-81" width="972" fill="#ffffff" y="-80.999999" height="971.999992" fill-opacity="1"/><rect x="-81" width="972" fill="#fffaf5" y="-80.999999" height="971.999992" fill-opacity="1"/><path fill="#000000" d="M 552.800781 418.976562 L 257.199219 418.976562 C 249.378906 418.976562 243.042969 412.648438 243.042969 404.839844 C 243.042969 397.03125 249.378906 390.703125 257.199219 390.703125 L 552.800781 390.703125 C 560.625 390.703125 566.957031 397.03125 566.957031 404.839844 C 566.957031 412.648438 560.625 418.976562 552.800781 418.976562 " fill-opacity="1" fill-rule="nonzero"/><g clip-path="url(#e4382c130c)"><path fill="#000000" d="M 552.800781 324.734375 L 257.199219 324.734375 C 249.378906 324.734375 243.042969 318.40625 243.042969 310.597656 C 243.042969 302.789062 249.378906 296.460938 257.199219 296.460938 L 552.800781 296.460938 C 560.625 296.460938 566.957031 302.789062 566.957031 310.597656 C 566.957031 318.40625 560.625 324.734375 552.800781 324.734375 " fill-opacity="1" fill-rule="nonzero"/></g><g clip-path="url(#aef2a927e2)"><path fill="#000000" d="M 552.800781 513.222656 L 257.199219 513.222656 C 249.378906 513.222656 243.042969 506.894531 243.042969 499.085938 C 243.042969 491.277344 249.378906 484.949219 257.199219 484.949219 L 552.800781 484.949219 C 560.625 484.949219 566.957031 491.277344 566.957031 499.085938 C 566.957031 506.894531 560.625 513.222656 552.800781 513.222656 " fill-opacity="1" fill-rule="nonzero"/></g></svg>