<svg xmlns="http://www.w3.org/2000/svg" xmlns:xlink="http://www.w3.org/1999/xlink" width="1080" zoomAndPan="magnify" viewBox="0 0 810 809.999993" height="1080" preserveAspectRatio="xMidYMid meet" version="1.0"><defs><clipPath id="ab45934d2a"><path d="M 249 269 L 561 269 L 561 550.605469 L 249 550.605469 Z M 249 269 " clip-rule="nonzero"/></clipPath></defs><rect x="-81" width="972" fill="#ffffff" y="-80.999999" height="971.999992" fill-opacity="1"/><rect x="-81" width="972" fill="#fffaf5" y="-80.999999" height="971.999992" fill-opacity="1"/><g clip-path="url(#ab45934d2a)"><path fill="#000000" d="M 405.207031 550.691406 C 403.90625 550.691406 402.722656 550.320312 401.65625 549.578125 C 397.839844 546.925781 307.707031 483.894531 267.226562 421.828125 C 264.898438 418.429688 262.785156 414.902344 260.882812 411.246094 C 258.984375 407.585938 257.3125 403.828125 255.871094 399.964844 C 254.433594 396.105469 253.230469 392.167969 252.269531 388.160156 C 251.308594 384.152344 250.597656 380.101562 250.128906 376.003906 C 249.664062 371.910156 249.449219 367.800781 249.484375 363.679688 C 249.519531 359.558594 249.804688 355.453125 250.339844 351.367188 C 250.875 347.28125 251.65625 343.242188 252.6875 339.25 C 253.714844 335.257812 254.984375 331.34375 256.488281 327.507812 C 267.441406 299.476562 289.722656 278.148438 314.648438 271.851562 C 363.558594 259.519531 393.527344 292.75 405.207031 309.597656 C 416.859375 292.75 446.847656 259.511719 495.722656 271.851562 C 520.648438 278.148438 542.941406 299.476562 553.878906 327.511719 C 555.386719 331.347656 556.65625 335.261719 557.683594 339.253906 C 558.714844 343.242188 559.496094 347.28125 560.03125 351.367188 C 560.570312 355.457031 560.855469 359.558594 560.890625 363.679688 C 560.925781 367.800781 560.710938 371.910156 560.246094 376.007812 C 559.78125 380.101562 559.066406 384.152344 558.105469 388.160156 C 557.144531 392.167969 555.945312 396.105469 554.503906 399.964844 C 553.066406 403.828125 551.394531 407.585938 549.496094 411.246094 C 547.597656 414.902344 545.484375 418.429688 543.152344 421.828125 C 502.675781 483.902344 412.546875 546.925781 408.730469 549.578125 C 407.671875 550.3125 406.496094 550.683594 405.207031 550.691406 Z M 335.605469 281.636719 C 329.546875 281.664062 323.582031 282.433594 317.71875 283.949219 C 296.945312 289.195312 277.464844 308.0625 268.097656 332.054688 C 266.773438 335.433594 265.660156 338.875 264.757812 342.386719 C 263.855469 345.898438 263.171875 349.453125 262.703125 353.050781 C 262.234375 356.644531 261.988281 360.257812 261.960938 363.882812 C 261.933594 367.511719 262.128906 371.125 262.542969 374.726562 C 262.957031 378.328125 263.589844 381.894531 264.441406 385.417969 C 265.289062 388.945312 266.351562 392.402344 267.625 395.800781 C 268.898438 399.195312 270.375 402.5 272.050781 405.714844 C 273.726562 408.929688 275.59375 412.03125 277.652344 415.015625 C 312.371094 468.261719 387.933594 524.371094 405.183594 536.820312 C 422.441406 524.382812 498.007812 468.273438 532.714844 415.015625 C 534.769531 412.03125 536.636719 408.929688 538.3125 405.714844 C 539.992188 402.5 541.464844 399.195312 542.738281 395.800781 C 544.011719 392.402344 545.074219 388.945312 545.925781 385.417969 C 546.777344 381.894531 547.410156 378.328125 547.824219 374.726562 C 548.238281 371.125 548.433594 367.511719 548.40625 363.882812 C 548.378906 360.257812 548.132812 356.644531 547.664062 353.050781 C 547.195312 349.453125 546.511719 345.898438 545.609375 342.386719 C 544.707031 338.875 543.59375 335.433594 542.269531 332.054688 C 532.921875 308.074219 513.445312 289.191406 492.667969 283.945312 C 438.128906 270.15625 411.042969 323.675781 410.777344 324.214844 C 410.519531 324.738281 410.199219 325.214844 409.808594 325.644531 C 409.417969 326.078125 408.976562 326.445312 408.480469 326.753906 C 407.988281 327.0625 407.460938 327.292969 406.902344 327.453125 C 406.34375 327.613281 405.773438 327.695312 405.191406 327.695312 C 404.609375 327.695312 404.039062 327.613281 403.480469 327.453125 C 402.921875 327.292969 402.394531 327.0625 401.902344 326.753906 C 401.40625 326.445312 400.964844 326.078125 400.574219 325.644531 C 400.183594 325.214844 399.859375 324.738281 399.605469 324.214844 C 398.636719 322.269531 377.875 281.636719 335.605469 281.636719 Z M 335.605469 281.636719 " fill-opacity="1" fill-rule="nonzero"/></g></svg>