<svg xmlns="http://www.w3.org/2000/svg" xmlns:xlink="http://www.w3.org/1999/xlink" width="1080" zoomAndPan="magnify" viewBox="0 0 810 809.999993" height="1080" preserveAspectRatio="xMidYMid meet" version="1.0"><defs><clipPath id="e5b962c340"><path d="M 250.695312 247 L 558.945312 247 L 558.945312 567 L 250.695312 567 Z M 250.695312 247 " clip-rule="nonzero"/></clipPath></defs><rect x="-81" width="972" fill="#ffffff" y="-80.999999" height="971.999992" fill-opacity="1"/><rect x="-81" width="972" fill="#fffaf5" y="-80.999999" height="971.999992" fill-opacity="1"/><g clip-path="url(#e5b962c340)"><path fill="#000000" d="M 511.511719 566.941406 L 464.078125 566.941406 C 444.472656 566.941406 428.527344 550.976562 428.527344 531.347656 L 428.527344 507.605469 C 428.527344 501.0625 423.203125 495.753906 416.6875 495.753906 L 392.949219 495.753906 C 386.414062 495.753906 381.113281 501.082031 381.113281 507.605469 L 381.113281 531.347656 C 381.113281 550.976562 365.167969 566.941406 345.5625 566.941406 L 298.105469 566.941406 C 271.964844 566.941406 250.695312 545.648438 250.695312 519.476562 L 250.695312 392.703125 C 250.695312 379.421875 256.292969 366.679688 266.066406 357.726562 L 372.769531 259.8125 C 391.035156 243.058594 418.605469 243.058594 436.871094 259.8125 L 543.574219 357.726562 C 553.347656 366.699219 558.945312 379.445312 558.945312 392.703125 L 558.945312 519.453125 C 558.921875 545.648438 537.65625 566.941406 511.511719 566.941406 Z M 392.949219 472.011719 L 416.6875 472.011719 C 436.296875 472.011719 452.242188 487.972656 452.242188 507.605469 L 452.242188 531.347656 C 452.242188 537.890625 457.566406 543.199219 464.078125 543.199219 L 511.511719 543.199219 C 524.582031 543.199219 535.230469 532.5625 535.230469 519.453125 L 535.230469 392.703125 C 535.230469 386.074219 532.417969 379.699219 527.542969 375.226562 L 420.839844 277.308594 C 411.707031 268.910156 397.910156 268.910156 388.777344 277.308594 L 282.097656 375.226562 C 277.222656 379.699219 274.410156 386.074219 274.410156 392.703125 L 274.410156 519.453125 C 274.410156 532.542969 285.035156 543.199219 298.128906 543.199219 L 345.5625 543.199219 C 352.097656 543.199219 357.398438 537.871094 357.398438 531.347656 L 357.398438 507.605469 C 357.398438 487.972656 373.34375 472.011719 392.949219 472.011719 Z M 392.949219 472.011719 " fill-opacity="1" fill-rule="nonzero"/></g></svg>