<svg xmlns="http://www.w3.org/2000/svg" xmlns:xlink="http://www.w3.org/1999/xlink" width="500" zoomAndPan="magnify" viewBox="0 0 375 374.999991" height="500" preserveAspectRatio="xMidYMid meet" version="1.0"><defs><g/></defs><rect x="-37.5" width="450" fill="#ffffff" y="-37.499999" height="449.999989" fill-opacity="1"/><rect x="-37.5" width="450" fill="#f8f7f0" y="-37.499999" height="449.999989" fill-opacity="1"/><g fill="#3d393b" fill-opacity="1"><g transform="translate(44.466978, 282.925408)"><g><path d="M 12.988281 -125.246094 C 12.988281 -125.246094 15.773438 -135.757812 27.523438 -148.4375 C 39.273438 -160.808594 51.027344 -162.972656 51.027344 -162.972656 L 12.988281 -162.972656 Z M 55.972656 0 L 94.320312 0 L 94.320312 -162.972656 L 55.972656 -162.972656 Z M 137.304688 -125.246094 L 137.304688 -162.972656 L 99.269531 -162.972656 C 99.269531 -162.972656 111.019531 -160.808594 122.769531 -148.4375 C 134.523438 -135.757812 137.304688 -125.246094 137.304688 -125.246094 Z M 137.304688 -125.246094 "/></g></g></g><g fill="#3d393b" fill-opacity="1"><g transform="translate(163.835542, 282.925408)"><g><path d="M 12.988281 0 L 51.335938 0 L 51.335938 -162.972656 L 12.988281 -162.972656 Z M 97.722656 -0.308594 C 97.722656 -0.308594 160.191406 -20.101562 160.191406 -80.714844 C 160.191406 -141.015625 97.722656 -162.972656 97.722656 -162.972656 C 97.722656 -162.972656 117.203125 -154.316406 117.203125 -81.640625 C 117.203125 -8.96875 97.722656 -0.308594 97.722656 -0.308594 Z M 97.722656 -0.308594 "/></g></g></g><g fill="#3d393b" fill-opacity="1"><g transform="translate(93.596966, 298.654404)"><g><path d="M 6.4375 -10.5625 L 6.4375 -9.46875 L 3.859375 -9.46875 L 3.859375 0 L 2.6875 0 L 2.6875 -9.46875 L 0.140625 -9.46875 L 0.140625 -10.5625 Z M 6.4375 -10.5625 "/></g></g></g><g fill="#3d393b" fill-opacity="1"><g transform="translate(103.673277, 298.654404)"><g><path d="M 0.53125 -5.265625 C 0.53125 -6.234375 0.773438 -7.132812 1.265625 -7.96875 C 1.753906 -8.8125 2.421875 -9.484375 3.265625 -9.984375 C 4.117188 -10.484375 5.039062 -10.734375 6.03125 -10.734375 C 7.007812 -10.734375 7.921875 -10.488281 8.765625 -10 C 9.609375 -9.519531 10.28125 -8.851562 10.78125 -8 C 11.28125 -7.15625 11.53125 -6.242188 11.53125 -5.265625 C 11.53125 -4.296875 11.285156 -3.390625 10.796875 -2.546875 C 10.304688 -1.703125 9.640625 -1.035156 8.796875 -0.546875 C 7.953125 -0.0546875 7.03125 0.1875 6.03125 0.1875 C 5.050781 0.1875 4.132812 -0.0546875 3.28125 -0.546875 C 2.4375 -1.035156 1.765625 -1.703125 1.265625 -2.546875 C 0.773438 -3.390625 0.53125 -4.296875 0.53125 -5.265625 Z M 6.015625 -9.640625 C 5.234375 -9.640625 4.507812 -9.4375 3.84375 -9.03125 C 3.1875 -8.632812 2.664062 -8.101562 2.28125 -7.4375 C 1.894531 -6.769531 1.703125 -6.050781 1.703125 -5.28125 C 1.703125 -4.5 1.898438 -3.769531 2.296875 -3.09375 C 2.691406 -2.425781 3.222656 -1.894531 3.890625 -1.5 C 4.554688 -1.101562 5.269531 -0.90625 6.03125 -0.90625 C 6.8125 -0.90625 7.535156 -1.101562 8.203125 -1.5 C 8.878906 -1.90625 9.40625 -2.441406 9.78125 -3.109375 C 10.164062 -3.785156 10.359375 -4.507812 10.359375 -5.28125 C 10.359375 -6.0625 10.164062 -6.789062 9.78125 -7.46875 C 9.394531 -8.144531 8.867188 -8.675781 8.203125 -9.0625 C 7.535156 -9.445312 6.804688 -9.640625 6.015625 -9.640625 Z M 6.015625 -9.640625 "/></g></g></g><g fill="#3d393b" fill-opacity="1"><g transform="translate(119.234534, 298.654404)"><g/></g></g><g fill="#3d393b" fill-opacity="1"><g transform="translate(127.044113, 298.654404)"><g><path d="M 3.296875 -10.5625 C 4.265625 -10.5625 5.097656 -10.410156 5.796875 -10.109375 C 6.492188 -9.816406 7.078125 -9.421875 7.546875 -8.921875 C 8.015625 -8.421875 8.359375 -7.859375 8.578125 -7.234375 C 8.804688 -6.609375 8.921875 -5.941406 8.921875 -5.234375 C 8.921875 -4.328125 8.710938 -3.484375 8.296875 -2.703125 C 7.878906 -1.929688 7.265625 -1.285156 6.453125 -0.765625 C 5.640625 -0.253906 4.582031 0 3.28125 0 L 1.0625 0 L 1.0625 -10.5625 Z M 3.359375 -1.09375 C 4.003906 -1.09375 4.585938 -1.1875 5.109375 -1.375 C 5.628906 -1.570312 6.085938 -1.859375 6.484375 -2.234375 C 6.890625 -2.617188 7.195312 -3.078125 7.40625 -3.609375 C 7.625 -4.140625 7.734375 -4.695312 7.734375 -5.28125 C 7.734375 -6.039062 7.5625 -6.726562 7.21875 -7.34375 C 6.882812 -7.96875 6.398438 -8.476562 5.765625 -8.875 C 5.140625 -9.269531 4.296875 -9.46875 3.234375 -9.46875 L 2.234375 -9.46875 L 2.234375 -1.09375 Z M 3.359375 -1.09375 "/></g></g></g><g fill="#3d393b" fill-opacity="1"><g transform="translate(140.030805, 298.654404)"><g><path d="M 0.53125 -5.265625 C 0.53125 -6.234375 0.773438 -7.132812 1.265625 -7.96875 C 1.753906 -8.8125 2.421875 -9.484375 3.265625 -9.984375 C 4.117188 -10.484375 5.039062 -10.734375 6.03125 -10.734375 C 7.007812 -10.734375 7.921875 -10.488281 8.765625 -10 C 9.609375 -9.519531 10.28125 -8.851562 10.78125 -8 C 11.28125 -7.15625 11.53125 -6.242188 11.53125 -5.265625 C 11.53125 -4.296875 11.285156 -3.390625 10.796875 -2.546875 C 10.304688 -1.703125 9.640625 -1.035156 8.796875 -0.546875 C 7.953125 -0.0546875 7.03125 0.1875 6.03125 0.1875 C 5.050781 0.1875 4.132812 -0.0546875 3.28125 -0.546875 C 2.4375 -1.035156 1.765625 -1.703125 1.265625 -2.546875 C 0.773438 -3.390625 0.53125 -4.296875 0.53125 -5.265625 Z M 6.015625 -9.640625 C 5.234375 -9.640625 4.507812 -9.4375 3.84375 -9.03125 C 3.1875 -8.632812 2.664062 -8.101562 2.28125 -7.4375 C 1.894531 -6.769531 1.703125 -6.050781 1.703125 -5.28125 C 1.703125 -4.5 1.898438 -3.769531 2.296875 -3.09375 C 2.691406 -2.425781 3.222656 -1.894531 3.890625 -1.5 C 4.554688 -1.101562 5.269531 -0.90625 6.03125 -0.90625 C 6.8125 -0.90625 7.535156 -1.101562 8.203125 -1.5 C 8.878906 -1.90625 9.40625 -2.441406 9.78125 -3.109375 C 10.164062 -3.785156 10.359375 -4.507812 10.359375 -5.28125 C 10.359375 -6.0625 10.164062 -6.789062 9.78125 -7.46875 C 9.394531 -8.144531 8.867188 -8.675781 8.203125 -9.0625 C 7.535156 -9.445312 6.804688 -9.640625 6.015625 -9.640625 Z M 6.015625 -9.640625 "/></g></g></g><g fill="#3d393b" fill-opacity="1"><g transform="translate(155.592062, 298.654404)"><g/></g></g><g fill="#3d393b" fill-opacity="1"><g transform="translate(163.401641, 298.654404)"><g><path d="M 2.234375 -10.5625 L 2.234375 -1.09375 L 5.15625 -1.09375 L 5.15625 0 L 1.0625 0 L 1.0625 -10.5625 Z M 2.234375 -10.5625 "/></g></g></g><g fill="#3d393b" fill-opacity="1"><g transform="translate(172.148698, 298.654404)"><g><path d="M 2.265625 -10.5625 L 2.265625 0 L 1.09375 0 L 1.09375 -10.5625 Z M 2.265625 -10.5625 "/></g></g></g><g fill="#3d393b" fill-opacity="1"><g transform="translate(178.992819, 298.654404)"><g><path d="M 5.859375 -8.5 C 5.617188 -8.90625 5.351562 -9.195312 5.0625 -9.375 C 4.78125 -9.550781 4.441406 -9.640625 4.046875 -9.640625 C 3.535156 -9.640625 3.113281 -9.476562 2.78125 -9.15625 C 2.445312 -8.84375 2.28125 -8.460938 2.28125 -8.015625 C 2.28125 -7.648438 2.414062 -7.34375 2.6875 -7.09375 C 2.96875 -6.84375 3.300781 -6.628906 3.6875 -6.453125 C 4.082031 -6.273438 4.4375 -6.117188 4.75 -5.984375 C 5.070312 -5.859375 5.441406 -5.664062 5.859375 -5.40625 C 6.285156 -5.144531 6.609375 -4.816406 6.828125 -4.421875 C 7.054688 -4.035156 7.171875 -3.585938 7.171875 -3.078125 C 7.171875 -2.503906 7.023438 -1.960938 6.734375 -1.453125 C 6.441406 -0.953125 6.039062 -0.550781 5.53125 -0.25 C 5.019531 0.0390625 4.457031 0.1875 3.84375 0.1875 C 3.019531 0.1875 2.3125 -0.0546875 1.71875 -0.546875 C 1.125 -1.035156 0.738281 -1.703125 0.5625 -2.546875 L 1.703125 -2.875 C 1.796875 -2.289062 2.035156 -1.816406 2.421875 -1.453125 C 2.816406 -1.085938 3.285156 -0.90625 3.828125 -0.90625 C 4.410156 -0.90625 4.914062 -1.101562 5.34375 -1.5 C 5.769531 -1.90625 5.984375 -2.394531 5.984375 -2.96875 C 5.984375 -3.46875 5.820312 -3.878906 5.5 -4.203125 C 5.175781 -4.523438 4.578125 -4.859375 3.703125 -5.203125 C 2.835938 -5.546875 2.1875 -5.929688 1.75 -6.359375 C 1.320312 -6.796875 1.109375 -7.359375 1.109375 -8.046875 C 1.109375 -8.828125 1.394531 -9.46875 1.96875 -9.96875 C 2.550781 -10.476562 3.25 -10.734375 4.0625 -10.734375 C 4.65625 -10.734375 5.179688 -10.59375 5.640625 -10.3125 C 6.109375 -10.03125 6.492188 -9.625 6.796875 -9.09375 Z M 5.859375 -8.5 "/></g></g></g><g fill="#3d393b" fill-opacity="1"><g transform="translate(190.314447, 298.654404)"><g><path d="M 6.4375 -10.5625 L 6.4375 -9.46875 L 3.859375 -9.46875 L 3.859375 0 L 2.6875 0 L 2.6875 -9.46875 L 0.140625 -9.46875 L 0.140625 -10.5625 Z M 6.4375 -10.5625 "/></g></g></g><g fill="#3d393b" fill-opacity="1"><g transform="translate(200.390763, 298.654404)"><g><path d="M 5.859375 -8.5 C 5.617188 -8.90625 5.351562 -9.195312 5.0625 -9.375 C 4.78125 -9.550781 4.441406 -9.640625 4.046875 -9.640625 C 3.535156 -9.640625 3.113281 -9.476562 2.78125 -9.15625 C 2.445312 -8.84375 2.28125 -8.460938 2.28125 -8.015625 C 2.28125 -7.648438 2.414062 -7.34375 2.6875 -7.09375 C 2.96875 -6.84375 3.300781 -6.628906 3.6875 -6.453125 C 4.082031 -6.273438 4.4375 -6.117188 4.75 -5.984375 C 5.070312 -5.859375 5.441406 -5.664062 5.859375 -5.40625 C 6.285156 -5.144531 6.609375 -4.816406 6.828125 -4.421875 C 7.054688 -4.035156 7.171875 -3.585938 7.171875 -3.078125 C 7.171875 -2.503906 7.023438 -1.960938 6.734375 -1.453125 C 6.441406 -0.953125 6.039062 -0.550781 5.53125 -0.25 C 5.019531 0.0390625 4.457031 0.1875 3.84375 0.1875 C 3.019531 0.1875 2.3125 -0.0546875 1.71875 -0.546875 C 1.125 -1.035156 0.738281 -1.703125 0.5625 -2.546875 L 1.703125 -2.875 C 1.796875 -2.289062 2.035156 -1.816406 2.421875 -1.453125 C 2.816406 -1.085938 3.285156 -0.90625 3.828125 -0.90625 C 4.410156 -0.90625 4.914062 -1.101562 5.34375 -1.5 C 5.769531 -1.90625 5.984375 -2.394531 5.984375 -2.96875 C 5.984375 -3.46875 5.820312 -3.878906 5.5 -4.203125 C 5.175781 -4.523438 4.578125 -4.859375 3.703125 -5.203125 C 2.835938 -5.546875 2.1875 -5.929688 1.75 -6.359375 C 1.320312 -6.796875 1.109375 -7.359375 1.109375 -8.046875 C 1.109375 -8.828125 1.394531 -9.46875 1.96875 -9.96875 C 2.550781 -10.476562 3.25 -10.734375 4.0625 -10.734375 C 4.65625 -10.734375 5.179688 -10.59375 5.640625 -10.3125 C 6.109375 -10.03125 6.492188 -9.625 6.796875 -9.09375 Z M 5.859375 -8.5 "/></g></g></g><g fill="#3d393b" fill-opacity="1"><g transform="translate(211.712391, 298.654404)"><g><path d="M 2.890625 -3.890625 L 2.890625 -2.859375 L 0.03125 -2.859375 L 0.03125 -3.890625 Z M 2.890625 -3.890625 "/></g></g></g><g fill="#3d393b" fill-opacity="1"><g transform="translate(218.122764, 298.654404)"><g/></g></g><g fill="#3d393b" fill-opacity="1"><g transform="translate(225.932349, 298.654404)"><g><path d="M 2.671875 -10.5625 C 5.191406 -10.5625 6.453125 -9.585938 6.453125 -7.640625 C 6.453125 -6.828125 6.21875 -6.15625 5.75 -5.625 C 5.28125 -5.101562 4.632812 -4.804688 3.8125 -4.734375 L 7.171875 0 L 5.71875 0 L 2.53125 -4.640625 L 2.234375 -4.640625 L 2.234375 0 L 1.0625 0 L 1.0625 -10.5625 Z M 2.234375 -5.671875 L 2.765625 -5.671875 C 3.585938 -5.671875 4.210938 -5.820312 4.640625 -6.125 C 5.066406 -6.4375 5.28125 -6.914062 5.28125 -7.5625 C 5.28125 -8.257812 5.070312 -8.75 4.65625 -9.03125 C 4.238281 -9.320312 3.640625 -9.46875 2.859375 -9.46875 L 2.234375 -9.46875 Z M 2.234375 -5.671875 "/></g></g></g><g fill="#3d393b" fill-opacity="1"><g transform="translate(237.016112, 298.654404)"><g><path d="M 6.53125 -10.5625 L 6.53125 -9.46875 L 2.234375 -9.46875 L 2.234375 -6.328125 L 6.40625 -6.328125 L 6.40625 -5.234375 L 2.234375 -5.234375 L 2.234375 -1.09375 L 6.53125 -1.09375 L 6.53125 0 L 1.0625 0 L 1.0625 -10.5625 Z M 6.53125 -10.5625 "/></g></g></g><g fill="#3d393b" fill-opacity="1"><g transform="translate(247.987928, 298.654404)"><g><path d="M 4.953125 -11.0625 L 9.703125 0 L 8.40625 0 L 7.15625 -3 L 2.640625 -3 L 1.375 0 L 0.078125 0 Z M 3.125 -4.09375 L 6.6875 -4.09375 L 4.921875 -8.3125 Z M 1.90625 -10.5625 Z M 1.90625 -10.5625 "/></g></g></g><g fill="#3d393b" fill-opacity="1"><g transform="translate(261.268464, 298.654404)"><g><path d="M 9.109375 -8.25 C 8.660156 -8.695312 8.160156 -9.039062 7.609375 -9.28125 C 7.054688 -9.519531 6.484375 -9.640625 5.890625 -9.640625 C 5.148438 -9.640625 4.445312 -9.4375 3.78125 -9.03125 C 3.113281 -8.632812 2.585938 -8.097656 2.203125 -7.421875 C 1.828125 -6.753906 1.640625 -6.039062 1.640625 -5.28125 C 1.640625 -4.53125 1.832031 -3.8125 2.21875 -3.125 C 2.601562 -2.445312 3.125 -1.90625 3.78125 -1.5 C 4.445312 -1.101562 5.160156 -0.90625 5.921875 -0.90625 C 6.492188 -0.90625 7.054688 -1.023438 7.609375 -1.265625 C 8.160156 -1.515625 8.660156 -1.863281 9.109375 -2.3125 L 9.109375 -0.859375 C 8.660156 -0.523438 8.160156 -0.265625 7.609375 -0.078125 C 7.066406 0.0976562 6.519531 0.1875 5.96875 0.1875 C 5.03125 0.1875 4.132812 -0.046875 3.28125 -0.515625 C 2.425781 -0.984375 1.742188 -1.632812 1.234375 -2.46875 C 0.722656 -3.3125 0.46875 -4.234375 0.46875 -5.234375 C 0.46875 -6.222656 0.710938 -7.140625 1.203125 -7.984375 C 1.703125 -8.828125 2.378906 -9.492188 3.234375 -9.984375 C 4.085938 -10.484375 5 -10.734375 5.96875 -10.734375 C 6.5625 -10.734375 7.140625 -10.632812 7.703125 -10.4375 C 8.273438 -10.25 8.742188 -10.003906 9.109375 -9.703125 Z M 9.109375 -8.25 "/></g></g></g><g fill="#3d393b" fill-opacity="1"><g transform="translate(274.800849, 298.654404)"><g><path d="M 6.4375 -10.5625 L 6.4375 -9.46875 L 3.859375 -9.46875 L 3.859375 0 L 2.6875 0 L 2.6875 -9.46875 L 0.140625 -9.46875 L 0.140625 -10.5625 Z M 6.4375 -10.5625 "/></g></g></g></svg>