<svg xmlns="http://www.w3.org/2000/svg" xmlns:xlink="http://www.w3.org/1999/xlink" width="1080" zoomAndPan="magnify" viewBox="0 0 810 809.999993" height="1080" preserveAspectRatio="xMidYMid meet" version="1.0"><defs><clipPath id="f191f26ea9"><path d="M 243 283.296875 L 567 283.296875 L 567 527 L 243 527 Z M 243 283.296875 " clip-rule="nonzero"/></clipPath><clipPath id="e3bdab345d"><path d="M 243 385 L 567 385 L 567 527 L 243 527 Z M 243 385 " clip-rule="nonzero"/></clipPath><clipPath id="c14f7ea7ef"><path d="M 243 283.296875 L 567 283.296875 L 567 425 L 243 425 Z M 243 283.296875 " clip-rule="nonzero"/></clipPath></defs><rect x="-81" width="972" fill="#ffffff" y="-80.999999" height="971.999992" fill-opacity="1"/><rect x="-81" width="972" fill="#fffaf5" y="-80.999999" height="971.999992" fill-opacity="1"/><path fill="#edebe9" d="M 268.070312 521.414062 C 257.144531 521.414062 248.253906 512.523438 248.253906 501.597656 L 248.253906 308.296875 C 248.253906 297.367188 257.144531 288.480469 268.070312 288.480469 L 542.027344 288.480469 C 552.953125 288.480469 561.84375 297.367188 561.84375 308.296875 L 561.84375 501.597656 C 561.84375 512.523438 552.953125 521.414062 542.027344 521.414062 L 268.070312 521.414062 " fill-opacity="1" fill-rule="nonzero"/><g clip-path="url(#f191f26ea9)"><path fill="#000000" d="M 542.027344 283.269531 L 268.070312 283.269531 C 254.246094 283.269531 243.042969 294.472656 243.042969 308.296875 L 243.042969 501.597656 C 243.042969 515.421875 254.246094 526.628906 268.070312 526.628906 L 542.027344 526.628906 C 555.851562 526.628906 567.058594 515.421875 567.058594 501.597656 L 567.058594 308.296875 C 567.058594 294.472656 555.851562 283.269531 542.027344 283.269531 Z M 542.027344 293.695312 C 550.078125 293.695312 556.628906 300.246094 556.628906 308.296875 L 556.628906 501.597656 C 556.628906 509.648438 550.078125 516.199219 542.027344 516.199219 L 268.070312 516.199219 C 260.019531 516.199219 253.472656 509.648438 253.472656 501.597656 L 253.472656 308.296875 C 253.472656 300.246094 260.019531 293.695312 268.070312 293.695312 L 542.027344 293.695312 " fill-opacity="1" fill-rule="nonzero"/></g><path fill="#edebe9" d="M 268.070312 521.414062 C 258.007812 521.414062 249.671875 513.875 248.417969 504.144531 L 403.34375 392.058594 L 561.675781 504.175781 C 560.410156 513.890625 552.078125 521.414062 542.027344 521.414062 L 268.070312 521.414062 " fill-opacity="1" fill-rule="nonzero"/><g clip-path="url(#e3bdab345d)"><path fill="#000000" d="M 403.316406 385.644531 L 243.042969 501.597656 C 243.042969 515.421875 254.246094 526.628906 268.070312 526.628906 L 542.027344 526.628906 C 555.851562 526.628906 567.058594 515.421875 567.058594 501.597656 Z M 403.375 398.46875 L 555.8125 506.414062 C 553.816406 512.105469 548.390625 516.199219 542.027344 516.199219 L 268.070312 516.199219 C 261.683594 516.199219 256.242188 512.074219 254.265625 506.347656 L 403.375 398.46875 " fill-opacity="1" fill-rule="nonzero"/></g><path fill="#edebe9" d="M 248.417969 305.75 C 249.671875 296.019531 258.007812 288.480469 268.070312 288.480469 L 542.027344 288.480469 C 552.078125 288.480469 560.410156 296.003906 561.675781 305.71875 L 403.34375 417.839844 L 248.417969 305.75 " fill-opacity="1" fill-rule="nonzero"/><g clip-path="url(#c14f7ea7ef)"><path fill="#000000" d="M 542.027344 283.269531 L 268.070312 283.269531 C 254.246094 283.269531 243.042969 294.472656 243.042969 308.296875 L 403.316406 424.25 L 567.058594 308.296875 C 567.058594 294.472656 555.851562 283.269531 542.027344 283.269531 Z M 542.027344 293.695312 C 548.390625 293.695312 553.816406 297.789062 555.8125 303.480469 L 403.375 411.425781 L 254.265625 303.546875 C 256.242188 297.820312 261.683594 293.695312 268.070312 293.695312 L 542.027344 293.695312 " fill-opacity="1" fill-rule="nonzero"/></g><path fill="#edebe9" d="M 263.03125 476.394531 C 263.03125 460.75 263.03125 445.105469 263.03125 429.460938 C 263.03125 425.429688 256.773438 425.429688 256.773438 429.460938 C 256.773438 445.105469 256.773438 460.75 256.773438 476.394531 C 256.773438 480.433594 263.03125 480.433594 263.03125 476.394531 " fill-opacity="1" fill-rule="nonzero"/><path fill="#edebe9" d="M 262.507812 419.554688 C 262.507812 414.863281 262.507812 410.167969 262.507812 405.480469 C 262.507812 401.441406 256.253906 401.441406 256.253906 405.480469 C 256.253906 410.167969 256.253906 414.863281 256.253906 419.554688 C 256.253906 423.589844 262.507812 423.589844 262.507812 419.554688 " fill-opacity="1" fill-rule="nonzero"/><path fill="#edebe9" d="M 261.46875 394.007812 C 261.46875 392.4375 261.46875 390.871094 261.46875 389.308594 C 261.46875 387.601562 260.042969 386.179688 258.339844 386.179688 C 256.632812 386.179688 255.210938 387.601562 255.210938 389.308594 C 255.210938 390.871094 255.210938 392.4375 255.210938 394.007812 C 255.210938 395.707031 256.632812 397.132812 258.339844 397.132812 C 260.042969 397.132812 261.46875 395.707031 261.46875 394.007812 " fill-opacity="1" fill-rule="nonzero"/><path fill="#edebe9" d="M 545.679688 335.074219 C 545.679688 353.847656 545.679688 372.621094 545.679688 391.394531 C 545.679688 395.429688 551.9375 395.429688 551.9375 391.394531 C 551.9375 372.621094 551.9375 353.847656 551.9375 335.074219 C 551.9375 331.039062 545.679688 331.039062 545.679688 335.074219 " fill-opacity="1" fill-rule="nonzero"/><path fill="#edebe9" d="M 544.632812 402.347656 C 544.632812 405.476562 544.632812 408.601562 544.632812 411.730469 C 544.632812 415.769531 550.890625 415.769531 550.890625 411.730469 C 550.890625 408.601562 550.890625 405.476562 550.890625 402.347656 C 550.890625 398.3125 544.632812 398.3125 544.632812 402.347656 " fill-opacity="1" fill-rule="nonzero"/><path fill="#edebe9" d="M 545.679688 419.554688 C 545.679688 424.421875 545.679688 429.289062 545.679688 434.15625 C 545.679688 438.191406 551.9375 438.191406 551.9375 434.15625 C 551.9375 429.289062 551.9375 424.421875 551.9375 419.554688 C 551.9375 415.519531 545.679688 415.519531 545.679688 419.554688 " fill-opacity="1" fill-rule="nonzero"/><path fill="#edebe9" d="M 411.136719 510.816406 C 430.429688 510.816406 449.722656 510.816406 469.019531 510.816406 C 473.050781 510.816406 473.050781 504.554688 469.019531 504.554688 C 449.722656 504.554688 430.429688 504.554688 411.136719 504.554688 C 407.097656 504.554688 407.097656 510.816406 411.136719 510.816406 " fill-opacity="1" fill-rule="nonzero"/><path fill="#edebe9" d="M 480.492188 510.816406 C 483.96875 510.816406 487.445312 510.816406 490.921875 510.816406 C 494.957031 510.816406 494.957031 504.554688 490.921875 504.554688 C 487.445312 504.554688 483.96875 504.554688 480.492188 504.554688 C 476.457031 504.554688 476.457031 510.816406 480.492188 510.816406 " fill-opacity="1" fill-rule="nonzero"/><path fill="#edebe9" d="M 500.308594 510.292969 C 503.957031 510.292969 507.605469 510.292969 511.257812 510.292969 C 515.296875 510.292969 515.296875 504.035156 511.257812 504.035156 C 507.605469 504.035156 503.957031 504.035156 500.308594 504.035156 C 496.273438 504.035156 496.273438 510.292969 500.308594 510.292969 " fill-opacity="1" fill-rule="nonzero"/></svg>