<svg xmlns="http://www.w3.org/2000/svg" xmlns:xlink="http://www.w3.org/1999/xlink" width="1080" zoomAndPan="magnify" viewBox="0 0 810 809.999993" height="1080" preserveAspectRatio="xMidYMid meet" version="1.0"><defs><clipPath id="bd1c0bf903"><path d="M 336.554688 312 L 473.804688 312 L 473.804688 567 L 336.554688 567 Z M 336.554688 312 " clip-rule="nonzero"/></clipPath></defs><rect x="-81" width="972" fill="#ffffff" y="-80.999999" height="971.999992" fill-opacity="1"/><rect x="-81" width="972" fill="#fffaf5" y="-80.999999" height="971.999992" fill-opacity="1"/><g clip-path="url(#bd1c0bf903)"><path fill="#000000" d="M 348.441406 443.007812 C 348.660156 443.007812 348.875 443.003906 349.09375 442.988281 C 355.136719 442.636719 359.746094 437.464844 359.394531 431.441406 C 358.855469 422.355469 358.613281 414.082031 358.617188 406.550781 C 358.570312 373.472656 363.402344 354.890625 368.152344 345.195312 L 368.152344 550.089844 C 368.152344 559.417969 375.738281 566.976562 385.085938 566.976562 C 394.4375 566.976562 402.019531 559.417969 402.019531 550.089844 L 402.019531 426.785156 L 408.367188 426.785156 L 408.367188 550.089844 C 408.367188 559.417969 415.953125 566.976562 425.300781 566.976562 C 434.652344 566.976562 442.234375 559.417969 442.234375 550.089844 L 442.234375 345.253906 C 443.046875 346.914062 443.863281 348.820312 444.671875 351.042969 C 448.535156 361.714844 451.78125 379.226562 451.765625 406.554688 C 451.769531 414.085938 451.523438 422.359375 450.992188 431.445312 C 450.640625 437.472656 455.253906 442.636719 461.292969 442.992188 C 461.511719 443.003906 461.726562 443.011719 461.941406 443.011719 C 467.703125 443.011719 472.53125 438.527344 472.871094 432.71875 C 473.421875 423.25 473.679688 414.554688 473.679688 406.554688 C 473.628906 365.328125 467.023438 342.507812 458.019531 328.789062 C 453.519531 321.976562 448.257812 317.613281 443.394531 315.191406 C 438.710938 312.835938 434.589844 312.304688 432.125 312.277344 C 431.964844 312.269531 431.808594 312.25 431.648438 312.25 L 378.738281 312.25 C 378.59375 312.25 378.453125 312.269531 378.308594 312.273438 C 375.847656 312.296875 371.703125 312.820312 366.984375 315.1875 C 359.617188 318.832031 351.675781 326.800781 346.117188 340.925781 C 340.496094 355.101562 336.71875 375.601562 336.703125 406.550781 C 336.703125 414.550781 336.957031 423.246094 337.515625 432.71875 C 337.859375 438.527344 342.6875 443.007812 348.441406 443.007812 Z M 348.441406 443.007812 " fill-opacity="1" fill-rule="nonzero"/></g><path fill="#000000" d="M 436.007812 273.734375 C 436.007812 274.742188 435.957031 275.746094 435.859375 276.746094 C 435.761719 277.75 435.613281 278.742188 435.414062 279.730469 C 435.21875 280.71875 434.972656 281.691406 434.679688 282.65625 C 434.386719 283.621094 434.046875 284.566406 433.660156 285.496094 C 433.277344 286.425781 432.84375 287.335938 432.367188 288.222656 C 431.894531 289.109375 431.375 289.972656 430.8125 290.808594 C 430.253906 291.648438 429.652344 292.453125 429.011719 293.230469 C 428.371094 294.011719 427.695312 294.753906 426.980469 295.46875 C 426.269531 296.179688 425.519531 296.855469 424.742188 297.492188 C 423.960938 298.128906 423.152344 298.730469 422.3125 299.289062 C 421.472656 299.847656 420.609375 300.363281 419.71875 300.839844 C 418.828125 301.3125 417.917969 301.742188 416.984375 302.128906 C 416.050781 302.515625 415.101562 302.851562 414.136719 303.144531 C 413.171875 303.4375 412.195312 303.679688 411.203125 303.878906 C 410.214844 304.074219 409.21875 304.222656 408.210938 304.320312 C 407.207031 304.417969 406.203125 304.46875 405.191406 304.46875 C 404.183594 304.46875 403.175781 304.417969 402.171875 304.320312 C 401.167969 304.222656 400.171875 304.074219 399.179688 303.878906 C 398.191406 303.679688 397.214844 303.4375 396.246094 303.144531 C 395.28125 302.851562 394.332031 302.515625 393.398438 302.128906 C 392.46875 301.742188 391.554688 301.3125 390.667969 300.839844 C 389.777344 300.363281 388.910156 299.847656 388.074219 299.289062 C 387.234375 298.730469 386.421875 298.128906 385.644531 297.492188 C 384.863281 296.855469 384.117188 296.179688 383.402344 295.46875 C 382.6875 294.753906 382.011719 294.011719 381.371094 293.230469 C 380.730469 292.453125 380.132812 291.648438 379.570312 290.808594 C 379.011719 289.972656 378.492188 289.109375 378.015625 288.222656 C 377.539062 287.335938 377.109375 286.425781 376.722656 285.496094 C 376.335938 284.566406 375.996094 283.621094 375.703125 282.65625 C 375.410156 281.691406 375.167969 280.71875 374.96875 279.730469 C 374.773438 278.742188 374.625 277.75 374.527344 276.746094 C 374.425781 275.746094 374.378906 274.742188 374.378906 273.734375 C 374.378906 272.726562 374.425781 271.722656 374.527344 270.722656 C 374.625 269.722656 374.773438 268.726562 374.96875 267.738281 C 375.167969 266.75 375.410156 265.777344 375.703125 264.8125 C 375.996094 263.851562 376.335938 262.902344 376.722656 261.972656 C 377.109375 261.042969 377.539062 260.136719 378.015625 259.246094 C 378.492188 258.359375 379.011719 257.496094 379.570312 256.660156 C 380.132812 255.824219 380.730469 255.015625 381.371094 254.238281 C 382.011719 253.460938 382.6875 252.714844 383.402344 252.003906 C 384.117188 251.292969 384.863281 250.617188 385.644531 249.976562 C 386.421875 249.339844 387.234375 248.738281 388.074219 248.179688 C 388.910156 247.621094 389.777344 247.105469 390.667969 246.628906 C 391.554688 246.15625 392.46875 245.726562 393.398438 245.339844 C 394.332031 244.957031 395.28125 244.617188 396.246094 244.324219 C 397.214844 244.03125 398.191406 243.789062 399.179688 243.59375 C 400.171875 243.394531 401.167969 243.246094 402.171875 243.148438 C 403.175781 243.050781 404.183594 243 405.191406 243 C 406.203125 243 407.207031 243.050781 408.210938 243.148438 C 409.21875 243.246094 410.214844 243.394531 411.203125 243.59375 C 412.195312 243.789062 413.171875 244.03125 414.136719 244.324219 C 415.101562 244.617188 416.050781 244.957031 416.984375 245.339844 C 417.917969 245.726562 418.828125 246.15625 419.71875 246.628906 C 420.609375 247.105469 421.472656 247.621094 422.3125 248.179688 C 423.152344 248.738281 423.960938 249.339844 424.742188 249.976562 C 425.519531 250.617188 426.269531 251.292969 426.980469 252.003906 C 427.695312 252.714844 428.371094 253.460938 429.011719 254.238281 C 429.652344 255.015625 430.253906 255.824219 430.8125 256.660156 C 431.375 257.496094 431.894531 258.359375 432.367188 259.246094 C 432.84375 260.136719 433.277344 261.042969 433.660156 261.972656 C 434.046875 262.902344 434.386719 263.851562 434.679688 264.8125 C 434.972656 265.777344 435.21875 266.75 435.414062 267.738281 C 435.613281 268.726562 435.761719 269.722656 435.859375 270.722656 C 435.957031 271.722656 436.007812 272.726562 436.007812 273.734375 Z M 436.007812 273.734375 " fill-opacity="1" fill-rule="nonzero"/></svg>