<svg xmlns="http://www.w3.org/2000/svg" xmlns:xlink="http://www.w3.org/1999/xlink" width="1080" zoomAndPan="magnify" viewBox="0 0 810 809.999993" height="1080" preserveAspectRatio="xMidYMid meet" version="1.0"><defs><clipPath id="32c37d7acb"><path d="M 310 481 L 422 481 L 422 567 L 310 567 Z M 310 481 " clip-rule="nonzero"/></clipPath><clipPath id="605243bf57"><path d="M 477 365 L 524.796875 365 L 524.796875 420 L 477 420 Z M 477 365 " clip-rule="nonzero"/></clipPath></defs><rect x="-81" width="972" fill="#ffffff" y="-80.999999" height="971.999992" fill-opacity="1"/><rect x="-81" width="972" fill="#fffaf5" y="-80.999999" height="971.999992" fill-opacity="1"/><g clip-path="url(#32c37d7acb)"><path fill="#f6decc" d="M 314.9375 481.6875 L 310.128906 562.566406 C 327.203125 565.601562 363.457031 567.144531 363.457031 567.144531 L 367.570312 535.117188 L 371.066406 567.015625 C 371.066406 567.015625 404.722656 565.242188 421.257812 562.566406 L 412.386719 482.820312 L 314.9375 481.6875 " fill-opacity="1" fill-rule="evenodd"/></g><path fill="#582d2a" d="M 409.53125 487.554688 C 404.621094 488.121094 399.761719 488.582031 394.902344 488.96875 C 390.015625 489.328125 385.132812 489.636719 380.246094 489.867188 C 376.339844 490.050781 372.429688 490.175781 368.523438 490.304688 C 362.632812 490.460938 356.746094 490.5625 350.882812 490.589844 C 350.753906 490.589844 350.625 490.691406 350.625 490.847656 C 350.625 490.976562 350.753906 491.105469 350.882812 491.105469 C 356.746094 491.105469 362.632812 491.078125 368.523438 490.949219 C 372.429688 490.871094 376.363281 490.742188 380.273438 490.5625 C 385.15625 490.332031 390.042969 489.996094 394.953125 489.613281 C 399.8125 489.199219 404.699219 488.710938 409.582031 488.121094 C 409.738281 488.09375 409.867188 487.964844 409.839844 487.8125 C 409.816406 487.65625 409.6875 487.554688 409.53125 487.554688 " fill-opacity="1" fill-rule="evenodd"/><path fill="#582d2a" d="M 363.558594 508.570312 C 363.558594 508.570312 363.609375 510.449219 363.714844 512.996094 C 363.765625 514.332031 363.84375 515.875 363.945312 517.394531 C 364.023438 518.601562 364.125 519.8125 364.253906 520.917969 C 364.5625 523.851562 364.871094 526.140625 364.871094 526.140625 C 364.921875 526.9375 365.410156 527.503906 365.949219 527.425781 C 366.492188 527.347656 366.875 526.65625 366.824219 525.855469 C 366.824219 525.855469 366.824219 523.515625 366.746094 520.53125 C 366.695312 519.425781 366.644531 518.21875 366.566406 517.007812 C 366.464844 515.488281 366.3125 513.972656 366.183594 512.632812 C 365.949219 510.113281 365.746094 508.234375 365.746094 508.234375 C 365.695312 507.359375 365.152344 506.71875 364.535156 506.820312 C 363.945312 506.898438 363.507812 507.695312 363.558594 508.570312 " fill-opacity="1" fill-rule="evenodd"/><path fill="#582d2a" d="M 369.859375 500.828125 C 369.859375 500.828125 369.265625 510.730469 368.90625 519.296875 C 368.804688 521.484375 368.726562 523.617188 368.703125 525.445312 C 368.625 527.453125 368.597656 529.097656 368.574219 530.203125 L 363.945312 531.183594 C 363.429688 531.257812 363.019531 531.953125 363.070312 532.75 C 363.148438 533.546875 363.609375 534.113281 364.175781 534.039062 L 369.859375 533.445312 C 370.449219 533.367188 370.886719 532.671875 370.9375 531.824219 C 370.9375 531.824219 371.09375 529.277344 371.273438 525.675781 C 371.375 523.824219 371.480469 521.714844 371.554688 519.503906 C 371.839844 510.9375 372.042969 501.03125 372.042969 501.03125 C 372.070312 500.132812 371.605469 499.386719 370.988281 499.335938 C 370.398438 499.285156 369.882812 499.953125 369.859375 500.828125 " fill-opacity="1" fill-rule="evenodd"/><g clip-path="url(#605243bf57)"><path fill="#fcbfa3" d="M 477.539062 401.300781 C 484.042969 397.621094 492.195312 372.386719 495.382812 366.652344 C 496.257812 365.082031 500.398438 365.621094 500.21875 369.09375 C 500.089844 371.382812 498.136719 380.027344 498.136719 380.027344 C 498.136719 380.027344 518.0625 368.089844 522.433594 367.371094 C 525.464844 366.882812 525.210938 370.84375 523.691406 372.234375 C 521.710938 374.058594 513.304688 380.722656 513.304688 380.722656 C 515.414062 381.390625 516.414062 382.882812 516.339844 385.199219 C 518.242188 386.5625 518.574219 388.335938 517.882812 390.417969 C 517.882812 390.417969 519.707031 393.636719 516.363281 398.214844 C 508.832031 408.582031 488.519531 419.746094 488.519531 419.746094 L 477.539062 401.300781 " fill-opacity="1" fill-rule="evenodd"/></g><path fill="#f7907f" d="M 514.28125 379.539062 C 514.28125 379.539062 513.820312 379.796875 513.175781 380.179688 C 512.84375 380.386719 512.480469 380.617188 512.097656 380.851562 C 511.890625 381.003906 511.683594 381.160156 511.480469 381.289062 C 510.683594 381.878906 510.066406 382.367188 510.066406 382.367188 C 509.886719 382.496094 509.832031 382.753906 509.9375 382.933594 C 510.066406 383.113281 510.320312 383.164062 510.503906 383.035156 C 510.503906 383.035156 511.195312 382.652344 512.042969 382.136719 C 512.25 382.007812 512.480469 381.878906 512.6875 381.726562 C 513.046875 381.492188 513.40625 381.210938 513.714844 380.980469 C 514.308594 380.566406 514.746094 380.234375 514.746094 380.234375 C 514.925781 380.105469 514.976562 379.847656 514.847656 379.640625 C 514.746094 379.460938 514.460938 379.410156 514.28125 379.539062 " fill-opacity="1" fill-rule="evenodd"/><path fill="#f7907f" d="M 515.875 385.015625 C 514.589844 386.816406 513.152344 388.414062 511.632812 389.957031 C 510.734375 390.882812 509.808594 391.808594 508.832031 392.683594 C 507.390625 394.019531 505.898438 395.28125 504.382812 396.542969 C 504.203125 396.671875 504.175781 396.929688 504.304688 397.082031 C 504.433594 397.261719 504.691406 397.289062 504.871094 397.160156 C 506.414062 396 507.929688 394.820312 509.398438 393.53125 C 510.015625 392.992188 510.628906 392.453125 511.222656 391.859375 C 512.199219 390.882812 513.152344 389.878906 514.050781 388.824219 C 514.925781 387.769531 515.773438 386.664062 516.542969 385.480469 C 516.671875 385.300781 516.621094 385.042969 516.441406 384.914062 C 516.261719 384.785156 516.003906 384.835938 515.875 385.015625 " fill-opacity="1" fill-rule="evenodd"/><path fill="#f7907f" d="M 517.574219 390.394531 C 516.289062 392.167969 514.847656 393.789062 513.332031 395.332031 C 512.429688 396.257812 511.503906 397.160156 510.527344 398.058594 C 509.089844 399.371094 507.597656 400.65625 506.078125 401.917969 C 505.898438 402.046875 505.875 402.277344 506.003906 402.457031 C 506.132812 402.636719 506.386719 402.664062 506.566406 402.535156 C 508.109375 401.378906 509.628906 400.195312 511.09375 398.910156 C 511.710938 398.367188 512.328125 397.828125 512.917969 397.238281 C 513.921875 396.257812 514.847656 395.253906 515.746094 394.175781 C 516.621094 393.144531 517.445312 392.039062 518.242188 390.855469 C 518.371094 390.675781 518.320312 390.417969 518.136719 390.289062 C 517.957031 390.164062 517.703125 390.214844 517.574219 390.394531 " fill-opacity="1" fill-rule="evenodd"/><path fill="#cc9d7c" d="M 341.011719 355.898438 C 341.011719 355.898438 313.652344 355.484375 303.753906 383.449219 C 291.695312 417.507812 284.777344 477.289062 304.214844 495.269531 C 307.609375 498.410156 316.199219 502.0625 316.199219 502.0625 C 325.402344 500.542969 349.46875 492.75 359.832031 486.472656 L 414.261719 484.339844 L 413.3125 473.484375 C 413.3125 473.484375 423.855469 496.917969 443.574219 487.914062 C 465.121094 478.0625 496.230469 419.769531 496.230469 419.769531 L 478.183594 394.972656 L 438.535156 432.375 C 431.925781 410.5625 417.785156 380.386719 408.890625 366.597656 C 400.585938 353.761719 384.773438 355.125 384.773438 355.125 L 341.011719 355.898438 " fill-opacity="1" fill-rule="evenodd"/><path fill="#582d2a" d="M 472.347656 404.875 C 472.347656 404.875 474.015625 407.113281 476.332031 410.097656 C 477.539062 411.667969 478.929688 413.492188 480.34375 415.269531 C 481.449219 416.683594 482.554688 418.097656 483.582031 419.386719 C 486.332031 422.832031 488.542969 425.507812 488.542969 425.507812 C 488.671875 425.714844 488.957031 425.738281 489.136719 425.585938 C 489.316406 425.429688 489.367188 425.171875 489.210938 424.992188 C 489.210938 424.992188 487.128906 422.214844 484.457031 418.714844 C 483.453125 417.402344 482.347656 415.964844 481.242188 414.574219 C 479.855469 412.773438 478.441406 411 477.179688 409.429688 C 474.839844 406.472656 473.089844 404.285156 473.089844 404.285156 C 472.9375 404.078125 472.628906 404.054688 472.421875 404.207031 C 472.191406 404.386719 472.164062 404.671875 472.347656 404.875 " fill-opacity="1" fill-rule="evenodd"/><path fill="#582d2a" d="M 478.542969 400.992188 C 479.777344 400.992188 480.78125 401.945312 480.78125 403.101562 C 480.78125 404.257812 479.777344 405.183594 478.542969 405.183594 C 477.308594 405.183594 476.304688 404.257812 476.304688 403.101562 C 476.304688 401.945312 477.308594 400.992188 478.542969 400.992188 " fill-opacity="1" fill-rule="evenodd"/><path fill="#582d2a" d="M 429.585938 442.046875 C 429.585938 442.046875 430.640625 441.226562 432.03125 440.066406 C 432.777344 439.449219 433.597656 438.753906 434.421875 438.007812 C 436.761719 435.925781 439.023438 433.714844 439.023438 433.714844 C 439.433594 433.328125 439.484375 432.660156 439.101562 432.222656 C 438.714844 431.785156 438.070312 431.757812 437.636719 432.144531 C 437.636719 432.144531 435.140625 434.074219 432.777344 436.132812 C 431.953125 436.851562 431.15625 437.625 430.4375 438.265625 C 429.125 439.5 428.171875 440.453125 428.171875 440.453125 C 427.734375 440.839844 427.683594 441.507812 428.070312 441.945312 C 428.457031 442.382812 429.148438 442.433594 429.585938 442.046875 " fill-opacity="1" fill-rule="evenodd"/><path fill="#582d2a" d="M 409.144531 445.777344 C 409.171875 449.867188 409.328125 453.882812 409.609375 457.789062 C 409.917969 461.855469 410.355469 465.867188 410.945312 469.753906 C 411.742188 474.898438 412 479.757812 413.878906 484.390625 C 414.699219 486.34375 416.527344 485.46875 416.113281 483.875 C 414.855469 479.117188 414.210938 474.460938 413.414062 469.367188 C 412.847656 465.535156 412.359375 461.597656 412 457.609375 C 411.640625 453.726562 411.410156 449.789062 411.28125 445.753906 C 411.28125 445.160156 410.792969 444.699219 410.199219 444.699219 C 409.609375 444.722656 409.144531 445.210938 409.144531 445.777344 " fill-opacity="1" fill-rule="evenodd"/><path fill="#fcbfa3" d="M 390.480469 419.976562 C 397.011719 416.273438 405.136719 391.035156 408.324219 385.328125 C 409.199219 383.730469 413.363281 384.296875 413.15625 387.769531 C 413.027344 390.035156 411.101562 398.703125 411.101562 398.703125 C 411.101562 398.703125 430.976562 386.742188 435.371094 386.046875 C 438.40625 385.558594 438.148438 389.519531 436.632812 390.910156 C 434.625 392.710938 426.246094 399.371094 426.246094 399.371094 C 428.351562 400.039062 429.355469 401.558594 429.277344 403.875 C 431.207031 405.210938 431.515625 407.011719 430.820312 409.070312 C 430.820312 409.070312 432.648438 412.285156 429.304688 416.890625 C 421.796875 427.257812 401.457031 438.394531 401.457031 438.394531 L 390.480469 419.976562 " fill-opacity="1" fill-rule="evenodd"/><path fill="#582d2a" d="M 344.609375 260.589844 C 318.949219 259.691406 321.878906 304.835938 341.757812 311.0625 L 346.667969 280.785156 L 373.613281 278.492188 L 395.800781 283.691406 L 397.292969 294.417969 L 400.6875 279.265625 C 400.6875 279.265625 364.203125 261.285156 344.609375 260.589844 " fill-opacity="1" fill-rule="evenodd"/><path fill="#fcbfa3" d="M 348.929688 322.535156 L 373.484375 323.742188 C 373.484375 323.742188 375.464844 340.59375 377.957031 346.429688 C 380.222656 351.757812 384.257812 353.6875 384.257812 353.6875 C 383.433594 367.578125 348.132812 369.429688 342.65625 353.6875 C 342.65625 353.6875 347.257812 351.265625 348.929688 346.40625 C 351.011719 340.359375 348.929688 322.535156 348.929688 322.535156 " fill-opacity="1" fill-rule="evenodd"/><path fill="#f7907f" d="M 377.367188 344.707031 C 361.578125 344.398438 353.890625 339.5625 350.730469 331.226562 L 375.566406 329.710938 L 377.367188 344.707031 " fill-opacity="1" fill-rule="evenodd"/><path fill="#fcbfa3" d="M 376.082031 266.816406 C 396.574219 268.382812 399.402344 282.09375 398.605469 301.800781 C 397.730469 324.128906 390.480469 339.152344 370.167969 339.410156 C 354.125 339.589844 340.46875 326.339844 340.316406 308.796875 C 340.160156 288.039062 345.484375 264.449219 376.082031 266.816406 " fill-opacity="1" fill-rule="evenodd"/><path fill="#fcbfa3" d="M 340.597656 296.011719 C 335.816406 296.011719 331.933594 299.769531 331.933594 304.425781 C 331.933594 309.078125 335.816406 312.835938 340.597656 312.835938 C 345.382812 312.835938 349.265625 309.078125 349.265625 304.425781 C 349.265625 299.769531 345.382812 296.011719 340.597656 296.011719 " fill-opacity="1" fill-rule="evenodd"/><path fill="#582d2a" d="M 339.828125 268.074219 C 322.960938 278.3125 334.890625 298.816406 341.757812 304.167969 C 343.734375 305.734375 354.84375 289.144531 349.957031 276 C 367.699219 290.457031 390.839844 285.363281 395.800781 283.691406 C 395.800781 283.691406 395.160156 292.203125 399.710938 298.019531 C 404.59375 292.386719 401.871094 283.433594 401.871094 283.433594 C 414.289062 280.578125 420.023438 256.164062 406.960938 260.589844 C 403.667969 261.695312 388.910156 258.070312 384.976562 255.164062 C 368.777344 243.199219 342.425781 246.363281 339.828125 268.074219 " fill-opacity="1" fill-rule="evenodd"/><path fill="#582d2a" d="M 344.609375 260.589844 C 318.949219 259.691406 321.878906 304.835938 341.757812 311.0625 L 346.667969 280.785156 L 373.613281 278.492188 L 395.800781 283.691406 L 397.292969 294.417969 L 400.6875 279.265625 C 400.6875 279.265625 364.203125 261.285156 344.609375 260.589844 " fill-opacity="1" fill-rule="evenodd"/><path fill="#fcbfa3" d="M 348.929688 322.535156 L 373.484375 323.742188 C 373.484375 323.742188 375.464844 340.59375 377.957031 346.429688 C 380.222656 351.757812 384.257812 353.6875 384.257812 353.6875 C 383.433594 367.578125 348.132812 369.429688 342.65625 353.6875 C 342.65625 353.6875 347.257812 351.265625 348.929688 346.40625 C 351.011719 340.359375 348.929688 322.535156 348.929688 322.535156 " fill-opacity="1" fill-rule="evenodd"/><path fill="#f7907f" d="M 377.367188 344.707031 C 361.578125 344.398438 353.890625 339.5625 350.730469 331.226562 L 375.566406 329.710938 L 377.367188 344.707031 " fill-opacity="1" fill-rule="evenodd"/><path fill="#fcbfa3" d="M 376.082031 266.816406 C 396.574219 268.382812 399.402344 282.09375 398.605469 301.800781 C 397.730469 324.128906 390.480469 339.152344 370.167969 339.410156 C 354.125 339.589844 340.46875 326.339844 340.316406 308.796875 C 340.160156 288.039062 345.484375 264.449219 376.082031 266.816406 " fill-opacity="1" fill-rule="evenodd"/><path fill="#fcbfa3" d="M 340.597656 296.011719 C 335.816406 296.011719 331.933594 299.769531 331.933594 304.425781 C 331.933594 309.078125 335.816406 312.835938 340.597656 312.835938 C 345.382812 312.835938 349.265625 309.078125 349.265625 304.425781 C 349.265625 299.769531 345.382812 296.011719 340.597656 296.011719 " fill-opacity="1" fill-rule="evenodd"/><path fill="#582d2a" d="M 339.828125 268.074219 C 322.960938 278.3125 334.890625 298.816406 341.757812 304.167969 C 343.734375 305.734375 354.84375 289.144531 349.957031 276 C 367.699219 290.457031 390.839844 285.363281 395.800781 283.691406 C 395.800781 283.691406 395.160156 292.203125 399.710938 298.019531 C 404.59375 292.386719 401.871094 283.433594 401.871094 283.433594 C 414.289062 280.578125 420.023438 256.164062 406.960938 260.589844 C 403.667969 261.695312 388.910156 258.070312 384.976562 255.164062 C 368.777344 243.199219 342.425781 246.363281 339.828125 268.074219 " fill-opacity="1" fill-rule="evenodd"/><path fill="#f6decc" d="M 375.875 363.253906 C 372.148438 363.410156 365.257812 365.082031 365.257812 365.082031 C 365.257812 365.082031 357.464844 363.640625 354.019531 363.5625 L 360.910156 373.75 L 351.9375 440.53125 L 368.394531 455.5 L 380.347656 439.039062 L 369.574219 373.441406 L 375.875 363.253906 " fill-opacity="1" fill-rule="evenodd"/><path fill="#cc9d7c" d="M 391.148438 353.6875 L 380.144531 377.558594 L 365.101562 365.648438 L 349.957031 377.582031 L 336.949219 354.277344 L 347.128906 346.792969 L 364.792969 364.15625 L 380.347656 346.792969 L 391.148438 353.6875 " fill-opacity="1" fill-rule="evenodd"/><path fill="#582d2a" d="M 338.234375 357.183594 L 349.519531 377.816406 C 349.597656 377.945312 349.726562 378.019531 349.855469 378.046875 C 349.984375 378.097656 350.136719 378.046875 350.242188 377.96875 L 365.257812 366.597656 L 379.9375 377.710938 C 380.039062 377.816406 380.195312 377.839844 380.324219 377.816406 C 380.476562 377.761719 380.605469 377.660156 380.65625 377.53125 L 390.429688 355.921875 C 390.53125 355.742188 390.453125 355.511719 390.25 355.433594 C 390.066406 355.359375 389.835938 355.433594 389.761719 355.613281 L 380.039062 376.605469 L 365.566406 365.542969 C 365.386719 365.414062 365.128906 365.414062 364.949219 365.542969 L 350.113281 376.863281 L 338.980469 356.773438 C 338.875 356.566406 338.617188 356.488281 338.414062 356.59375 C 338.207031 356.722656 338.128906 356.976562 338.234375 357.183594 " fill-opacity="1" fill-rule="evenodd"/><path fill="#cc9d7c" d="M 348.183594 447.707031 C 360.472656 441.585938 372.171875 434.433594 382.613281 424.96875 L 397.292969 451.308594 L 370.039062 466.871094 L 348.183594 447.707031 " fill-opacity="1" fill-rule="evenodd"/><path fill="#582d2a" d="M 323.859375 460.59375 C 336.332031 455.320312 348.183594 449.351562 359.34375 442.589844 C 370.320312 435.898438 380.632812 428.414062 390.144531 420.027344 L 401.433594 444.261719 C 399.144531 447.65625 386.367188 465.738281 364.898438 480.683594 C 351.910156 489.742188 335.765625 497.636719 316.789062 500.414062 C 315.117188 500.648438 312.984375 499.722656 310.875 498.488281 C 306.660156 496.015625 302.675781 492.234375 302.675781 492.234375 C 302.261719 491.851562 301.59375 491.851562 301.207031 492.261719 C 300.824219 492.699219 300.824219 493.339844 301.234375 493.753906 C 301.234375 493.753906 305.398438 497.742188 309.796875 500.3125 C 312.367188 501.855469 315.042969 502.832031 317.097656 502.550781 C 336.460938 499.824219 352.992188 491.851562 366.285156 482.640625 C 390.558594 465.867188 403.925781 445.03125 403.925781 445.03125 C 404.160156 444.671875 404.183594 444.207031 404.003906 443.824219 L 391.664062 417.480469 C 391.507812 417.148438 391.175781 416.890625 390.789062 416.8125 C 390.429688 416.734375 390.015625 416.839844 389.734375 417.09375 C 380.015625 425.894531 369.449219 433.660156 358.132812 440.605469 C 347.105469 447.371094 335.378906 453.339844 323.039062 458.640625 C 322.496094 458.871094 322.242188 459.488281 322.472656 460.027344 C 322.703125 460.570312 323.320312 460.828125 323.859375 460.59375 " fill-opacity="1" fill-rule="evenodd"/><path fill="#582d2a" d="M 379.605469 428.386719 C 379.605469 428.386719 380.964844 430.859375 382.816406 434.152344 C 383.820312 435.925781 384.925781 437.933594 386.058594 439.914062 C 386.957031 441.480469 387.855469 443.050781 388.707031 444.492188 C 390.941406 448.351562 392.742188 451.335938 392.742188 451.335938 C 392.871094 451.539062 393.128906 451.617188 393.332031 451.488281 C 393.539062 451.386719 393.617188 451.101562 393.488281 450.898438 C 393.488281 450.898438 391.816406 447.835938 389.683594 443.953125 C 388.859375 442.484375 387.960938 440.914062 387.085938 439.347656 C 385.953125 437.339844 384.796875 435.359375 383.769531 433.609375 C 381.867188 430.34375 380.453125 427.898438 380.453125 427.898438 C 380.324219 427.667969 380.015625 427.589844 379.808594 427.71875 C 379.550781 427.847656 379.476562 428.15625 379.605469 428.386719 " fill-opacity="1" fill-rule="evenodd"/><path fill="#582d2a" d="M 386.621094 425.945312 C 387.855469 426.125 388.707031 427.203125 388.550781 428.363281 C 388.371094 429.519531 387.265625 430.34375 386.03125 430.164062 C 384.796875 429.984375 383.949219 428.902344 384.101562 427.746094 C 384.257812 426.585938 385.390625 425.789062 386.621094 425.945312 " fill-opacity="1" fill-rule="evenodd"/><path fill="#582d2a" d="M 336.949219 453.882812 C 336.949219 453.882812 336.714844 450.640625 336.355469 446.292969 C 336.175781 443.976562 335.972656 441.351562 335.714844 438.730469 C 334.992188 431.167969 334.09375 423.605469 334.09375 423.605469 C 334.042969 423.039062 333.527344 422.625 332.960938 422.675781 C 332.371094 422.730469 331.960938 423.242188 332.011719 423.808594 C 332.011719 423.808594 332.527344 431.398438 333.21875 438.960938 C 333.449219 441.585938 333.734375 444.207031 333.992188 446.523438 C 334.453125 450.84375 334.8125 454.0625 334.8125 454.0625 C 334.863281 454.652344 335.378906 455.089844 335.972656 455.039062 C 336.5625 454.988281 337 454.445312 336.949219 453.882812 " fill-opacity="1" fill-rule="evenodd"/><path fill="#f7907f" d="M 427.222656 398.214844 C 427.222656 398.214844 426.757812 398.472656 426.117188 398.832031 C 425.78125 399.039062 425.421875 399.269531 425.0625 399.527344 C 424.832031 399.65625 424.625 399.808594 424.417969 399.964844 C 423.621094 400.554688 423.003906 401.042969 423.003906 401.042969 C 422.824219 401.171875 422.773438 401.402344 422.902344 401.582031 C 423.003906 401.765625 423.261719 401.816406 423.441406 401.710938 C 423.441406 401.710938 424.136719 401.300781 424.984375 400.8125 C 425.191406 400.683594 425.421875 400.527344 425.628906 400.402344 C 425.988281 400.144531 426.347656 399.886719 426.683594 399.65625 C 427.246094 399.21875 427.683594 398.882812 427.683594 398.882812 C 427.863281 398.753906 427.917969 398.496094 427.789062 398.316406 C 427.683594 398.136719 427.425781 398.085938 427.222656 398.214844 " fill-opacity="1" fill-rule="evenodd"/><path fill="#f7907f" d="M 428.816406 403.691406 C 427.53125 405.46875 426.089844 407.089844 424.597656 408.632812 C 423.671875 409.558594 422.746094 410.457031 421.796875 411.359375 C 420.332031 412.671875 418.839844 413.957031 417.324219 415.191406 C 417.144531 415.320312 417.117188 415.578125 417.246094 415.757812 C 417.375 415.9375 417.632812 415.964844 417.8125 415.808594 C 419.355469 414.652344 420.871094 413.46875 422.335938 412.207031 C 422.953125 411.667969 423.570312 411.101562 424.164062 410.535156 C 425.164062 409.558594 426.089844 408.554688 426.992188 407.476562 C 427.890625 406.421875 428.714844 405.3125 429.484375 404.15625 C 429.613281 403.976562 429.5625 403.71875 429.382812 403.589844 C 429.203125 403.460938 428.945312 403.488281 428.816406 403.691406 " fill-opacity="1" fill-rule="evenodd"/><path fill="#f7907f" d="M 430.511719 409.070312 C 429.226562 410.84375 427.789062 412.464844 426.296875 414.007812 C 425.371094 414.933594 424.445312 415.835938 423.46875 416.710938 C 422.027344 418.046875 420.535156 419.332031 419.019531 420.566406 C 418.839844 420.695312 418.8125 420.953125 418.941406 421.132812 C 419.070312 421.289062 419.328125 421.339844 419.507812 421.1875 C 421.050781 420.027344 422.566406 418.84375 424.035156 417.585938 C 424.652344 417.042969 425.269531 416.476562 425.859375 415.914062 C 426.863281 414.933594 427.789062 413.90625 428.6875 412.851562 C 429.5625 411.796875 430.410156 410.691406 431.179688 409.53125 C 431.308594 409.351562 431.257812 409.09375 431.078125 408.964844 C 430.898438 408.839844 430.640625 408.863281 430.511719 409.070312 " fill-opacity="1" fill-rule="evenodd"/><path fill="#582d2a" d="M 361.195312 297.222656 C 359.546875 297.195312 358.1875 298.53125 358.132812 300.257812 C 358.082031 301.980469 359.367188 303.421875 361.015625 303.445312 C 362.660156 303.496094 364.023438 302.132812 364.074219 300.4375 C 364.125 298.714844 362.839844 297.273438 361.195312 297.222656 " fill-opacity="1" fill-rule="evenodd"/><path fill="#582d2a" d="M 384.101562 297.863281 C 385.75 297.914062 387.035156 299.332031 386.984375 301.054688 C 386.929688 302.777344 385.570312 304.117188 383.921875 304.089844 C 382.304688 304.039062 380.992188 302.597656 381.042969 300.875 C 381.09375 299.175781 382.457031 297.8125 384.101562 297.863281 " fill-opacity="1" fill-rule="evenodd"/><path fill="#f7907f" d="M 356.953125 307.304688 C 353.609375 307.203125 350.832031 308.976562 350.753906 311.242188 C 350.703125 313.503906 353.378906 315.40625 356.71875 315.511719 C 360.089844 315.589844 362.867188 313.839844 362.917969 311.574219 C 362.96875 309.3125 360.292969 307.382812 356.953125 307.304688 " fill-opacity="1" fill-rule="evenodd"/><path fill="#f7907f" d="M 390.300781 308.207031 C 386.929688 308.128906 384.15625 309.878906 384.101562 312.140625 C 384.050781 314.40625 386.726562 316.335938 390.066406 316.410156 C 393.410156 316.515625 396.1875 314.738281 396.265625 312.476562 C 396.316406 310.210938 393.640625 308.308594 390.300781 308.207031 " fill-opacity="1" fill-rule="evenodd"/><path fill="#582d2a" d="M 364.742188 291.511719 C 364.074219 291.226562 363.40625 291.074219 362.738281 290.945312 C 362.042969 290.816406 361.347656 290.816406 360.652344 290.839844 C 359.804688 290.839844 358.957031 290.917969 358.109375 291.097656 C 357.515625 291.226562 356.953125 291.382812 356.386719 291.5625 C 355.871094 291.820312 355.253906 291.585938 354.996094 291.074219 C 354.765625 290.558594 354.996094 289.941406 355.511719 289.710938 C 356.589844 289.066406 357.75 288.578125 358.957031 288.296875 C 359.496094 288.167969 360.035156 288.089844 360.578125 288.0625 C 361.144531 288.0625 361.707031 288.089844 362.25 288.191406 C 363.480469 288.421875 364.664062 288.914062 365.796875 289.683594 C 366.3125 289.96875 366.492188 290.609375 366.207031 291.125 C 365.898438 291.640625 365.257812 291.820312 364.742188 291.511719 " fill-opacity="1" fill-rule="evenodd"/><path fill="#582d2a" d="M 381.429688 292.023438 C 382.070312 291.664062 382.742188 291.460938 383.410156 291.277344 C 384.078125 291.125 384.773438 291.074219 385.464844 291.023438 C 386.3125 290.996094 387.164062 290.996094 388.035156 291.125 C 388.601562 291.226562 389.195312 291.332031 389.785156 291.484375 C 390.300781 291.691406 390.917969 291.433594 391.121094 290.894531 C 391.328125 290.351562 391.046875 289.761719 390.53125 289.554688 C 389.375 288.988281 388.21875 288.605469 386.984375 288.398438 C 386.441406 288.296875 385.902344 288.269531 385.335938 288.269531 C 384.796875 288.296875 384.230469 288.371094 383.691406 288.527344 C 382.484375 288.835938 381.328125 289.402344 380.246094 290.25 C 379.757812 290.585938 379.628906 291.226562 379.964844 291.714844 C 380.273438 292.203125 380.941406 292.332031 381.429688 292.023438 " fill-opacity="1" fill-rule="evenodd"/><path fill="#f7907f" d="M 379.914062 319.832031 L 363.40625 319.472656 C 363.40625 319.472656 361.503906 328.757812 371.710938 328.449219 C 381.582031 328.140625 379.914062 319.832031 379.914062 319.832031 " fill-opacity="1" fill-rule="evenodd"/><path fill="#f7907f" d="M 374.382812 297.375 C 373.742188 303.164062 374.5625 307.664062 374.820312 310.675781 C 374.976562 312.269531 374.925781 313.503906 374.539062 314.328125 C 373.972656 315.484375 372.710938 316.050781 370.066406 315.640625 C 369.730469 315.589844 369.5 315.253906 369.550781 314.917969 C 369.601562 314.585938 369.9375 314.351562 370.269531 314.40625 C 371.246094 314.558594 371.992188 314.558594 372.53125 314.429688 C 372.945312 314.328125 373.253906 314.121094 373.40625 313.761719 C 373.714844 313.09375 373.691406 312.089844 373.585938 310.777344 C 373.304688 307.714844 372.480469 303.136719 373.148438 297.222656 C 373.203125 296.886719 373.484375 296.628906 373.84375 296.679688 C 374.179688 296.707031 374.4375 297.015625 374.382812 297.375 " fill-opacity="1" fill-rule="evenodd"/></svg>