<svg xmlns="http://www.w3.org/2000/svg" xmlns:xlink="http://www.w3.org/1999/xlink" width="1080" zoomAndPan="magnify" viewBox="0 0 810 809.999993" height="1080" preserveAspectRatio="xMidYMid meet" version="1.0"><defs><clipPath id="e368933ef1"><path d="M 418 539 L 496.671875 539 L 496.671875 566 L 418 566 Z M 418 539 " clip-rule="nonzero"/></clipPath><clipPath id="581409cff2"><path d="M 487 397 L 496.671875 397 L 496.671875 427 L 487 427 Z M 487 397 " clip-rule="nonzero"/></clipPath><clipPath id="7251ed3450"><path d="M 366 342 L 496.671875 342 L 496.671875 565 L 366 565 Z M 366 342 " clip-rule="nonzero"/></clipPath><clipPath id="394ed883fd"><path d="M 313.671875 332 L 389 332 L 389 514 L 313.671875 514 Z M 313.671875 332 " clip-rule="nonzero"/></clipPath></defs><rect x="-81" width="972" fill="#ffffff" y="-80.999999" height="971.999992" fill-opacity="1"/><rect x="-81" width="972" fill="#fffaf5" y="-80.999999" height="971.999992" fill-opacity="1"/><g clip-path="url(#e368933ef1)"><path fill="#fab763" d="M 419.253906 559.164062 C 419.253906 559.628906 418.910156 565.519531 418.910156 565.519531 L 488.078125 565.339844 C 488.078125 565.339844 491.894531 565.285156 494.589844 561.703125 C 496.628906 558.773438 496.421875 556.507812 496.421875 556.507812 L 496.378906 539.507812 L 419.253906 559.164062 " fill-opacity="1" fill-rule="nonzero"/></g><g clip-path="url(#581409cff2)"><path fill="#f79775" d="M 496.007812 397.859375 L 496.082031 426.96875 C 496.082031 426.96875 487.75 421.890625 487.214844 413.238281 C 486.671875 404.582031 496.007812 397.859375 496.007812 397.859375 " fill-opacity="1" fill-rule="nonzero"/></g><g clip-path="url(#7251ed3450)"><path fill="#343945" d="M 393.328125 357.839844 C 393.328125 357.839844 368.085938 381.226562 366.347656 390.78125 C 364.609375 400.339844 371.074219 461.25 371.074219 461.25 C 371.074219 461.25 393.566406 468.351562 394.03125 468.195312 C 394.496094 468.039062 395.144531 460.207031 395.144531 460.207031 C 395.144531 460.207031 414.878906 525.15625 412.839844 534.367188 C 410.796875 543.578125 418.230469 544.105469 418.105469 547.953125 C 417.976562 551.800781 413.03125 555.523438 415.242188 558.128906 C 417.449219 560.734375 416.765625 561.714844 414.980469 563.625 C 438.664062 566.996094 488.121094 551.480469 496.378906 539.507812 C 496.378906 539.78125 496.074219 423.105469 496.074219 423.105469 L 490.359375 412.300781 L 496.027344 406.105469 L 495.945312 375.503906 C 495.945312 375.503906 477.707031 351.128906 474.910156 347.738281 C 472.113281 344.34375 454.578125 340.9375 431.195312 343.351562 C 419.589844 353.652344 393.328125 357.839844 393.328125 357.839844 " fill-opacity="1" fill-rule="nonzero"/></g><path fill="#f79775" d="M 394.386719 349.082031 C 394.386719 349.082031 395.890625 352.066406 395.742188 353.660156 C 395.589844 355.261719 393.328125 357.84375 393.328125 357.84375 C 393.328125 357.84375 403.441406 363.964844 414.859375 360.15625 C 426.273438 356.347656 431.199219 344.863281 431.195312 343.351562 C 428.097656 343.632812 426.308594 342.8125 425.195312 339.65625 C 424.085938 336.5 394.386719 349.082031 394.386719 349.082031 " fill-opacity="1" fill-rule="nonzero"/><path fill="#c2685b" d="M 390.34375 342.773438 C 390.34375 342.773438 394.386719 348.1875 394.386719 349.082031 C 405.070312 355.097656 424.4375 346.890625 425.195312 339.65625 C 424.5 336.636719 423.320312 332.039062 423.320312 332.039062 L 390.34375 342.773438 " fill-opacity="1" fill-rule="nonzero"/><path fill="#f79775" d="M 420.855469 285.398438 C 420.855469 285.398438 428.273438 279.5 431.042969 286.199219 C 433.816406 292.894531 437.292969 307.339844 426.839844 309.289062 C 422.558594 305.042969 420.855469 285.398438 420.855469 285.398438 " fill-opacity="1" fill-rule="nonzero"/><path fill="#f79775" d="M 370.382812 302.636719 C 370.382812 302.636719 363.292969 301.554688 363.242188 309.320312 C 363.195312 317.082031 367.898438 328.132812 375.429688 324.742188 C 376.550781 318.625 370.382812 302.636719 370.382812 302.636719 " fill-opacity="1" fill-rule="nonzero"/><path fill="#f79775" d="M 370.539062 308.726562 C 370.539062 308.726562 376.730469 340.367188 392.480469 345.375 C 408.226562 350.382812 426.265625 339.722656 427.882812 326.320312 C 429.496094 312.921875 424.421875 289.785156 424.421875 289.785156 C 424.421875 289.785156 422.367188 253.179688 402.578125 255.910156 C 382.792969 258.640625 368.34375 260.429688 365.390625 274.65625 C 362.433594 288.886719 370.539062 308.726562 370.539062 308.726562 " fill-opacity="1" fill-rule="nonzero"/><path fill="#652c2e" d="M 370.539062 308.726562 C 370.539062 308.726562 361.152344 299.554688 360.851562 290.429688 C 360.554688 281.300781 356.28125 278.425781 362.304688 266.59375 C 368.332031 254.765625 376.992188 251.167969 383.738281 251.5625 C 402.4375 242.996094 419.804688 251.882812 422.457031 265.335938 C 425.105469 278.792969 426.761719 279.949219 424.308594 290.261719 C 421.816406 284.910156 417.378906 271.257812 413.925781 267.144531 C 414.070312 269.34375 416.695312 274.125 414.496094 274.347656 C 412.292969 274.570312 397.691406 269.9375 397.691406 269.9375 C 397.691406 269.9375 404.03125 273.058594 401.28125 274.382812 C 398.53125 275.703125 387.375 273.125 387.375 273.125 C 387.375 273.125 393.851562 277.226562 391.3125 279.570312 C 388.773438 281.914062 372.796875 278.65625 372.523438 279.484375 C 372.25 280.308594 377.488281 282.902344 375.289062 284.144531 C 373.089844 285.390625 367.035156 285.265625 367.449219 285.542969 C 367.863281 285.8125 368.160156 294.167969 370.539062 308.726562 " fill-opacity="1" fill-rule="nonzero"/><path fill="#652c2e" d="M 386.476562 289.394531 C 384.777344 287.261719 380.132812 289.417969 378.296875 290.226562 C 374.808594 291.753906 373.222656 293.792969 371.792969 297.207031 C 371.632812 297.59375 371.820312 297.925781 372.109375 298.035156 C 372.304688 298.492188 372.699219 298.855469 373.21875 298.878906 C 376.9375 299.058594 379.964844 296.582031 383.132812 294.984375 C 384.820312 294.136719 388.347656 291.742188 386.476562 289.394531 " fill-opacity="1" fill-rule="nonzero"/><path fill="#652c2e" d="M 415.792969 282.277344 C 412.972656 280.878906 409.898438 280.261719 406.753906 280.601562 C 404.554688 280.835938 401.777344 281.269531 400.914062 283.570312 C 400.660156 284.246094 400.875 285.179688 401.617188 285.445312 C 405.933594 286.988281 410.761719 287.644531 415.160156 286.042969 C 415.472656 285.929688 415.695312 285.578125 415.757812 285.230469 C 415.964844 285.03125 416.160156 284.8125 416.320312 284.546875 C 416.8125 283.738281 416.675781 282.714844 415.792969 282.277344 " fill-opacity="1" fill-rule="nonzero"/><path fill="#c2685b" d="M 399.898438 312.589844 C 399.234375 311.910156 398.476562 311.398438 397.792969 310.761719 C 397.398438 310.417969 396.832031 310.046875 396.84375 309.734375 C 396.785156 309.269531 397.433594 306.34375 397.28125 304.914062 C 396.902344 301.320312 395.753906 297.910156 394.359375 294.59375 C 394.015625 293.789062 393.011719 294.523438 393.253906 295.226562 C 394.113281 297.6875 394.78125 300.222656 395.207031 302.796875 C 395.445312 304.226562 395.539062 305.476562 395.394531 306.9375 C 395.28125 308.085938 394.613281 309.054688 394.527344 310.101562 C 394.335938 312.355469 397.296875 313.554688 399.042969 314.3125 C 400.03125 314.738281 400.484375 313.183594 399.898438 312.589844 " fill-opacity="1" fill-rule="nonzero"/><path fill="#040606" d="M 388.085938 305.574219 C 386.53125 304.449219 384.324219 304.765625 382.65625 305.515625 C 380.484375 306.492188 379.554688 308.140625 378.03125 309.789062 C 377.683594 310.164062 377.734375 311.320312 378.492188 311.023438 C 379.871094 310.492188 380.613281 309.085938 381.824219 308.261719 C 383.671875 307.003906 385.433594 307.222656 387.53125 307.113281 C 388.222656 307.078125 388.726562 306.035156 388.085938 305.574219 " fill-opacity="1" fill-rule="nonzero"/><path fill="#040606" d="M 416.351562 296.445312 C 414.832031 294.886719 411.8125 295.136719 409.925781 295.824219 C 407.941406 296.546875 406.410156 297.929688 405.382812 299.753906 C 404.996094 300.445312 405.753906 301.148438 406.289062 300.457031 C 407.40625 299.007812 408.917969 297.921875 410.722656 297.519531 C 412.570312 297.109375 414.066406 297.839844 415.851562 297.824219 C 416.566406 297.816406 416.796875 296.902344 416.351562 296.445312 " fill-opacity="1" fill-rule="nonzero"/><path fill="#ffffff" d="M 390.3125 331.007812 C 390.3125 331.007812 396.066406 320.019531 414.914062 322.496094 C 416.414062 323.726562 405.160156 342.765625 390.3125 331.007812 " fill-opacity="1" fill-rule="nonzero"/><path fill="#c2685b" d="M 372.738281 320.707031 C 371.929688 320.203125 371.140625 319.375 371.089844 318.34375 C 371 316.503906 371.867188 316.964844 372.078125 315.847656 C 372.207031 315.171875 372.363281 314.777344 372.066406 314.105469 C 371.703125 313.273438 370.851562 312.855469 370.105469 312.441406 C 368.097656 311.324219 366.800781 310.515625 365.84375 308.300781 C 365.554688 307.628906 364.851562 308.175781 364.855469 308.707031 C 364.863281 310.085938 365.542969 311.140625 366.59375 312.015625 C 367.285156 312.59375 368.09375 312.957031 368.882812 313.367188 C 369.125 313.464844 369.363281 313.578125 369.597656 313.691406 C 369.25 313.78125 368.902344 313.90625 368.546875 313.964844 C 367.78125 314.085938 366.960938 314.070312 366.210938 313.878906 C 365.585938 313.714844 365.21875 314.703125 365.816406 314.96875 C 367.242188 315.601562 369.640625 315.882812 370.675781 314.410156 C 371.074219 315.203125 371.011719 315.902344 370.472656 316.5 C 370.003906 318.640625 369.882812 320.605469 372.246094 321.699219 C 372.753906 321.933594 373.195312 320.988281 372.738281 320.707031 " fill-opacity="1" fill-rule="nonzero"/><path fill="#c2685b" d="M 430.980469 299.601562 C 430.308594 298.019531 429.234375 298.554688 428.15625 297.632812 C 427.761719 297.292969 427.5625 296.765625 427.480469 296.128906 C 427.539062 296.101562 427.597656 296.078125 427.65625 296.03125 C 428.203125 295.566406 428.777344 295.132812 429.382812 294.746094 C 429.921875 294.398438 430.566406 294.125 430.921875 293.578125 C 431.121094 293.273438 431.023438 292.800781 430.617188 292.757812 C 429.9375 292.6875 429.25 293.257812 428.71875 293.625 C 428.296875 293.917969 427.890625 294.234375 427.488281 294.558594 C 427.734375 292.152344 428.808594 289.152344 428.875 287.800781 C 428.894531 287.425781 428.433594 287.179688 428.21875 287.5625 C 426.554688 290.542969 425.679688 295.074219 426.6875 298.375 C 426.769531 298.636719 427.027344 298.71875 427.269531 298.6875 C 430.515625 300.230469 430.898438 302.0625 428.410156 304.195312 C 428.078125 304.363281 428.148438 305.0625 428.589844 304.9375 C 430.6875 304.355469 431.855469 301.65625 430.980469 299.601562 " fill-opacity="1" fill-rule="nonzero"/><path fill="#4a2123" d="M 377.492188 257.300781 C 372.667969 257.554688 369.066406 259.710938 366.4375 263.753906 C 365.136719 265.757812 363.054688 269.230469 365.253906 270.992188 C 363.496094 274.144531 364.046875 277.835938 366.675781 280.449219 C 367.375 281.144531 368.386719 279.71875 367.832031 279.050781 C 365.832031 276.632812 365.425781 273.949219 367.035156 271.117188 C 367.285156 270.679688 367.292969 269.976562 366.722656 269.769531 C 365.941406 269.488281 367.226562 265.398438 367.589844 264.644531 C 368.292969 263.179688 369.597656 261.980469 370.851562 261.011719 C 372.804688 259.5 375.0625 258.558594 377.488281 258.128906 C 377.875 258.0625 377.941406 257.28125 377.492188 257.300781 " fill-opacity="1" fill-rule="nonzero"/><path fill="#4a2123" d="M 381.148438 274.949219 C 379.976562 273.542969 378.453125 272.40625 377.070312 271.21875 C 376.074219 270.363281 374.960938 269.5625 375.332031 268.117188 C 375.496094 267.46875 375.964844 266.875 376.148438 266.207031 C 376.296875 265.660156 375.585938 265.382812 375.414062 265.945312 C 374.980469 267.371094 373.535156 268.738281 374.507812 270.246094 C 375.09375 271.15625 376.246094 271.871094 377.058594 272.550781 C 378.238281 273.542969 379.40625 274.660156 380.738281 275.4375 C 381.023438 275.605469 381.359375 275.203125 381.148438 274.949219 " fill-opacity="1" fill-rule="nonzero"/><path fill="#4a2123" d="M 392.324219 266.976562 C 390.484375 266.847656 388.550781 266.585938 387.238281 265.144531 C 385.511719 263.253906 386.265625 261.832031 386.613281 259.726562 C 386.992188 257.402344 384.695312 255.414062 383.992188 253.320312 C 383.644531 252.289062 382.382812 253.230469 382.628906 254.09375 C 383.257812 256.3125 384.972656 257.84375 384.800781 260.15625 C 384.703125 261.496094 384.503906 262.511719 384.886719 263.886719 C 385.882812 267.457031 389.058594 267.578125 392.257812 267.558594 C 392.574219 267.558594 392.671875 267 392.324219 266.976562 " fill-opacity="1" fill-rule="nonzero"/><path fill="#4a2123" d="M 409.835938 266.070312 C 407.597656 263.210938 404.226562 258.683594 400.429688 257.84375 C 398.859375 257.492188 397.585938 258.085938 396.03125 258.09375 C 391.652344 258.113281 389.691406 255.164062 387.835938 251.714844 C 387.5625 251.199219 386.902344 251.90625 387.15625 252.367188 C 388.875 255.5 391 258.976562 394.855469 259.253906 C 398.316406 259.5 400.15625 258.4375 403.128906 261.039062 C 405.242188 262.886719 406.910156 265.199219 409.007812 267.074219 C 409.542969 267.550781 410.214844 266.550781 409.835938 266.070312 " fill-opacity="1" fill-rule="nonzero"/><path fill="#4a2123" d="M 400.699219 253.457031 C 400.066406 253.289062 399.667969 254.386719 400.300781 254.558594 C 409.792969 257.195312 419.417969 261.445312 420.632812 272.273438 C 420.71875 273.015625 421.605469 272.746094 421.699219 272.152344 C 423.460938 261.351562 408.789062 255.617188 400.699219 253.457031 " fill-opacity="1" fill-rule="nonzero"/><path fill="#4a2123" d="M 405.964844 251.988281 C 403.175781 249.425781 398.699219 249.472656 395.359375 250.765625 C 394.789062 250.984375 394.804688 252.121094 395.488281 251.886719 C 399.148438 250.636719 402.113281 251.5 405.589844 252.742188 C 406.015625 252.894531 406.25 252.253906 405.964844 251.988281 " fill-opacity="1" fill-rule="nonzero"/><path fill="#4a2123" d="M 368.125 297.757812 C 367.175781 296.359375 365.9375 295.222656 364.976562 293.84375 C 363.316406 291.46875 363.34375 289.632812 363.316406 287.027344 C 363.28125 283.820312 362.035156 280.410156 361.753906 277.144531 C 361.699219 276.511719 360.917969 276.832031 360.933594 277.359375 C 360.984375 279.429688 361.179688 281.417969 361.523438 283.460938 C 361.871094 285.519531 362.054688 287.222656 362.019531 289.265625 C 362.007812 289.9375 361.894531 290.414062 362.019531 291.074219 C 362.546875 293.851562 365.371094 296.816406 367.621094 298.363281 C 367.984375 298.613281 368.335938 298.066406 368.125 297.757812 " fill-opacity="1" fill-rule="nonzero"/><path fill="#c2685b" d="M 388.148438 491.511719 C 389.097656 492.082031 391.394531 466.421875 390.5625 464.945312 C 389.734375 463.464844 381.675781 461.839844 379.613281 461.84375 C 377.546875 461.851562 385.453125 489.882812 388.148438 491.511719 " fill-opacity="1" fill-rule="nonzero"/><g clip-path="url(#394ed883fd)"><path fill="#f79775" d="M 387.375 482.363281 C 387.375 482.363281 364.914062 378.558594 364.984375 374.988281 C 365.058594 371.414062 368.902344 368.3125 368.613281 362.335938 C 368.320312 356.363281 365.976562 354.375 365.695312 352.179688 C 365.414062 349.980469 365.648438 337.960938 364.925781 335.351562 C 363.578125 332.746094 358.503906 339.628906 359.425781 349.789062 C 350.246094 339.648438 327.234375 330.089844 324.074219 333.121094 C 321.605469 336.21875 341.859375 343.125 338.976562 346.796875 C 335.601562 346.144531 314.117188 341.117188 313.917969 344.757812 C 313.722656 348.398438 334.320312 355.007812 333.566406 357.074219 C 332.816406 359.132812 315.527344 354.441406 314.851562 358.90625 C 314.175781 363.371094 333.035156 364.492188 331.527344 366.144531 C 330.015625 367.796875 317.832031 367.210938 318.25 369.132812 C 318.667969 371.054688 346.566406 379.773438 348.21875 379.703125 C 347.820312 385.402344 343.523438 452.253906 342.472656 471.765625 C 341.421875 491.277344 361.027344 513.453125 368.875 513.582031 C 376.71875 513.714844 391.6875 499.664062 387.375 482.363281 " fill-opacity="1" fill-rule="nonzero"/></g><path fill="#c2685b" d="M 348.804688 350.664062 C 347.660156 353.476562 344.328125 354.640625 342.96875 357.414062 C 341.453125 360.5 340.878906 364.550781 341.347656 367.933594 C 341.472656 368.835938 342.617188 368.570312 342.703125 367.777344 C 343.195312 363.3125 343.082031 358.984375 346.464844 355.585938 C 348.003906 354.042969 349.300781 353.039062 349.792969 350.851562 C 349.945312 350.175781 349.035156 350.101562 348.804688 350.664062 " fill-opacity="1" fill-rule="nonzero"/><path fill="#c2685b" d="M 355.128906 352.421875 C 353.988281 353.761719 353.261719 355.183594 352.859375 356.910156 C 352.320312 359.203125 352.917969 360.949219 352.941406 363.164062 C 352.976562 366.902344 350.574219 365.6875 348.214844 366.699219 C 346.667969 367.359375 345.554688 368.4375 344.640625 369.816406 C 344.351562 370.25 344.898438 370.722656 345.226562 370.273438 C 347.441406 367.226562 349.574219 367.914062 352.667969 367.492188 C 353.617188 367.363281 354.265625 367.136719 354.800781 366.367188 C 355.796875 364.9375 355.015625 363.390625 354.777344 361.855469 C 354.300781 358.730469 355.199219 356.257812 356.492188 353.464844 C 356.871094 352.644531 355.804688 351.632812 355.128906 352.421875 " fill-opacity="1" fill-rule="nonzero"/><path fill="#c2685b" d="M 364.933594 402.0625 C 363.550781 394.402344 361.335938 386.328125 362.773438 378.535156 C 362.839844 378.171875 362.351562 378.1875 362.285156 378.519531 C 360.742188 386.367188 362.089844 393.832031 363.5 401.609375 C 364.984375 409.785156 366.207031 418.113281 368.25 426.167969 C 368.375 426.65625 369.015625 426.265625 368.96875 425.871094 C 368.074219 417.898438 366.359375 409.957031 364.933594 402.0625 " fill-opacity="1" fill-rule="nonzero"/><path fill="#c2685b" d="M 354.957031 380.332031 C 353.960938 379.777344 352.855469 379.789062 351.734375 379.652344 C 350.375 379.492188 349.019531 379.324219 347.660156 379.167969 C 347.144531 379.109375 346.898438 380.046875 347.414062 380.210938 C 348.664062 380.609375 349.898438 380.933594 351.1875 381.179688 C 352.351562 381.402344 353.535156 381.742188 354.699219 381.414062 C 355.078125 381.304688 355.398438 380.578125 354.957031 380.332031 " fill-opacity="1" fill-rule="nonzero"/><path fill="#c2685b" d="M 365.980469 510.492188 C 362.234375 504.554688 365.175781 497.199219 364.707031 490.644531 C 364.242188 484.074219 362.890625 477.578125 362.324219 471.003906 C 362.238281 470.003906 361.039062 470.390625 360.902344 471.167969 C 359.597656 478.574219 362.539062 485.984375 362.753906 493.386719 C 362.933594 499.5625 361.28125 505.933594 365.035156 511.394531 C 365.507812 512.078125 366.363281 511.097656 365.980469 510.492188 " fill-opacity="1" fill-rule="nonzero"/><path fill="#fab763" d="M 468.097656 375.882812 C 468.097656 375.882812 398.359375 398.734375 395.488281 402.039062 C 392.621094 405.34375 406.949219 441.371094 409.222656 443.015625 C 411.5 444.65625 483.289062 420.5625 482.660156 416.238281 C 482.027344 411.910156 469.9375 375.234375 468.097656 375.882812 " fill-opacity="1" fill-rule="nonzero"/><path fill="#24272e" d="M 389.5 436.542969 C 387.871094 433.265625 386.179688 430.023438 384.585938 426.726562 C 383.09375 423.648438 381.972656 420.21875 380.046875 417.390625 C 379.570312 416.695312 378.71875 417.492188 378.789062 418.109375 C 379.183594 421.714844 380.6875 425.304688 382.449219 428.777344 C 381.585938 428.066406 380.617188 427.398438 379.570312 427.449219 C 379.113281 427.46875 378.8125 427.964844 378.96875 428.386719 C 379.492188 429.816406 381.066406 430.628906 382.230469 431.515625 C 383.191406 432.246094 384.148438 432.980469 385.089844 433.726562 C 385.738281 434.914062 386.363281 436.082031 386.933594 437.222656 C 390.140625 443.644531 393.308594 450.238281 395.042969 457.226562 C 395.265625 458.121094 396.488281 457.425781 396.378906 456.679688 C 395.300781 449.484375 392.730469 443.035156 389.5 436.542969 " fill-opacity="1" fill-rule="nonzero"/><path fill="#24272e" d="M 429.46875 352.570312 C 425.167969 357.007812 422.394531 361.695312 415.929688 363.289062 C 410.320312 364.664062 403.289062 364.890625 397.546875 364.257812 C 397.109375 364.210938 397.003906 364.964844 397.453125 365.042969 C 409.914062 367.242188 423.671875 365.320312 430.058594 353.183594 C 430.265625 352.785156 429.898438 352.128906 429.46875 352.570312 " fill-opacity="1" fill-rule="nonzero"/><path fill="#24272e" d="M 490.207031 410.472656 C 486.054688 404.128906 482.785156 397.128906 480.105469 390.046875 C 479.179688 387.59375 478.414062 385.039062 477.660156 382.464844 C 478.253906 379.191406 478.976562 375.351562 478.507812 372.054688 C 478.445312 371.628906 477.917969 371.65625 477.789062 372.03125 C 477.046875 374.136719 476.753906 376.558594 476.609375 378.933594 C 475.636719 375.722656 474.578125 372.554688 473.125 369.625 C 472.847656 369.0625 472.148438 369.457031 472.210938 370 C 473.039062 377.285156 476.085938 384.855469 478.726562 391.65625 C 481.46875 398.722656 484.863281 405.160156 489.445312 411.203125 C 489.851562 411.742188 490.527344 410.960938 490.207031 410.472656 " fill-opacity="1" fill-rule="nonzero"/><path fill="#24272e" d="M 480.855469 522.777344 C 465 534.039062 446.472656 539.203125 427.585938 542.820312 C 426.839844 542.960938 426.898438 544.324219 427.738281 544.164062 C 446.574219 540.59375 465.902344 535.585938 481.328125 523.671875 C 481.757812 523.339844 481.378906 522.40625 480.855469 522.777344 " fill-opacity="1" fill-rule="nonzero"/><path fill="#24272e" d="M 482.71875 532.148438 C 469.054688 541.347656 454.644531 547.816406 438.078125 549.4375 C 437.917969 549.453125 437.871094 549.746094 438.042969 549.730469 C 453.972656 548.191406 470.410156 542.828125 483.050781 532.777344 C 483.347656 532.539062 483.09375 531.894531 482.71875 532.148438 " fill-opacity="1" fill-rule="nonzero"/><path fill="#24272e" d="M 469.738281 450.160156 C 465.875 458.457031 463.15625 467.277344 459.40625 475.636719 C 455.339844 484.699219 450.375 493.410156 443.992188 501.046875 C 443.769531 501.308594 444.042969 501.800781 444.3125 501.496094 C 456.78125 487.40625 465.703125 468.558594 470.511719 450.441406 C 470.667969 449.851562 469.996094 449.605469 469.738281 450.160156 " fill-opacity="1" fill-rule="nonzero"/><path fill="#b96f52" d="M 450.589844 390.035156 C 442.386719 403.523438 434.867188 417.085938 425.25 429.691406 C 424.988281 430.035156 425.453125 430.425781 425.734375 430.066406 C 435.292969 417.859375 444.894531 404.609375 451.191406 390.367188 C 451.367188 389.96875 450.828125 389.640625 450.589844 390.035156 " fill-opacity="1" fill-rule="nonzero"/><path fill="#b96f52" d="M 453.730469 406.085938 C 447.195312 412.039062 441.449219 418.996094 435.1875 425.25 C 434.796875 425.640625 435.242188 426.394531 435.691406 425.949219 C 441.953125 419.730469 448.75 413.496094 454.054688 406.421875 C 454.222656 406.203125 453.960938 405.875 453.730469 406.085938 " fill-opacity="1" fill-rule="nonzero"/><path fill="#b96f52" d="M 484.378906 562.710938 C 483.179688 559.445312 480.640625 556.449219 478.738281 553.550781 C 478.191406 552.714844 477.101562 553.90625 477.589844 554.648438 C 479.46875 557.496094 481.183594 561.03125 483.707031 563.351562 C 484.082031 563.695312 484.5 563.054688 484.378906 562.710938 " fill-opacity="1" fill-rule="nonzero"/></svg>