<svg xmlns="http://www.w3.org/2000/svg" xmlns:xlink="http://www.w3.org/1999/xlink" width="1080" zoomAndPan="magnify" viewBox="0 0 810 809.999993" height="1080" preserveAspectRatio="xMidYMid meet" version="1.0"><rect x="-81" width="972" fill="#ffffff" y="-80.999999" height="971.999992" fill-opacity="1"/><rect x="-81" width="972" fill="#fffaf5" y="-80.999999" height="971.999992" fill-opacity="1"/><path fill="#000000" d="M 311.886719 271.589844 C 274.332031 271.589844 243.757812 302.222656 243.757812 339.71875 L 243.757812 498.691406 C 243.757812 536.246094 274.332031 566.824219 311.886719 566.824219 L 470.859375 566.824219 C 508.414062 566.824219 538.992188 536.246094 538.992188 498.691406 L 538.992188 430.5625 C 538.992188 424.292969 533.90625 419.207031 527.636719 419.207031 C 521.367188 419.207031 516.28125 424.292969 516.28125 430.5625 L 516.28125 498.691406 C 516.28125 524.0625 496.230469 544.113281 470.859375 544.113281 L 311.886719 544.113281 C 286.574219 544.113281 266.46875 524.0625 266.46875 498.691406 L 266.46875 339.71875 C 266.46875 314.40625 286.574219 294.300781 311.886719 294.300781 L 380.019531 294.300781 C 386.289062 294.300781 391.375 289.214844 391.375 282.945312 C 391.375 276.675781 386.289062 271.589844 380.019531 271.589844 Z M 311.886719 271.589844 " fill-opacity="1" fill-rule="nonzero"/><path fill="#000000" d="M 474.527344 263.78125 L 342.757812 395.550781 C 340.984375 397.324219 339.863281 399.628906 339.566406 402.054688 L 330.929688 465.453125 C 329.925781 472.789062 336.078125 479.058594 343.46875 478.289062 L 408.230469 471.074219 C 410.832031 470.777344 413.195312 469.652344 415.03125 467.820312 L 546.796875 336.113281 C 566.667969 316.179688 566.667969 283.714844 546.796875 263.78125 C 527.28125 243.4375 493.628906 245.269531 474.527344 263.78125 Z M 530.710938 279.867188 C 541.949219 291.105469 541.949219 308.730469 530.710938 320.027344 L 518.644531 332.089844 L 478.546875 291.933594 L 490.554688 279.867188 C 503.742188 266.679688 520.007812 269.164062 530.710938 279.867188 Z M 462.460938 307.960938 L 502.617188 348.117188 L 401.78125 448.953125 L 355.414062 454.097656 L 361.507812 408.914062 Z M 462.460938 307.960938 " fill-opacity="1" fill-rule="nonzero"/></svg>