<svg xmlns="http://www.w3.org/2000/svg" xmlns:xlink="http://www.w3.org/1999/xlink" width="1080" zoomAndPan="magnify" viewBox="0 0 810 809.999993" height="1080" preserveAspectRatio="xMidYMid meet" version="1.0"><defs><clipPath id="f5cf8b8e4b"><path d="M 243 297.066406 L 567 297.066406 L 567 513.066406 L 243 513.066406 Z M 243 297.066406 " clip-rule="nonzero"/></clipPath></defs><rect x="-81" width="972" fill="#ffffff" y="-80.999999" height="971.999992" fill-opacity="1"/><rect x="-81" width="972" fill="#fffaf5" y="-80.999999" height="971.999992" fill-opacity="1"/><g clip-path="url(#f5cf8b8e4b)"><path fill="#000000" d="M 566.355469 405.425781 C 566.355469 409.375 563.128906 412.601562 559.183594 412.601562 L 268.132812 412.601562 L 356.304688 500.832031 C 359.101562 503.632812 359.101562 508.1875 356.304688 510.988281 C 354.871094 512.351562 353.042969 513.066406 351.214844 513.066406 C 349.386719 513.066406 347.558594 512.351562 346.160156 510.949219 L 245.757812 410.484375 C 245.4375 410.164062 245.113281 409.769531 244.863281 409.375 C 244.753906 409.195312 244.683594 409.015625 244.574219 408.835938 C 244.46875 408.621094 244.324219 408.40625 244.21875 408.152344 C 244.109375 407.902344 244.074219 407.6875 244 407.4375 C 243.929688 407.21875 243.859375 407.039062 243.824219 406.824219 C 243.644531 405.894531 243.644531 404.960938 243.824219 404.027344 C 243.859375 403.8125 243.929688 403.632812 244 403.417969 C 244.074219 403.164062 244.144531 402.914062 244.21875 402.699219 C 244.324219 402.449219 244.46875 402.234375 244.574219 402.019531 C 244.683594 401.839844 244.753906 401.660156 244.863281 401.480469 C 245.113281 401.085938 245.4375 400.726562 245.757812 400.367188 L 346.160156 299.902344 C 348.957031 297.101562 353.507812 297.101562 356.304688 299.902344 C 359.101562 302.699219 359.101562 307.257812 356.304688 310.054688 L 268.132812 398.25 L 559.183594 398.25 C 563.128906 398.25 566.355469 401.480469 566.355469 405.425781 Z M 566.355469 405.425781 " fill-opacity="1" fill-rule="nonzero"/></g></svg>