<svg xmlns="http://www.w3.org/2000/svg" xmlns:xlink="http://www.w3.org/1999/xlink" width="1080" zoomAndPan="magnify" viewBox="0 0 810 809.999993" height="1080" preserveAspectRatio="xMidYMid meet" version="1.0"><rect x="-81" width="972" fill="#ffffff" y="-80.999999" height="971.999992" fill-opacity="1"/><rect x="-81" width="972" fill="#fffaf5" y="-80.999999" height="971.999992" fill-opacity="1"/><path fill="#000000" d="M 355.117188 454.234375 C 409.855469 454.234375 454.234375 409.855469 454.234375 355.117188 C 454.234375 300.375 409.855469 256 355.117188 256 C 300.375 256 256 300.375 256 355.117188 C 256 409.855469 300.375 454.234375 355.117188 454.234375 Z M 438.859375 429.667969 L 564.445312 555.253906 C 566.984375 557.792969 566.984375 561.90625 564.445312 564.445312 C 561.90625 566.984375 557.792969 566.984375 555.253906 564.445312 L 429.667969 438.859375 C 409.855469 456.507812 383.738281 467.234375 355.117188 467.234375 C 293.195312 467.234375 243 417.035156 243 355.117188 C 243 293.195312 293.195312 243 355.117188 243 C 417.035156 243 467.234375 293.195312 467.234375 355.117188 C 467.234375 383.738281 456.507812 409.855469 438.859375 429.667969 Z M 438.859375 429.667969 " fill-opacity="1" fill-rule="nonzero"/></svg>